SplineFontDB: 3.0
FontName: Strobrod-Regular
FullName: Strobrod
FamilyName: Strobrod
Weight: Book
Copyright: CC, Aaron Christianson, Nicolas Mercier
UComments: "2017-3-27: Created with FontForge (http://fontforge.org)"
Version: 001.000
StrokeWidth: 600
ItalicAngle: 0
UnderlinePosition: -100
UnderlineWidth: 0
Ascent: 800
Descent: 736
InvalidEm: 0
LayerCount: 2
Layer: 0 0 "Back" 1
Layer: 1 0 "Fore" 0
StrokedFont: 1
XUID: [1021 68 1269985762 15680502]
StyleMap: 0x0040
FSType: 0
OS2Version: 3
OS2_WeightWidthSlopeOnly: 0
OS2_UseTypoMetrics: 1
CreationTime: 1490615230
ModificationTime: 1495914246
PfmFamily: 49
TTFWeight: 400
TTFWidth: 5
LineGap: -536
VLineGap: 0
Panose: 2 11 5 9 0 0 0 0 0 0
OS2TypoAscent: 800
OS2TypoAOffset: 0
OS2TypoDescent: -200
OS2TypoDOffset: 0
OS2TypoLinegap: 0
OS2WinAscent: 800
OS2WinAOffset: 0
OS2WinDescent: 200
OS2WinDOffset: 0
HheadAscent: 800
HheadAOffset: 0
HheadDescent: -200
HheadDOffset: 0
OS2Vendor: 'PfEd'
MarkAttachClasses: 1
DEI: 91125
LangName: 1033
GaspTable: 2 0 1 65535 1 1
DesignSize: 100
Encoding: iso8859-15
UnicodeInterp: none
NameList: AGL For New Fonts
DisplaySize: 10
AntiAlias: 1
FitToEm: 0
WinInfo: 0 61 19
BeginPrivate: 0
EndPrivate
TeXData: 1 10485760 0 524288 262144 174762 524288 1048576 174762 783286 444596 497025 792723 393216 433062 380633 303038 157286 324010 404750 52429 2506097 1059062 262144
BeginChars: 546 546

StartChar: exclam
Encoding: 33 33 1
Width: 600
VWidth: 0
Flags: W
HStem: 0 100<291 397> 600 0G<291 397>
VStem: 279 100<0 104 209 625>
LayerCount: 2
Back
SplineSet
312.5 625 m 29
 416.69921875 625 l 25
 416.69921875 208.30078125 l 25
 312.5 208.30078125 l 25
 312.5 625 l 29
312.5 104.19921875 m 25
 416.69921875 104.19921875 l 25
 416.69921875 0 l 25
 312.5 0 l 25
 312.5 104.19921875 l 25
EndSplineSet
Fore
SplineSet
279 600 m 25
 379 600 l 25
 379 200 l 25
 279 200 l 25
 279 600 l 25
279 100 m 25
 379 100 l 25
 379 0 l 25
 279 0 l 25
 279 100 l 25
EndSplineSet
EndChar

StartChar: quotedbl
Encoding: 34 34 2
Width: 600
VWidth: 0
Flags: W
HStem: 500 200<188 291 397 500>
VStem: 179 100<521 729> 379 100<521 729>
LayerCount: 2
Back
SplineSet
416.69921875 729.19921875 m 29
 520.80078125 729.19921875 l 25
 520.80078125 520.80078125 l 25
 416.69921875 520.80078125 l 25
 416.69921875 729.19921875 l 29
208.30078125 729.19921875 m 25
 312.5 729.19921875 l 25
 312.5 520.80078125 l 25
 208.30078125 520.80078125 l 25
 208.30078125 729.19921875 l 25
EndSplineSet
Fore
SplineSet
379 700 m 25
 479 700 l 25
 479 500 l 25
 379 500 l 25
 379 700 l 25
179 700 m 25
 279 700 l 25
 279 500 l 25
 179 500 l 25
 179 700 l 25
EndSplineSet
EndChar

StartChar: numbersign
Encoding: 35 35 3
Width: 600
VWidth: 0
Flags: W
HStem: 200 100<83 188 291 397 500 604> 400 100<83 188 291 397 500 604> 600 0G<188 291 397 500>
VStem: 179 100<104 209 312 418 521 625> 379 100<104 209 312 418 521 625>
LayerCount: 2
Back
SplineSet
312.5 416.69921875 m 29
 312.5 312.5 l 25
 416.69921875 312.5 l 25
 416.69921875 416.69921875 l 25
 312.5 416.69921875 l 29
104.19921875 520.80078125 m 25
 208.30078125 520.80078125 l 25
 208.30078125 625 l 25
 312.5 625 l 25
 312.5 520.80078125 l 25
 416.69921875 520.80078125 l 25
 416.69921875 625 l 25
 520.80078125 625 l 25
 520.80078125 520.80078125 l 25
 625 520.80078125 l 25
 625 416.69921875 l 25
 520.80078125 416.69921875 l 25
 520.80078125 312.5 l 25
 625 312.5 l 25
 625 208.30078125 l 25
 520.80078125 208.30078125 l 25
 520.80078125 104.19921875 l 25
 416.69921875 104.19921875 l 25
 416.69921875 208.30078125 l 25
 312.5 208.30078125 l 25
 312.5 104.19921875 l 25
 208.30078125 104.19921875 l 25
 208.30078125 208.30078125 l 25
 104.19921875 208.30078125 l 25
 104.19921875 312.5 l 25
 208.30078125 312.5 l 25
 208.30078125 416.69921875 l 25
 104.19921875 416.69921875 l 25
 104.19921875 520.80078125 l 25
EndSplineSet
Fore
SplineSet
279 400 m 25
 279 300 l 25
 379 300 l 25
 379 400 l 25
 279 400 l 25
79 500 m 25
 179 500 l 25
 179 600 l 25
 279 600 l 25
 279 500 l 25
 379 500 l 25
 379 600 l 25
 479 600 l 25
 479 500 l 25
 579 500 l 25
 579 400 l 25
 479 400 l 25
 479 300 l 25
 579 300 l 25
 579 200 l 25
 479 200 l 25
 479 100 l 25
 379 100 l 25
 379 200 l 25
 279 200 l 25
 279 100 l 25
 179 100 l 25
 179 200 l 25
 79 200 l 25
 79 300 l 25
 179 300 l 25
 179 400 l 25
 79 400 l 25
 79 500 l 25
EndSplineSet
EndChar

StartChar: dollar
Encoding: 36 36 4
Width: 600
VWidth: 0
Flags: W
HStem: -100 0G<291 397> 0 100<83 291 397 500> 100 100<500 604> 200 100<188 500> 300 100<83 188> 400 100<188 291 397 604> 600 0G<291 397>
VStem: 79 100<312 418> 279 100<-104 0 521 625> 479 100<104 209>
CounterMasks: 1 01c0
LayerCount: 2
Back
SplineSet
104.19921875 104.19921875 m 29
 520.80078125 104.19921875 l 25
 520.80078125 0 l 25
 416.69921875 0 l 25
 416.69921875 -104.19921875 l 25
 312.5 -104.19921875 l 25
 312.5 0 l 25
 104.19921875 0 l 25
 104.19921875 104.19921875 l 29
520.80078125 208.30078125 m 25
 625 208.30078125 l 25
 625 104.19921875 l 25
 520.80078125 104.19921875 l 25
 520.80078125 208.30078125 l 25
208.30078125 312.5 m 25
 520.80078125 312.5 l 25
 520.80078125 208.30078125 l 25
 208.30078125 208.30078125 l 25
 208.30078125 312.5 l 25
104.19921875 416.69921875 m 25
 208.30078125 416.69921875 l 25
 208.30078125 312.5 l 25
 104.19921875 312.5 l 25
 104.19921875 416.69921875 l 25
208.30078125 520.80078125 m 25
 312.5 520.80078125 l 25
 312.5 625 l 25
 416.69921875 625 l 25
 416.69921875 520.80078125 l 25
 625 520.80078125 l 25
 625 416.69921875 l 25
 208.30078125 416.69921875 l 25
 208.30078125 520.80078125 l 25
EndSplineSet
Fore
SplineSet
79 100 m 25xc3c0
 479 100 l 25
 479 0 l 25
 379 0 l 25
 379 -100 l 25
 279 -100 l 25
 279 0 l 25
 79 0 l 25
 79 100 l 25xc3c0
479 200 m 25xa3c0
 579 200 l 25
 579 100 l 25xa3c0
 479 100 l 25xc3c0
 479 200 l 25xa3c0
179 300 m 25x93c0
 479 300 l 25x93c0
 479 200 l 25xa3c0
 179 200 l 25
 179 300 l 25x93c0
79 400 m 25x8bc0
 179 400 l 25x8bc0
 179 300 l 25x93c0
 79 300 l 25
 79 400 l 25x8bc0
179 500 m 25x87c0
 279 500 l 25
 279 600 l 25
 379 600 l 25
 379 500 l 25
 579 500 l 25
 579 400 l 25x87c0
 179 400 l 25x8bc0
 179 500 l 25x87c0
EndSplineSet
EndChar

StartChar: percent
Encoding: 37 37 5
Width: 600
VWidth: 0
Flags: W
HStem: 100 100<83 188 397 500> 200 100<188 291> 300 100<291 397> 400 100<83 188 397 500>
VStem: 79 100<104 209 418 521> 179 100<209 312> 279 100<312 418> 379 100<104 209 418 521>
LayerCount: 2
Back
SplineSet
416.69921875 208.30078125 m 29
 520.80078125 208.30078125 l 25
 520.80078125 104.19921875 l 25
 416.69921875 104.19921875 l 25
 416.69921875 208.30078125 l 29
104.19921875 208.30078125 m 25
 208.30078125 208.30078125 l 25
 208.30078125 312.5 l 25
 312.5 312.5 l 25
 312.5 416.69921875 l 25
 416.69921875 416.69921875 l 25
 416.69921875 520.80078125 l 25
 520.80078125 520.80078125 l 25
 520.80078125 416.69921875 l 25
 416.69921875 416.69921875 l 25
 416.69921875 312.5 l 25
 312.5 312.5 l 25
 312.5 208.30078125 l 25
 208.30078125 208.30078125 l 25
 208.30078125 104.19921875 l 25
 104.19921875 104.19921875 l 25
 104.19921875 208.30078125 l 25
104.19921875 520.80078125 m 25
 208.30078125 520.80078125 l 25
 208.30078125 416.69921875 l 25
 104.19921875 416.69921875 l 25
 104.19921875 520.80078125 l 25
EndSplineSet
Fore
SplineSet
379 200 m 25x81
 479 200 l 25
 479 100 l 25
 379 100 l 25
 379 200 l 25x81
79 200 m 25x88
 179 200 l 25x88
 179 300 l 25
 279 300 l 25x44
 279 400 l 25
 379 400 l 25x22
 379 500 l 25
 479 500 l 25
 479 400 l 25x11
 379 400 l 25
 379 300 l 25x22
 279 300 l 25
 279 200 l 25x44
 179 200 l 25
 179 100 l 25
 79 100 l 25
 79 200 l 25x88
79 500 m 25x18
 179 500 l 25
 179 400 l 25
 79 400 l 25
 79 500 l 25x18
EndSplineSet
EndChar

StartChar: ampersand
Encoding: 38 38 6
Width: 600
VWidth: 0
Flags: W
HStem: 0 100<188 397 500 604> 100 200<83 188 397 500> 300 100<291 397 500 604> 600 100<291 500>
VStem: 79 100<104 312> 179 200<0 104 312 418> 179 100<418 625> 379 100<104 312> 479 100<0 104 312 418>
LayerCount: 2
Back
SplineSet
208.30078125 312.5 m 29
 208.30078125 104.19921875 l 25
 416.69921875 104.19921875 l 25
 416.69921875 312.5 l 25
 208.30078125 312.5 l 29
104.19921875 312.5 m 25
 208.30078125 312.5 l 25
 208.30078125 625 l 25
 312.5 625 l 25
 312.5 729.19921875 l 25
 520.80078125 729.19921875 l 25
 520.80078125 625 l 25
 312.5 625 l 25
 312.5 416.69921875 l 25
 416.69921875 416.69921875 l 25
 416.69921875 312.5 l 25
 520.80078125 312.5 l 25
 520.80078125 416.69921875 l 25
 625 416.69921875 l 25
 625 312.5 l 25
 520.80078125 312.5 l 25
 520.80078125 104.19921875 l 25
 625 104.19921875 l 25
 625 0 l 25
 520.80078125 0 l 25
 520.80078125 104.19921875 l 25
 416.69921875 104.19921875 l 25
 416.69921875 0 l 25
 208.30078125 0 l 25
 208.30078125 104.19921875 l 25
 104.19921875 104.19921875 l 25
 104.19921875 312.5 l 25
EndSplineSet
Fore
SplineSet
179 300 m 25x58
 179 100 l 25x98
 379 100 l 25x94
 379 300 l 25x54
 179 300 l 25x58
79 300 m 25x58
 179 300 l 25x58
 179 600 l 25
 279 600 l 25
 279 700 l 25
 479 700 l 25
 479 600 l 25
 279 600 l 25
 279 400 l 25x3280
 379 400 l 25x34
 379 300 l 25x54
 479 300 l 25x51
 479 400 l 25
 579 400 l 25
 579 300 l 25x3080
 479 300 l 25x51
 479 100 l 25x91
 579 100 l 25
 579 0 l 25
 479 0 l 25x9080
 479 100 l 25x91
 379 100 l 25
 379 0 l 25
 179 0 l 25x94
 179 100 l 25x98
 79 100 l 25
 79 300 l 25x58
EndSplineSet
EndChar

StartChar: quotesingle
Encoding: 39 39 7
Width: 600
VWidth: 0
Flags: W
HStem: 500 200<188 291>
VStem: 179 100<521 729>
LayerCount: 2
Back
SplineSet
208.30078125 729.19921875 m 29
 312.5 729.19921875 l 25
 312.5 520.80078125 l 25
 208.30078125 520.80078125 l 25
 208.30078125 729.19921875 l 29
EndSplineSet
Fore
SplineSet
179 700 m 25
 279 700 l 25
 279 500 l 25
 179 500 l 25
 179 700 l 25
EndSplineSet
EndChar

StartChar: parenleft
Encoding: 40 40 8
Width: 600
VWidth: 0
Flags: W
HStem: -100 100<291 397> 600 100<291 397>
VStem: 179 100<0 625> 279 100<-104 0 625 729>
LayerCount: 2
Back
SplineSet
208.30078125 625 m 29
 312.5 625 l 25
 312.5 729.19921875 l 25
 416.69921875 729.19921875 l 25
 416.69921875 625 l 25
 312.5 625 l 25
 312.5 0 l 25
 416.69921875 0 l 25
 416.69921875 -104.19921875 l 25
 312.5 -104.19921875 l 25
 312.5 0 l 25
 208.30078125 0 l 25
 208.30078125 625 l 29
EndSplineSet
Fore
SplineSet
179 600 m 25xe0
 279 600 l 25xe0
 279 700 l 25
 379 700 l 25
 379 600 l 25xd0
 279 600 l 25
 279 0 l 25xe0
 379 0 l 25
 379 -100 l 25
 279 -100 l 25xd0
 279 0 l 25
 179 0 l 25
 179 600 l 25xe0
EndSplineSet
EndChar

StartChar: parenright
Encoding: 41 41 9
Width: 600
VWidth: 0
Flags: W
HStem: -100 100<188 291> 600 100<188 291>
VStem: 179 100<-104 0 625 729> 279 100<0 625>
LayerCount: 2
Back
SplineSet
208.30078125 729.19921875 m 29
 312.5 729.19921875 l 25
 312.5 625 l 25
 416.69921875 625 l 25
 416.69921875 0 l 25
 312.5 0 l 25
 312.5 -104.19921875 l 25
 208.30078125 -104.19921875 l 25
 208.30078125 0 l 25
 312.5 0 l 25
 312.5 625 l 25
 208.30078125 625 l 25
 208.30078125 729.19921875 l 29
EndSplineSet
Fore
SplineSet
179 700 m 25xe0
 279 700 l 25
 279 600 l 25xe0
 379 600 l 25
 379 0 l 25xd0
 279 0 l 25
 279 -100 l 25
 179 -100 l 25
 179 0 l 25
 279 0 l 25
 279 600 l 25
 179 600 l 25
 179 700 l 25xe0
EndSplineSet
EndChar

StartChar: asterisk
Encoding: 42 42 10
Width: 600
VWidth: 0
Flags: W
HStem: 0 0G<291 397> 100 100<83 188 500 604> 200 100<188 291 397 500> 300 100<83 188 500 604> 500 0G<291 397>
VStem: 79 100<104 209 312 418> 279 100<0 209 312 521> 479 100<104 209 312 418>
CounterMasks: 1 07
LayerCount: 2
Back
SplineSet
104.19921875 416.69921875 m 29
 208.30078125 416.69921875 l 25
 208.30078125 312.5 l 25
 312.5 312.5 l 25
 312.5 520.80078125 l 25
 416.69921875 520.80078125 l 25
 416.69921875 312.5 l 25
 520.80078125 312.5 l 25
 520.80078125 416.69921875 l 25
 625 416.69921875 l 25
 625 312.5 l 25
 520.80078125 312.5 l 25
 520.80078125 208.30078125 l 25
 625 208.30078125 l 25
 625 104.19921875 l 25
 520.80078125 104.19921875 l 25
 520.80078125 208.30078125 l 25
 416.69921875 208.30078125 l 25
 416.69921875 0 l 25
 312.5 0 l 25
 312.5 208.30078125 l 25
 208.30078125 208.30078125 l 25
 208.30078125 104.19921875 l 25
 104.19921875 104.19921875 l 25
 104.19921875 208.30078125 l 25
 208.30078125 208.30078125 l 25
 208.30078125 312.5 l 25
 104.19921875 312.5 l 25
 104.19921875 416.69921875 l 29
EndSplineSet
Fore
SplineSet
79 400 m 25x9f
 179 400 l 25x9f
 179 300 l 25
 279 300 l 25
 279 500 l 25
 379 500 l 25
 379 300 l 25
 479 300 l 25xaf
 479 400 l 25
 579 400 l 25
 579 300 l 25x9f
 479 300 l 25xaf
 479 200 l 25
 579 200 l 25
 579 100 l 25
 479 100 l 25
 479 200 l 25xcf
 379 200 l 25
 379 0 l 25
 279 0 l 25
 279 200 l 25xaf
 179 200 l 25
 179 100 l 25
 79 100 l 25
 79 200 l 25
 179 200 l 25xcf
 179 300 l 25xaf
 79 300 l 25
 79 400 l 25x9f
EndSplineSet
EndChar

StartChar: plus
Encoding: 43 43 11
Width: 600
VWidth: 0
Flags: W
HStem: 0 0G<291 397> 200 100<83 291 397 604> 500 0G<291 397>
VStem: 279 100<0 209 312 521>
LayerCount: 2
Back
SplineSet
104.19921875 312.5 m 29
 312.5 312.5 l 25
 312.5 520.80078125 l 25
 416.69921875 520.80078125 l 25
 416.69921875 312.5 l 25
 625 312.5 l 25
 625 208.30078125 l 25
 416.69921875 208.30078125 l 25
 416.69921875 0 l 25
 312.5 0 l 25
 312.5 208.30078125 l 25
 104.19921875 208.30078125 l 25
 104.19921875 312.5 l 29
EndSplineSet
Fore
SplineSet
79 300 m 25
 279 300 l 25
 279 500 l 25
 379 500 l 25
 379 300 l 25
 579 300 l 25
 579 200 l 25
 379 200 l 25
 379 0 l 25
 279 0 l 25
 279 200 l 25
 79 200 l 25
 79 300 l 25
EndSplineSet
EndChar

StartChar: comma
Encoding: 44 44 12
Width: 600
VWidth: 0
Flags: W
HStem: -100 100<188 291>
VStem: 179 100<-104 0> 279 100<0 209>
LayerCount: 2
Back
SplineSet
208.30078125 0 m 29
 312.5 0 l 25
 312.5 208.30078125 l 25
 416.69921875 208.30078125 l 25
 416.69921875 0 l 25
 312.5 0 l 25
 312.5 -104.19921875 l 25
 208.30078125 -104.19921875 l 25
 208.30078125 0 l 29
EndSplineSet
Fore
SplineSet
179 0 m 25xc0
 279 0 l 25xc0
 279 200 l 25
 379 200 l 25
 379 0 l 25xa0
 279 0 l 25
 279 -100 l 25
 179 -100 l 25
 179 0 l 25xc0
EndSplineSet
EndChar

StartChar: hyphen
Encoding: 45 45 13
Width: 600
VWidth: 0
Flags: W
HStem: 200 100<83 604>
LayerCount: 2
Back
SplineSet
104.19921875 312.5 m 29
 625 312.5 l 25
 625 208.30078125 l 25
 104.19921875 208.30078125 l 25
 104.19921875 312.5 l 29
EndSplineSet
Fore
SplineSet
79 300 m 25
 579 300 l 25
 579 200 l 25
 79 200 l 25
 79 300 l 25
EndSplineSet
EndChar

StartChar: period
Encoding: 46 46 14
Width: 600
VWidth: 0
Flags: W
HStem: 0 200<188 397>
VStem: 179 200<0 209>
LayerCount: 2
Back
SplineSet
208.30078125 208.30078125 m 29
 416.69921875 208.30078125 l 25
 416.69921875 0 l 25
 208.30078125 0 l 25
 208.30078125 208.30078125 l 29
EndSplineSet
Fore
SplineSet
179 200 m 25
 379 200 l 25
 379 0 l 25
 179 0 l 25
 179 200 l 25
EndSplineSet
EndChar

StartChar: slash
Encoding: 47 47 15
Width: 600
VWidth: 0
Flags: W
HStem: -100 0G<83 188> 700 0G<397 500>
VStem: 79 100<-104 104> 179 100<104 312> 279 100<312 521> 379 100<521 729>
LayerCount: 2
Back
SplineSet
104.19921875 104.19921875 m 29
 208.30078125 104.19921875 l 25
 208.30078125 312.5 l 25
 312.5 312.5 l 25
 312.5 520.80078125 l 25
 416.69921875 520.80078125 l 25
 416.69921875 729.19921875 l 25
 520.80078125 729.19921875 l 25
 520.80078125 520.80078125 l 25
 416.69921875 520.80078125 l 25
 416.69921875 312.5 l 25
 312.5 312.5 l 25
 312.5 104.19921875 l 25
 208.30078125 104.19921875 l 25
 208.30078125 -104.19921875 l 25
 104.19921875 -104.19921875 l 25
 104.19921875 104.19921875 l 29
EndSplineSet
Fore
SplineSet
79 100 m 25xe0
 179 100 l 25xe0
 179 300 l 25
 279 300 l 25xd0
 279 500 l 25
 379 500 l 25xc8
 379 700 l 25
 479 700 l 25
 479 500 l 25xc4
 379 500 l 25
 379 300 l 25xc8
 279 300 l 25
 279 100 l 25xd0
 179 100 l 25
 179 -100 l 25
 79 -100 l 25
 79 100 l 25xe0
EndSplineSet
EndChar

StartChar: zero
Encoding: 48 48 16
Width: 600
VWidth: 0
Flags: W
HStem: 0 100<188 397> 200 100<188 291> 300 100<291 397> 500 100<188 397>
VStem: 79 100<104 209 312 521> 179 200<0 104 521 625> 379 100<104 312 418 521>
LayerCount: 2
Back
SplineSet
312.5 312.5 m 29
 312.5 208.30078125 l 25
 208.30078125 208.30078125 l 25
 208.30078125 104.19921875 l 25
 416.69921875 104.19921875 l 25
 416.69921875 312.5 l 25
 312.5 312.5 l 29
208.30078125 520.80078125 m 25
 208.30078125 312.5 l 25
 312.5 312.5 l 25
 312.5 416.69921875 l 25
 416.69921875 416.69921875 l 25
 416.69921875 520.80078125 l 25
 208.30078125 520.80078125 l 25
104.19921875 520.80078125 m 25
 208.30078125 520.80078125 l 25
 208.30078125 625 l 25
 416.69921875 625 l 25
 416.69921875 520.80078125 l 25
 520.80078125 520.80078125 l 25
 520.80078125 104.19921875 l 25
 416.69921875 104.19921875 l 25
 416.69921875 0 l 25
 208.30078125 0 l 25
 208.30078125 104.19921875 l 25
 104.19921875 104.19921875 l 25
 104.19921875 520.80078125 l 25
EndSplineSet
Fore
SplineSet
279 300 m 25xd2
 279 200 l 25
 179 200 l 25
 179 100 l 25xda
 379 100 l 25xd4
 379 300 l 25xb2
 279 300 l 25xd2
179 500 m 25
 179 300 l 25
 279 300 l 25xd8
 279 400 l 25
 379 400 l 25xba
 379 500 l 25xb4
 179 500 l 25
79 500 m 25
 179 500 l 25x98
 179 600 l 25
 379 600 l 25
 379 500 l 25x94
 479 500 l 25
 479 100 l 25x92
 379 100 l 25
 379 0 l 25
 179 0 l 25x94
 179 100 l 25
 79 100 l 25
 79 500 l 25
EndSplineSet
EndChar

StartChar: one
Encoding: 49 49 17
Width: 600
VWidth: 0
Flags: W
HStem: 0 0G<291 397> 400 100<188 291> 600 0G<291 397>
VStem: 279 100<0 418 521 625>
LayerCount: 2
Back
SplineSet
208.30078125 520.80078125 m 29
 312.5 520.80078125 l 25
 312.5 625 l 25
 416.69921875 625 l 25
 416.69921875 0 l 25
 312.5 0 l 25
 312.5 416.69921875 l 25
 208.30078125 416.69921875 l 25
 208.30078125 520.80078125 l 29
EndSplineSet
Fore
SplineSet
179 500 m 25
 279 500 l 25
 279 600 l 25
 379 600 l 25
 379 0 l 25
 279 0 l 25
 279 400 l 25
 179 400 l 25
 179 500 l 25
EndSplineSet
EndChar

StartChar: two
Encoding: 50 50 18
Width: 600
VWidth: 0
Flags: W
HStem: 0 100<83 188 291 500> 200 100<291 397> 400 100<83 188> 500 100<188 397>
VStem: 79 100<418 521> 179 100<104 209> 279 100<209 312> 379 100<312 521>
LayerCount: 2
Back
SplineSet
104.19921875 416.69921875 m 29
 104.19921875 520.80078125 l 25
 208.30078125 520.80078125 l 25
 208.30078125 625 l 25
 416.69921875 625 l 25
 416.69921875 520.80078125 l 25
 520.80078125 520.80078125 l 25
 520.80078125 312.5 l 25
 416.69921875 312.5 l 25
 416.69921875 208.30078125 l 25
 312.5 208.30078125 l 25
 312.5 104.19921875 l 25
 520.80078125 104.19921875 l 25
 520.80078125 0 l 25
 104.19921875 0 l 25
 104.19921875 104.19921875 l 25
 208.30078125 104.19921875 l 25
 208.30078125 208.30078125 l 25
 312.5 208.30078125 l 25
 312.5 312.5 l 25
 416.69921875 312.5 l 25
 416.69921875 416.69921875 l 25
 416.69921875 520.80078125 l 25
 208.30078125 520.80078125 l 25
 208.30078125 416.69921875 l 25
 104.19921875 416.69921875 l 29
EndSplineSet
Fore
SplineSet
79 400 m 25xe9
 79 500 l 25
 179 500 l 25xe9
 179 600 l 25
 379 600 l 25
 379 500 l 25
 479 500 l 25
 479 300 l 25xd5
 379 300 l 25
 379 200 l 25xd2
 279 200 l 25
 279 100 l 25xd4
 479 100 l 25
 479 0 l 25
 79 0 l 25
 79 100 l 25xd9
 179 100 l 25
 179 200 l 25
 279 200 l 25xd4
 279 300 l 25
 379 300 l 25xd2
 379 400 l 25xe1
 379 500 l 25xd1
 179 500 l 25
 179 400 l 25
 79 400 l 25xe9
EndSplineSet
EndChar

StartChar: three
Encoding: 51 51 19
Width: 600
VWidth: 0
Flags: W
HStem: 0 100<83 397> 300 100<188 397> 500 100<83 397>
VStem: 379 100<104 312 418 521>
LayerCount: 2
Back
SplineSet
104.19921875 625 m 29
 520.80078125 625 l 25
 520.80078125 416.69921875 l 25
 416.69921875 416.69921875 l 25
 416.69921875 312.5 l 25
 520.80078125 312.5 l 25
 520.80078125 104.19921875 l 25
 416.69921875 104.19921875 l 25
 416.69921875 0 l 25
 104.19921875 0 l 25
 104.19921875 104.19921875 l 25
 416.69921875 104.19921875 l 25
 416.69921875 312.5 l 25
 208.30078125 312.5 l 25
 208.30078125 416.69921875 l 25
 416.69921875 416.69921875 l 25
 416.69921875 520.80078125 l 25
 104.19921875 520.80078125 l 25
 104.19921875 625 l 29
EndSplineSet
Fore
SplineSet
79 600 m 25
 479 600 l 25
 479 400 l 25
 379 400 l 25
 379 300 l 25
 479 300 l 25
 479 100 l 25
 379 100 l 25
 379 0 l 25
 79 0 l 25
 79 100 l 25
 379 100 l 25
 379 300 l 25
 179 300 l 25
 179 400 l 25
 379 400 l 25
 379 500 l 25
 79 500 l 25
 79 600 l 25
EndSplineSet
EndChar

StartChar: four
Encoding: 52 52 20
Width: 600
VWidth: 0
Flags: W
HStem: 0 0G<397 500> 100 100<188 397> 300 100<188 291> 400 100<291 397> 600 0G<397 500>
VStem: 79 100<209 312> 179 100<312 418> 379 100<0 104 209 418 521 625>
LayerCount: 2
Back
SplineSet
208.30078125 312.5 m 29
 208.30078125 208.30078125 l 25
 416.69921875 208.30078125 l 25
 416.69921875 416.69921875 l 25
 312.5 416.69921875 l 25
 312.5 312.5 l 25
 208.30078125 312.5 l 29
104.19921875 312.5 m 25
 208.30078125 312.5 l 25
 208.30078125 416.69921875 l 25
 312.5 416.69921875 l 25
 312.5 520.80078125 l 25
 416.69921875 520.80078125 l 25
 416.69921875 625 l 25
 520.80078125 625 l 25
 520.80078125 0 l 25
 416.69921875 0 l 25
 416.69921875 104.19921875 l 25
 104.19921875 104.19921875 l 25
 104.19921875 312.5 l 25
EndSplineSet
Fore
SplineSet
179 300 m 25xed
 179 200 l 25
 379 200 l 25
 379 400 l 25xdd
 279 400 l 25
 279 300 l 25xeb
 179 300 l 25xed
79 300 m 25xed
 179 300 l 25xed
 179 400 l 25
 279 400 l 25xeb
 279 500 l 25
 379 500 l 25xdb
 379 600 l 25
 479 600 l 25
 479 0 l 25
 379 0 l 25
 379 100 l 25
 79 100 l 25
 79 300 l 25xed
EndSplineSet
EndChar

StartChar: five
Encoding: 53 53 21
Width: 600
VWidth: 0
Flags: W
HStem: 0 100<83 397> 300 100<188 397> 500 100<188 500>
VStem: 79 300<0 104 312 418> 79 100<418 521> 379 100<104 312>
LayerCount: 2
Back
SplineSet
104.19921875 625 m 29
 520.80078125 625 l 25
 520.80078125 520.80078125 l 25
 208.30078125 520.80078125 l 25
 208.30078125 416.69921875 l 25
 416.69921875 416.69921875 l 25
 416.69921875 312.5 l 25
 520.80078125 312.5 l 25
 520.80078125 104.19921875 l 25
 416.69921875 104.19921875 l 25
 416.69921875 0 l 25
 104.19921875 0 l 25
 104.19921875 104.19921875 l 25
 416.69921875 104.19921875 l 25
 416.69921875 312.5 l 25
 104.19921875 312.5 l 25
 104.19921875 625 l 29
EndSplineSet
Fore
SplineSet
79 600 m 25xe8
 479 600 l 25
 479 500 l 25
 179 500 l 25
 179 400 l 25xec
 379 400 l 25
 379 300 l 25xf0
 479 300 l 25
 479 100 l 25xe4
 379 100 l 25
 379 0 l 25
 79 0 l 25
 79 100 l 25
 379 100 l 25
 379 300 l 25
 79 300 l 25xf0
 79 600 l 25xe8
EndSplineSet
EndChar

StartChar: six
Encoding: 54 54 22
Width: 600
VWidth: 0
Flags: W
HStem: 0 100<188 397> 300 100<188 397> 500 100<188 397>
VStem: 79 100<104 312 418 521> 179 200<0 104 521 625> 379 100<104 312>
LayerCount: 2
Back
SplineSet
208.30078125 312.5 m 29
 208.30078125 104.19921875 l 25
 416.69921875 104.19921875 l 25
 416.69921875 312.5 l 25
 208.30078125 312.5 l 29
208.30078125 625 m 25
 416.69921875 625 l 25
 416.69921875 520.80078125 l 25
 208.30078125 520.80078125 l 25
 208.30078125 416.69921875 l 25
 416.69921875 416.69921875 l 25
 416.69921875 312.5 l 25
 520.80078125 312.5 l 25
 520.80078125 104.19921875 l 25
 416.69921875 104.19921875 l 25
 416.69921875 0 l 25
 208.30078125 0 l 25
 208.30078125 104.19921875 l 25
 104.19921875 104.19921875 l 25
 104.19921875 520.80078125 l 25
 208.30078125 520.80078125 l 25
 208.30078125 625 l 25
EndSplineSet
Fore
SplineSet
179 300 m 25xf4
 179 100 l 25xf4
 379 100 l 25xe8
 379 300 l 25
 179 300 l 25xf4
179 600 m 25xe8
 379 600 l 25
 379 500 l 25xe8
 179 500 l 25
 179 400 l 25
 379 400 l 25
 379 300 l 25
 479 300 l 25
 479 100 l 25xf4
 379 100 l 25
 379 0 l 25
 179 0 l 25xe8
 179 100 l 25
 79 100 l 25
 79 500 l 25
 179 500 l 25xf0
 179 600 l 25xe8
EndSplineSet
EndChar

StartChar: seven
Encoding: 55 55 23
Width: 600
VWidth: 0
Flags: W
HStem: 0 0G<188 291> 200 100<291 397> 500 100<83 397>
VStem: 179 100<0 209> 279 100<209 312> 379 100<312 521>
LayerCount: 2
Back
SplineSet
104.19921875 625 m 29
 520.80078125 625 l 25
 520.80078125 312.5 l 25
 416.69921875 312.5 l 25
 416.69921875 208.30078125 l 25
 312.5 208.30078125 l 25
 312.5 0 l 25
 208.30078125 0 l 25
 208.30078125 208.30078125 l 25
 312.5 208.30078125 l 25
 312.5 312.5 l 25
 416.69921875 312.5 l 25
 416.69921875 520.80078125 l 25
 104.19921875 520.80078125 l 25
 104.19921875 625 l 29
EndSplineSet
Fore
SplineSet
79 600 m 25xe4
 479 600 l 25
 479 300 l 25xe4
 379 300 l 25
 379 200 l 25xe8
 279 200 l 25
 279 0 l 25
 179 0 l 25
 179 200 l 25
 279 200 l 25xf0
 279 300 l 25
 379 300 l 25xe8
 379 500 l 25
 79 500 l 25
 79 600 l 25xe4
EndSplineSet
EndChar

StartChar: eight
Encoding: 56 56 24
Width: 600
VWidth: 0
Flags: W
HStem: 0 100<188 397> 100 200<83 188 397 500> 400 100<83 188 397 500> 500 100<188 397>
VStem: 79 100<104 312 418 521> 179 200<0 104 312 418 521 625> 379 100<104 312 418 521>
LayerCount: 2
Back
SplineSet
208.30078125 312.5 m 29
 208.30078125 104.19921875 l 25
 416.69921875 104.19921875 l 25
 416.69921875 312.5 l 25
 208.30078125 312.5 l 29
208.30078125 520.80078125 m 25
 208.30078125 416.69921875 l 25
 416.69921875 416.69921875 l 25
 416.69921875 520.80078125 l 25
 208.30078125 520.80078125 l 25
208.30078125 625 m 25
 416.69921875 625 l 25
 416.69921875 520.80078125 l 25
 520.80078125 520.80078125 l 25
 520.80078125 416.69921875 l 25
 416.69921875 416.69921875 l 25
 416.69921875 312.5 l 25
 520.80078125 312.5 l 25
 520.80078125 104.19921875 l 25
 416.69921875 104.19921875 l 25
 416.69921875 0 l 25
 208.30078125 0 l 25
 208.30078125 104.19921875 l 25
 104.19921875 104.19921875 l 25
 104.19921875 312.5 l 25
 208.30078125 312.5 l 25
 208.30078125 416.69921875 l 25
 104.19921875 416.69921875 l 25
 104.19921875 520.80078125 l 25
 208.30078125 520.80078125 l 25
 208.30078125 625 l 25
EndSplineSet
Fore
SplineSet
179 300 m 25x48
 179 100 l 25x88
 379 100 l 25x84
 379 300 l 25x44
 179 300 l 25x48
179 500 m 25x28
 179 400 l 25x28
 379 400 l 25
 379 500 l 25x24
 179 500 l 25x28
179 600 m 25x14
 379 600 l 25x14
 379 500 l 25x24
 479 500 l 25
 479 400 l 25x22
 379 400 l 25
 379 300 l 25x64
 479 300 l 25
 479 100 l 25x62
 379 100 l 25
 379 0 l 25
 179 0 l 25x84
 179 100 l 25x88
 79 100 l 25
 79 300 l 25
 179 300 l 25
 179 400 l 25
 79 400 l 25
 79 500 l 25
 179 500 l 25x68
 179 600 l 25x14
EndSplineSet
EndChar

StartChar: nine
Encoding: 57 57 25
Width: 600
VWidth: 0
Flags: W
HStem: 0 100<188 397> 200 100<188 397> 500 100<188 397>
VStem: 79 100<312 521> 179 200<0 104 521 625> 379 100<104 209 312 521>
LayerCount: 2
Back
SplineSet
208.30078125 520.80078125 m 29
 208.30078125 312.5 l 25
 416.69921875 312.5 l 25
 416.69921875 520.80078125 l 25
 208.30078125 520.80078125 l 29
208.30078125 625 m 25
 416.69921875 625 l 25
 416.69921875 520.80078125 l 25
 520.80078125 520.80078125 l 25
 520.80078125 104.19921875 l 25
 416.69921875 104.19921875 l 25
 416.69921875 0 l 25
 208.30078125 0 l 25
 208.30078125 104.19921875 l 25
 416.69921875 104.19921875 l 25
 416.69921875 208.30078125 l 25
 208.30078125 208.30078125 l 25
 208.30078125 312.5 l 25
 104.19921875 312.5 l 25
 104.19921875 520.80078125 l 25
 208.30078125 520.80078125 l 25
 208.30078125 625 l 25
EndSplineSet
Fore
SplineSet
179 500 m 25xf0
 179 300 l 25
 379 300 l 25xf4
 379 500 l 25xe8
 179 500 l 25xf0
179 600 m 25xe8
 379 600 l 25
 379 500 l 25xe8
 479 500 l 25
 479 100 l 25xe4
 379 100 l 25
 379 0 l 25
 179 0 l 25
 179 100 l 25
 379 100 l 25xe8
 379 200 l 25xe4
 179 200 l 25xe8
 179 300 l 25
 79 300 l 25
 79 500 l 25
 179 500 l 25xf0
 179 600 l 25xe8
EndSplineSet
EndChar

StartChar: colon
Encoding: 58 58 26
Width: 600
VWidth: 0
Flags: W
HStem: 100 100<188 291> 300 100<188 291>
VStem: 179 100<104 209 312 418>
LayerCount: 2
Back
SplineSet
208.30078125 208.30078125 m 29
 312.5 208.30078125 l 25
 312.5 104.19921875 l 25
 208.30078125 104.19921875 l 25
 208.30078125 208.30078125 l 29
208.30078125 416.69921875 m 25
 312.5 416.69921875 l 25
 312.5 312.5 l 25
 208.30078125 312.5 l 25
 208.30078125 416.69921875 l 25
EndSplineSet
Fore
SplineSet
179 200 m 25
 279 200 l 25
 279 100 l 25
 179 100 l 25
 179 200 l 25
179 400 m 25
 279 400 l 25
 279 300 l 25
 179 300 l 25
 179 400 l 25
EndSplineSet
EndChar

StartChar: semicolon
Encoding: 59 59 27
Width: 600
VWidth: 0
Flags: W
HStem: -100 100<188 291> 300 100<291 397>
VStem: 179 100<-104 0> 279 100<0 209 312 418>
LayerCount: 2
Back
SplineSet
312.5 208.30078125 m 29
 416.69921875 208.30078125 l 25
 416.69921875 0 l 25
 312.5 0 l 25
 312.5 -104.19921875 l 25
 208.30078125 -104.19921875 l 25
 208.30078125 0 l 25
 312.5 0 l 25
 312.5 208.30078125 l 29
312.5 416.69921875 m 25
 416.69921875 416.69921875 l 25
 416.69921875 312.5 l 25
 312.5 312.5 l 25
 312.5 416.69921875 l 25
EndSplineSet
Fore
SplineSet
279 200 m 25xd0
 379 200 l 25
 379 0 l 25xd0
 279 0 l 25
 279 -100 l 25
 179 -100 l 25
 179 0 l 25
 279 0 l 25xe0
 279 200 l 25xd0
279 400 m 25
 379 400 l 25
 379 300 l 25
 279 300 l 25
 279 400 l 25
EndSplineSet
EndChar

StartChar: less
Encoding: 60 60 28
Width: 600
VWidth: 0
Flags: W
HStem: 0 100<291 397> 100 100<188 291> 300 100<188 291> 400 100<291 397>
VStem: 79 100<209 312> 179 100<104 209 312 418> 279 100<0 104 418 521>
LayerCount: 2
Back
SplineSet
312.5 520.80078125 m 29
 416.69921875 520.80078125 l 25
 416.69921875 416.69921875 l 25
 312.5 416.69921875 l 25
 312.5 312.5 l 25
 208.30078125 312.5 l 25
 208.30078125 208.30078125 l 25
 312.5 208.30078125 l 25
 312.5 104.19921875 l 25
 416.69921875 104.19921875 l 25
 416.69921875 0 l 25
 312.5 0 l 25
 312.5 104.19921875 l 25
 208.30078125 104.19921875 l 25
 208.30078125 208.30078125 l 25
 104.19921875 208.30078125 l 25
 104.19921875 312.5 l 25
 208.30078125 312.5 l 25
 208.30078125 416.69921875 l 25
 312.5 416.69921875 l 25
 312.5 520.80078125 l 29
EndSplineSet
Fore
SplineSet
279 500 m 25x12
 379 500 l 25
 379 400 l 25x12
 279 400 l 25
 279 300 l 25x24
 179 300 l 25
 179 200 l 25x68
 279 200 l 25x64
 279 100 l 25x84
 379 100 l 25
 379 0 l 25
 279 0 l 25x82
 279 100 l 25x84
 179 100 l 25x44
 179 200 l 25
 79 200 l 25
 79 300 l 25
 179 300 l 25x68
 179 400 l 25
 279 400 l 25x64
 279 500 l 25x12
EndSplineSet
EndChar

StartChar: equal
Encoding: 61 61 29
Width: 600
VWidth: 0
Flags: W
HStem: 100 100<83 500> 300 100<83 500>
LayerCount: 2
Back
SplineSet
104.19921875 208.30078125 m 29
 520.80078125 208.30078125 l 25
 520.80078125 104.19921875 l 25
 104.19921875 104.19921875 l 25
 104.19921875 208.30078125 l 29
104.19921875 416.69921875 m 25
 520.80078125 416.69921875 l 25
 520.80078125 312.5 l 25
 104.19921875 312.5 l 25
 104.19921875 416.69921875 l 25
EndSplineSet
Fore
SplineSet
79 200 m 25
 479 200 l 25
 479 100 l 25
 79 100 l 25
 79 200 l 25
79 400 m 25
 479 400 l 25
 479 300 l 25
 79 300 l 25
 79 400 l 25
EndSplineSet
EndChar

StartChar: greater
Encoding: 62 62 30
Width: 600
VWidth: 0
Flags: W
HStem: 0 100<188 291> 100 100<291 397> 300 100<291 397> 400 100<188 291>
VStem: 179 100<0 104 418 521> 279 100<104 209 312 418> 379 100<209 312>
LayerCount: 2
Back
SplineSet
208.30078125 520.80078125 m 29
 312.5 520.80078125 l 25
 312.5 416.69921875 l 25
 416.69921875 416.69921875 l 25
 416.69921875 312.5 l 25
 520.80078125 312.5 l 25
 520.80078125 208.30078125 l 25
 416.69921875 208.30078125 l 25
 416.69921875 104.19921875 l 25
 312.5 104.19921875 l 25
 312.5 0 l 25
 208.30078125 0 l 25
 208.30078125 104.19921875 l 25
 312.5 104.19921875 l 25
 312.5 208.30078125 l 25
 416.69921875 208.30078125 l 25
 416.69921875 312.5 l 25
 312.5 312.5 l 25
 312.5 416.69921875 l 25
 208.30078125 416.69921875 l 25
 208.30078125 520.80078125 l 29
EndSplineSet
Fore
SplineSet
179 500 m 25x18
 279 500 l 25x18
 279 400 l 25x28
 379 400 l 25
 379 300 l 25x24
 479 300 l 25
 479 200 l 25x62
 379 200 l 25
 379 100 l 25x64
 279 100 l 25
 279 0 l 25
 179 0 l 25
 179 100 l 25
 279 100 l 25x88
 279 200 l 25
 379 200 l 25
 379 300 l 25
 279 300 l 25x64
 279 400 l 25x68
 179 400 l 25
 179 500 l 25x18
EndSplineSet
EndChar

StartChar: question
Encoding: 63 63 31
Width: 600
VWidth: 0
Flags: W
HStem: -100 100<188 291> 100 100<188 291> 200 100<291 397> 400 100<83 188> 500 100<188 397>
VStem: 79 100<418 521> 179 100<-104 0 104 209> 279 100<209 312> 379 100<312 521>
LayerCount: 2
Back
SplineSet
208.30078125 0 m 29
 312.5 0 l 25
 312.5 -104.19921875 l 25
 208.30078125 -104.19921875 l 25
 208.30078125 0 l 29
104.19921875 520.80078125 m 25
 208.30078125 520.80078125 l 25
 208.30078125 625 l 25
 416.69921875 625 l 25
 416.69921875 520.80078125 l 25
 520.80078125 520.80078125 l 25
 520.80078125 312.5 l 25
 416.69921875 312.5 l 25
 416.69921875 208.30078125 l 25
 312.5 208.30078125 l 25
 312.5 104.19921875 l 25
 208.30078125 104.19921875 l 25
 208.30078125 208.30078125 l 25
 312.5 208.30078125 l 25
 312.5 312.5 l 25
 416.69921875 312.5 l 25
 416.69921875 520.80078125 l 25
 208.30078125 520.80078125 l 25
 208.30078125 416.69921875 l 25
 104.19921875 416.69921875 l 25
 104.19921875 520.80078125 l 25
EndSplineSet
Fore
SplineSet
179 0 m 25x82
 279 0 l 25
 279 -100 l 25
 179 -100 l 25
 179 0 l 25x82
79 500 m 25x9480
 179 500 l 25x9480
 179 600 l 25
 379 600 l 25
 379 500 l 25
 479 500 l 25
 479 300 l 25xaa80
 379 300 l 25
 379 200 l 25xa9
 279 200 l 25
 279 100 l 25
 179 100 l 25
 179 200 l 25
 279 200 l 25xc2
 279 300 l 25
 379 300 l 25xa1
 379 500 l 25xa880
 179 500 l 25
 179 400 l 25
 79 400 l 25
 79 500 l 25x9480
EndSplineSet
EndChar

StartChar: at
Encoding: 64 64 32
Width: 600
VWidth: 0
Flags: W
HStem: -100 100<189 398> 100 100<292 398> 400 100<292 398> 600 100<189 398>
VStem: 80 200<209 418> 80 100<0 209 418 625> 180 200<-104 0 625 729> 280 200<104 209 418 521> 380 100<209 418 521 625>
LayerCount: 2
Back
SplineSet
208.30078125 625 m 29
 208.30078125 416.69921875 l 25
 312.5 416.69921875 l 25
 312.5 208.30078125 l 25
 416.69921875 208.30078125 l 25
 416.69921875 416.69921875 l 25
 312.5 416.69921875 l 25
 312.5 520.80078125 l 25
 416.69921875 520.80078125 l 25
 416.69921875 625 l 25
 208.30078125 625 l 29
104.19921875 625 m 25
 208.30078125 625 l 25
 208.30078125 729.19921875 l 25
 416.69921875 729.19921875 l 25
 416.69921875 625 l 25
 520.80078125 625 l 25
 520.80078125 104.19921875 l 25
 312.5 104.19921875 l 25
 312.5 208.30078125 l 25
 208.30078125 208.30078125 l 25
 208.30078125 0 l 25
 416.69921875 0 l 25
 416.69921875 -104.19921875 l 25
 208.30078125 -104.19921875 l 25
 208.30078125 0 l 25
 104.19921875 0 l 25
 104.19921875 625 l 25
EndSplineSet
Fore
SplineSet
180 600 m 25xf4
 180 400 l 25xf4
 280 400 l 25
 280 200 l 25
 380 200 l 25
 380 400 l 25
 280 400 l 25xf880
 280 500 l 25xf1
 380 500 l 25xf080
 380 600 l 25xf2
 180 600 l 25xf4
80 600 m 25
 180 600 l 25xf4
 180 700 l 25
 380 700 l 29
 380 600 l 25xf2
 480 600 l 25xf080
 480 100 l 25
 280 100 l 25xf1
 280 200 l 25xf8
 180 200 l 25
 180 0 l 25xf4
 380 0 l 25
 380 -100 l 25
 180 -100 l 25xf2
 180 0 l 25
 80 0 l 25
 80 600 l 25
EndSplineSet
EndChar

StartChar: A
Encoding: 65 65 33
Width: 600
VWidth: 0
Flags: W
HStem: 0 0G<83 188 397 500> 200 100<188 397> 500 100<188 397>
VStem: 79 100<0 209 312 521> 379 100<0 209 312 521>
LayerCount: 2
Back
SplineSet
208.30078125 520.80078125 m 29
 208.30078125 312.5 l 25
 416.69921875 312.5 l 25
 416.69921875 520.80078125 l 25
 208.30078125 520.80078125 l 29
104.19921875 520.80078125 m 25
 208.30078125 520.80078125 l 25
 208.30078125 625 l 25
 416.69921875 625 l 25
 416.69921875 520.80078125 l 25
 520.80078125 520.80078125 l 25
 520.80078125 0 l 25
 416.69921875 0 l 25
 416.69921875 208.30078125 l 25
 208.30078125 208.30078125 l 25
 208.30078125 0 l 25
 104.19921875 0 l 25
 104.19921875 520.80078125 l 25
EndSplineSet
Fore
SplineSet
179 500 m 25
 179 300 l 25
 379 300 l 25
 379 500 l 25
 179 500 l 25
79 500 m 25
 179 500 l 25
 179 600 l 25
 379 600 l 25
 379 500 l 25
 479 500 l 25
 479 0 l 25
 379 0 l 25
 379 200 l 25
 179 200 l 25
 179 0 l 25
 79 0 l 25
 79 500 l 25
EndSplineSet
EndChar

StartChar: B
Encoding: 66 66 34
Width: 600
VWidth: 0
Flags: W
HStem: 0 100<188 397> 500 100<188 397>
VStem: 79 300<0 104 312 418 521 625> 79 100<104 312 418 521> 379 100<104 312 418 521>
LayerCount: 2
Back
SplineSet
208.30078125 312.5 m 29
 208.30078125 104.19921875 l 25
 416.69921875 104.19921875 l 25
 416.69921875 312.5 l 25
 208.30078125 312.5 l 29
208.30078125 520.80078125 m 25
 208.30078125 416.69921875 l 25
 416.69921875 416.69921875 l 25
 416.69921875 520.80078125 l 25
 208.30078125 520.80078125 l 25
104.19921875 625 m 25
 416.69921875 625 l 25
 416.69921875 520.80078125 l 25
 520.80078125 520.80078125 l 25
 520.80078125 416.69921875 l 25
 416.69921875 416.69921875 l 25
 416.69921875 312.5 l 25
 520.80078125 312.5 l 25
 520.80078125 104.19921875 l 25
 416.69921875 104.19921875 l 25
 416.69921875 0 l 25
 104.19921875 0 l 25
 104.19921875 625 l 25
EndSplineSet
Fore
SplineSet
179 300 m 25xd0
 179 100 l 25xd0
 379 100 l 25
 379 300 l 25xe0
 179 300 l 25xd0
179 500 m 25
 179 400 l 25xd0
 379 400 l 25
 379 500 l 25xe0
 179 500 l 25
79 600 m 25xe0
 379 600 l 25
 379 500 l 25xe0
 479 500 l 25
 479 400 l 25xc8
 379 400 l 25
 379 300 l 25xe0
 479 300 l 25
 479 100 l 25xc8
 379 100 l 25
 379 0 l 25
 79 0 l 25
 79 600 l 25xe0
EndSplineSet
EndChar

StartChar: C
Encoding: 67 67 35
Width: 600
VWidth: 0
Flags: W
HStem: 0 100<188 500> 500 100<188 500>
VStem: 79 100<104 521> 179 300<0 104 521 625>
LayerCount: 2
Back
SplineSet
104.19921875 520.80078125 m 29
 208.30078125 520.80078125 l 25
 208.30078125 625 l 25
 520.80078125 625 l 25
 520.80078125 520.80078125 l 25
 208.30078125 520.80078125 l 25
 208.30078125 104.19921875 l 25
 520.80078125 104.19921875 l 25
 520.80078125 0 l 25
 208.30078125 0 l 25
 208.30078125 104.19921875 l 25
 104.19921875 104.19921875 l 25
 104.19921875 520.80078125 l 29
EndSplineSet
Fore
SplineSet
79 500 m 25xe0
 179 500 l 25xe0
 179 600 l 25
 479 600 l 25
 479 500 l 25xd0
 179 500 l 25
 179 100 l 25xe0
 479 100 l 25
 479 0 l 25
 179 0 l 25xd0
 179 100 l 25
 79 100 l 25
 79 500 l 25xe0
EndSplineSet
EndChar

StartChar: D
Encoding: 68 68 36
Width: 600
VWidth: 0
Flags: W
HStem: 0 100<188 397> 500 0G<397 500> 500 100<188 397>
VStem: 79 300<0 104 521 625> 79 100<104 521> 379 100<104 521>
LayerCount: 2
Back
SplineSet
104.19921875 625 m 29
 416.69921875 625 l 25
 416.69921875 520.80078125 l 25
 208.30078125 520.80078125 l 25
 208.30078125 104.19921875 l 25
 416.69921875 104.19921875 l 25
 416.69921875 520.80078125 l 25
 520.80078125 520.80078125 l 25
 520.80078125 104.19921875 l 25
 416.69921875 104.19921875 l 25
 416.69921875 0 l 25
 104.19921875 0 l 25
 104.19921875 625 l 29
EndSplineSet
Fore
SplineSet
79 600 m 25xb0
 379 600 l 25xb0
 379 500 l 25xd0
 179 500 l 25
 179 100 l 25xa8
 379 100 l 25
 379 500 l 25xd0
 479 500 l 25
 479 100 l 25xc4
 379 100 l 25
 379 0 l 25
 79 0 l 25
 79 600 l 25xb0
EndSplineSet
EndChar

StartChar: E
Encoding: 69 69 37
Width: 600
VWidth: 0
Flags: W
HStem: 0 100<188 500> 300 100<188 397> 500 100<188 500>
VStem: 79 100<104 312 418 521>
LayerCount: 2
Back
SplineSet
104.19921875 625 m 29
 520.80078125 625 l 25
 520.80078125 520.80078125 l 25
 208.30078125 520.80078125 l 25
 208.30078125 416.69921875 l 25
 416.69921875 416.69921875 l 25
 416.69921875 312.5 l 25
 208.30078125 312.5 l 25
 208.30078125 104.19921875 l 25
 520.80078125 104.19921875 l 25
 520.80078125 0 l 25
 104.19921875 0 l 25
 104.19921875 625 l 29
EndSplineSet
Fore
SplineSet
79 600 m 25
 479 600 l 25
 479 500 l 25
 179 500 l 25
 179 400 l 25
 379 400 l 25
 379 300 l 25
 179 300 l 25
 179 100 l 25
 479 100 l 25
 479 0 l 25
 79 0 l 25
 79 600 l 25
EndSplineSet
EndChar

StartChar: F
Encoding: 70 70 38
Width: 600
VWidth: 0
Flags: W
HStem: 0 0G<83 188> 300 100<188 397> 500 100<188 500>
VStem: 79 100<0 312 418 521>
LayerCount: 2
Back
SplineSet
104.19921875 625 m 29
 520.80078125 625 l 25
 520.80078125 520.80078125 l 25
 208.30078125 520.80078125 l 25
 208.30078125 416.69921875 l 25
 416.69921875 416.69921875 l 25
 416.69921875 312.5 l 25
 208.30078125 312.5 l 25
 208.30078125 0 l 25
 104.19921875 0 l 25
 104.19921875 625 l 29
EndSplineSet
Fore
SplineSet
79 600 m 25
 479 600 l 25
 479 500 l 25
 179 500 l 25
 179 400 l 25
 379 400 l 25
 379 300 l 25
 179 300 l 25
 179 0 l 25
 79 0 l 25
 79 600 l 25
EndSplineSet
EndChar

StartChar: G
Encoding: 71 71 39
Width: 600
VWidth: 0
Flags: W
HStem: 0 100<188 397> 500 100<188 500>
VStem: 79 100<104 521> 179 300<0 104 521 625> 379 100<104 312>
LayerCount: 2
Back
SplineSet
208.30078125 625 m 29
 520.80078125 625 l 25
 520.80078125 520.80078125 l 25
 208.30078125 520.80078125 l 25
 208.30078125 104.19921875 l 25
 416.69921875 104.19921875 l 25
 416.69921875 312.5 l 25
 520.80078125 312.5 l 25
 520.80078125 0 l 25
 208.30078125 0 l 25
 208.30078125 104.19921875 l 25
 104.19921875 104.19921875 l 25
 104.19921875 520.80078125 l 25
 208.30078125 520.80078125 l 25
 208.30078125 625 l 29
EndSplineSet
Fore
SplineSet
179 600 m 25xd0
 479 600 l 25
 479 500 l 25xd0
 179 500 l 25
 179 100 l 25
 379 100 l 25
 379 300 l 25
 479 300 l 25xe8
 479 0 l 25
 179 0 l 25xd0
 179 100 l 25
 79 100 l 25
 79 500 l 25
 179 500 l 25xe0
 179 600 l 25xd0
EndSplineSet
EndChar

StartChar: H
Encoding: 72 72 40
Width: 600
VWidth: 0
Flags: W
HStem: 0 0G<83 188 397 500> 200 100<188 397> 600 0G<83 188 397 500>
VStem: 79 100<0 209 312 625> 379 100<0 209 312 625>
LayerCount: 2
Back
SplineSet
104.19921875 625 m 29
 208.30078125 625 l 25
 208.30078125 312.5 l 25
 416.69921875 312.5 l 25
 416.69921875 625 l 25
 520.80078125 625 l 25
 520.80078125 0 l 25
 416.69921875 0 l 25
 416.69921875 208.30078125 l 25
 208.30078125 208.30078125 l 25
 208.30078125 0 l 25
 104.19921875 0 l 25
 104.19921875 625 l 29
EndSplineSet
Fore
SplineSet
79 600 m 25
 179 600 l 25
 179 300 l 25
 379 300 l 25
 379 600 l 25
 479 600 l 25
 479 0 l 25
 379 0 l 25
 379 200 l 25
 179 200 l 25
 179 0 l 25
 79 0 l 25
 79 600 l 25
EndSplineSet
EndChar

StartChar: I
Encoding: 73 73 41
Width: 600
VWidth: 0
Flags: W
HStem: -1500 2100G<291 397> -1500 2100G<291 397> 0 2200G<291 397>
VStem: 279 100<0 625>
LayerCount: 2
Back
SplineSet
312.5 625 m 29x88
 416.69921875 625 l 25x88
 416.69921875 0 l 25
 312.5 0 l 25x28
 312.5 625 l 29x88
EndSplineSet
Fore
SplineSet
279 600 m 25x90
 379 600 l 25x90
 379 0 l 25
 279 0 l 25x30
 279 600 l 25x90
EndSplineSet
EndChar

StartChar: J
Encoding: 74 74 42
Width: 600
VWidth: 0
Flags: W
HStem: 0 100<188 397> 600 0G<397 500>
VStem: 379 100<104 625>
LayerCount: 2
Back
SplineSet
416.69921875 625 m 29
 520.80078125 625 l 25
 520.80078125 104.19921875 l 25
 416.69921875 104.19921875 l 25
 416.69921875 0 l 25
 208.30078125 0 l 25
 208.30078125 104.19921875 l 25
 416.69921875 104.19921875 l 25
 416.69921875 625 l 29
EndSplineSet
Fore
SplineSet
379 600 m 25
 479 600 l 25
 479 100 l 25
 379 100 l 25
 379 0 l 25
 179 0 l 25
 179 100 l 25
 379 100 l 25
 379 600 l 25
EndSplineSet
EndChar

StartChar: K
Encoding: 75 75 43
Width: 600
VWidth: 0
Flags: W
HStem: 0 100<398 501> 100 100<292 398> 400 100<292 398> 500 100<398 501>
VStem: 80 200<209 418> 80 100<0 209 418 625> 280 100<104 209 418 521> 380 100<0 104 521 625>
LayerCount: 2
Back
SplineSet
104.19921875 625 m 29
 208.30078125 625 l 25
 208.30078125 416.69921875 l 25
 312.5 416.69921875 l 25
 312.5 520.80078125 l 25
 416.69921875 520.80078125 l 25
 416.69921875 625 l 25
 520.80078125 625 l 25
 520.80078125 520.80078125 l 25
 416.69921875 520.80078125 l 25
 416.69921875 416.69921875 l 25
 312.5 416.69921875 l 25
 312.5 208.30078125 l 25
 416.69921875 208.30078125 l 25
 416.69921875 104.19921875 l 25
 520.80078125 104.19921875 l 25
 520.80078125 0 l 25
 416.69921875 0 l 25
 416.69921875 104.19921875 l 25
 312.5 104.19921875 l 25
 312.5 208.30078125 l 25
 208.30078125 208.30078125 l 25
 208.30078125 0 l 25
 104.19921875 0 l 25
 104.19921875 625 l 29
EndSplineSet
Fore
SplineSet
80 600 m 25x94
 180 600 l 25x94
 180 400 l 25x24
 280 400 l 25x28
 280 500 l 25
 380 500 l 25x22
 380 600 l 25
 480 600 l 25
 480 500 l 25x11
 380 500 l 25
 380 400 l 25x22
 280 400 l 25
 280 200 l 25x68
 380 200 l 25x62
 380 100 l 25x82
 480 100 l 25
 480 0 l 25
 380 0 l 25x81
 380 100 l 25x82
 280 100 l 25x42
 280 200 l 25x48
 180 200 l 25x44
 180 0 l 25
 80 0 l 25
 80 600 l 25x94
EndSplineSet
EndChar

StartChar: L
Encoding: 76 76 44
Width: 600
VWidth: 0
Flags: W
HStem: 0 100<188 500> 600 0G<83 188>
VStem: 79 100<104 625>
LayerCount: 2
Back
SplineSet
104.19921875 625 m 29
 208.30078125 625 l 25
 208.30078125 104.19921875 l 25
 520.80078125 104.19921875 l 25
 520.80078125 0 l 25
 104.19921875 0 l 25
 104.19921875 625 l 29
EndSplineSet
Fore
SplineSet
79 600 m 25
 179 600 l 25
 179 100 l 25
 479 100 l 25
 479 0 l 25
 79 0 l 25
 79 600 l 25
EndSplineSet
EndChar

StartChar: M
Encoding: 77 77 45
Width: 600
VWidth: 0
Flags: W
HStem: 0 0G<83 188 500 604> 500 100<188 291 397 500>
VStem: 79 100<0 521> 279 100<312 521> 479 100<0 521>
CounterMasks: 1 38
LayerCount: 2
Back
SplineSet
104.19921875 625 m 29
 312.5 625 l 25
 312.5 520.80078125 l 25
 416.69921875 520.80078125 l 25
 416.69921875 625 l 25
 625 625 l 25
 625 0 l 25
 520.80078125 0 l 25
 520.80078125 520.80078125 l 25
 416.69921875 520.80078125 l 25
 416.69921875 312.5 l 25
 312.5 312.5 l 25
 312.5 520.80078125 l 25
 208.30078125 520.80078125 l 25
 208.30078125 0 l 25
 104.19921875 0 l 25
 104.19921875 625 l 29
EndSplineSet
Fore
SplineSet
79 600 m 25
 279 600 l 25
 279 500 l 25
 379 500 l 25
 379 600 l 25
 579 600 l 25
 579 0 l 25
 479 0 l 25
 479 500 l 25
 379 500 l 25
 379 300 l 25
 279 300 l 25
 279 500 l 25
 179 500 l 25
 179 0 l 25
 79 0 l 25
 79 600 l 25
EndSplineSet
EndChar

StartChar: N
Encoding: 78 78 46
Width: 600
VWidth: 0
Flags: W
HStem: 0 0G<83 188 397 500> 200 100<291 397> 300 100<188 291> 600 0G<83 188 397 500>
VStem: 79 100<0 312 418 625> 379 100<0 209 312 625>
LayerCount: 2
Back
SplineSet
104.19921875 625 m 29
 208.30078125 625 l 25
 208.30078125 416.69921875 l 25
 312.5 416.69921875 l 25
 312.5 312.5 l 25
 416.69921875 312.5 l 25
 416.69921875 625 l 25
 520.80078125 625 l 25
 520.80078125 0 l 25
 416.69921875 0 l 25
 416.69921875 208.30078125 l 25
 312.5 208.30078125 l 25
 312.5 312.5 l 25
 208.30078125 312.5 l 25
 208.30078125 0 l 25
 104.19921875 0 l 25
 104.19921875 625 l 29
EndSplineSet
Fore
SplineSet
79 600 m 25xbc
 179 600 l 25
 179 400 l 25
 279 400 l 25xbc
 279 300 l 25
 379 300 l 25
 379 600 l 25
 479 600 l 25
 479 0 l 25
 379 0 l 25
 379 200 l 25
 279 200 l 25
 279 300 l 25xdc
 179 300 l 25
 179 0 l 25
 79 0 l 25
 79 600 l 25xbc
EndSplineSet
EndChar

StartChar: O
Encoding: 79 79 47
Width: 600
VWidth: 0
Flags: W
HStem: -1600 2100G<397 500> -1600 2100G<397 500> 0 100<188 397> 500 100<188 397>
VStem: 79 100<104 521> 179 200<0 104 521 625>
LayerCount: 2
Back
SplineSet
208.30078125 625 m 29x0a
 416.69921875 625 l 25x0a
 416.69921875 520.80078125 l 25x82
 208.30078125 520.80078125 l 25
 208.30078125 104.19921875 l 25x0c
 416.69921875 104.19921875 l 25
 416.69921875 520.80078125 l 25
 520.80078125 520.80078125 l 25x82
 520.80078125 104.19921875 l 25
 416.69921875 104.19921875 l 25
 416.69921875 0 l 25
 208.30078125 0 l 25x22
 208.30078125 104.19921875 l 25
 104.19921875 104.19921875 l 25
 104.19921875 520.80078125 l 25
 208.30078125 520.80078125 l 25x0c
 208.30078125 625 l 29x0a
EndSplineSet
Fore
SplineSet
179 600 m 25x34
 379 600 l 25x34
 379 500 l 25x84
 179 500 l 25
 179 100 l 25x38
 379 100 l 25x34
 379 500 l 25
 479 500 l 25x84
 479 100 l 25
 379 100 l 25
 379 0 l 25
 179 0 l 25x24
 179 100 l 25
 79 100 l 25
 79 500 l 25
 179 500 l 25x38
 179 600 l 25x34
EndSplineSet
EndChar

StartChar: P
Encoding: 80 80 48
Width: 600
VWidth: 0
Flags: W
HStem: 0 0G<83 188> 200 100<188 397> 500 0G<397 500> 500 100<188 397>
VStem: 79 300<209 312 521 625> 79 100<0 209 312 521> 379 100<312 521>
LayerCount: 2
Back
SplineSet
104.19921875 625 m 29x06
 416.69921875 625 l 29x06
 416.69921875 520.80078125 l 29x82
 208.30078125 520.80078125 l 29
 208.30078125 312.5 l 29x0d
 416.69921875 312.5 l 29x0e
 416.69921875 520.80078125 l 29
 520.80078125 520.80078125 l 29x82
 520.80078125 312.5 l 29
 416.69921875 312.5 l 29
 416.69921875 208.30078125 l 29x0a
 208.30078125 208.30078125 l 29x09
 208.30078125 0 l 29
 104.19921875 0 l 29x21
 104.19921875 625 l 29x06
EndSplineSet
Fore
SplineSet
79 600 m 25xd8
 379 600 l 25xd8
 379 500 l 25xe8
 179 500 l 25
 179 300 l 25xd4
 379 300 l 25
 379 500 l 25xe8
 479 500 l 25
 479 300 l 25xe2
 379 300 l 25
 379 200 l 25xe8
 179 200 l 25
 179 0 l 25
 79 0 l 25xe4
 79 600 l 25xd8
EndSplineSet
EndChar

StartChar: Q
Encoding: 81 81 49
Width: 600
VWidth: 0
Flags: W
HStem: -100 100<397 500> 0 100<188 291> 500 0G<397 500> 500 100<188 397>
VStem: 79 100<104 521> 179 200<0 104 521 625> 379 100<104 521>
LayerCount: 2
Back
SplineSet
104.19921875 520.80078125 m 29
 208.30078125 520.80078125 l 25
 208.30078125 625 l 25
 416.69921875 625 l 25
 416.69921875 520.80078125 l 25
 208.30078125 520.80078125 l 25
 208.30078125 104.19921875 l 25
 416.69921875 104.19921875 l 25
 416.69921875 520.80078125 l 25
 520.80078125 520.80078125 l 25
 520.80078125 104.19921875 l 25
 416.69921875 104.19921875 l 25
 416.69921875 0 l 25
 520.80078125 0 l 25
 520.80078125 -104.19921875 l 25
 312.5 -104.19921875 l 25
 312.5 0 l 25
 208.30078125 0 l 25
 208.30078125 104.19921875 l 25
 104.19921875 104.19921875 l 25
 104.19921875 520.80078125 l 29
EndSplineSet
Fore
SplineSet
79 500 m 25x58
 179 500 l 25x58
 179 600 l 25
 379 600 l 25x54
 379 500 l 25x24
 179 500 l 25
 179 100 l 25x58
 379 100 l 25
 379 500 l 25x64
 479 500 l 25
 479 100 l 25x62
 379 100 l 25x64
 379 0 l 25x84
 479 0 l 25
 479 -100 l 25
 279 -100 l 25x82
 279 0 l 25
 179 0 l 25x44
 179 100 l 25
 79 100 l 25
 79 500 l 25x58
EndSplineSet
EndChar

StartChar: R
Encoding: 82 82 50
Width: 600
VWidth: 0
Flags: W
HStem: 0 100<397 500> 200 100<188 291> 500 0G<397 500> 500 100<188 397>
VStem: 79 100<0 209 312 521> 279 100<104 209> 379 100<0 104 312 521>
LayerCount: 2
Back
SplineSet
104.19921875 625 m 29
 416.69921875 625 l 25
 416.69921875 520.80078125 l 25
 208.30078125 520.80078125 l 25
 208.30078125 312.5 l 25
 416.69921875 312.5 l 25
 416.69921875 520.80078125 l 25
 520.80078125 520.80078125 l 25
 520.80078125 312.5 l 25
 416.69921875 312.5 l 25
 416.69921875 104.19921875 l 25
 520.80078125 104.19921875 l 25
 520.80078125 0 l 25
 416.69921875 0 l 25
 416.69921875 104.19921875 l 25
 312.5 104.19921875 l 25
 312.5 208.30078125 l 25
 208.30078125 208.30078125 l 25
 208.30078125 0 l 25
 104.19921875 0 l 25
 104.19921875 625 l 29
EndSplineSet
Fore
SplineSet
79 600 m 25xdc
 379 600 l 25xda
 379 500 l 25xea
 179 500 l 25xda
 179 300 l 25
 379 300 l 25
 379 500 l 25
 479 500 l 25
 479 300 l 25
 379 300 l 25xea
 379 100 l 25xec
 479 100 l 25
 479 0 l 25
 379 0 l 25xea
 379 100 l 25
 279 100 l 25
 279 200 l 25
 179 200 l 25
 179 0 l 25
 79 0 l 25
 79 600 l 25xdc
EndSplineSet
EndChar

StartChar: S
Encoding: 83 83 51
Width: 600
VWidth: 0
Flags: W
HStem: 0 100<83 397> 300 100<188 397> 500 100<188 500>
VStem: 79 100<418 521> 379 100<104 312>
LayerCount: 2
Back
SplineSet
208.30078125 625 m 29
 520.80078125 625 l 25
 520.80078125 520.80078125 l 25
 208.30078125 520.80078125 l 25
 208.30078125 416.69921875 l 25
 416.69921875 416.69921875 l 25
 416.69921875 312.5 l 25
 520.80078125 312.5 l 25
 520.80078125 104.19921875 l 25
 416.69921875 104.19921875 l 25
 416.69921875 0 l 25
 104.19921875 0 l 25
 104.19921875 104.19921875 l 25
 416.69921875 104.19921875 l 25
 416.69921875 312.5 l 25
 208.30078125 312.5 l 25
 208.30078125 416.69921875 l 25
 104.19921875 416.69921875 l 25
 104.19921875 520.80078125 l 25
 208.30078125 520.80078125 l 25
 208.30078125 625 l 29
EndSplineSet
Fore
SplineSet
179 600 m 25
 479 600 l 25
 479 500 l 25
 179 500 l 25
 179 400 l 25
 379 400 l 25
 379 300 l 25
 479 300 l 25
 479 100 l 25
 379 100 l 25
 379 0 l 25
 79 0 l 25
 79 100 l 25
 379 100 l 25
 379 300 l 25
 179 300 l 25
 179 400 l 25
 79 400 l 25
 79 500 l 25
 179 500 l 25
 179 600 l 25
EndSplineSet
EndChar

StartChar: T
Encoding: 84 84 52
Width: 600
VWidth: 0
Flags: W
HStem: 0 0G<291 397> 500 100<83 291 397 604>
VStem: 279 100<0 521>
LayerCount: 2
Back
SplineSet
104.19921875 625 m 29
 625 625 l 25
 625 520.80078125 l 25
 416.69921875 520.80078125 l 25
 416.69921875 0 l 25
 312.5 0 l 25
 312.5 520.80078125 l 25
 104.19921875 520.80078125 l 25
 104.19921875 625 l 29
EndSplineSet
Fore
SplineSet
79 600 m 25
 579 600 l 25
 579 500 l 25
 379 500 l 25
 379 0 l 25
 279 0 l 25
 279 500 l 25
 79 500 l 25
 79 600 l 25
EndSplineSet
EndChar

StartChar: U
Encoding: 85 85 53
Width: 600
VWidth: 0
Flags: W
HStem: 0 100<188 397> 600 0G<83 188 397 500>
VStem: 79 100<104 625> 379 100<104 625>
LayerCount: 2
Back
SplineSet
104.19921875 625 m 29
 208.30078125 625 l 25
 208.30078125 104.19921875 l 25
 416.69921875 104.19921875 l 25
 416.69921875 625 l 25
 520.80078125 625 l 25
 520.80078125 0 l 25
 208.30078125 0 l 25
 208.30078125 104.19921875 l 25
 104.19921875 104.19921875 l 25
 104.19921875 625 l 29
EndSplineSet
Fore
SplineSet
79 600 m 25
 179 600 l 25
 179 100 l 25
 379 100 l 25
 379 600 l 25
 479 600 l 25
 479 0 l 25
 179 0 l 25
 179 100 l 25
 79 100 l 25
 79 600 l 25
EndSplineSet
EndChar

StartChar: V
Encoding: 86 86 54
Width: 600
VWidth: 0
Flags: W
HStem: 0 200<188 397> 600 0G<83 188 397 500>
VStem: 79 100<209 625> 379 100<209 625>
LayerCount: 2
Back
SplineSet
104.19921875 625 m 29
 208.30078125 625 l 25
 208.30078125 208.30078125 l 25
 416.69921875 208.30078125 l 25
 416.69921875 625 l 25
 520.80078125 625 l 25
 520.80078125 208.30078125 l 25
 416.69921875 208.30078125 l 25
 416.69921875 0 l 25
 208.30078125 0 l 25
 208.30078125 208.30078125 l 25
 104.19921875 208.30078125 l 25
 104.19921875 625 l 29
EndSplineSet
Fore
SplineSet
79 600 m 25
 179 600 l 25
 179 200 l 25
 379 200 l 25
 379 600 l 25
 479 600 l 25
 479 200 l 25
 379 200 l 25
 379 0 l 25
 179 0 l 25
 179 200 l 25
 79 200 l 25
 79 600 l 25
EndSplineSet
EndChar

StartChar: W
Encoding: 87 87 55
Width: 600
VWidth: 0
Flags: W
HStem: 0 100<188 291 397 500> 600 0G<83 188 500 604>
VStem: 79 100<104 625> 279 100<104 312> 479 100<104 625>
CounterMasks: 1 38
LayerCount: 2
Back
SplineSet
104.19921875 625 m 29
 208.30078125 625 l 25
 208.30078125 104.19921875 l 25
 312.5 104.19921875 l 25
 312.5 312.5 l 25
 416.69921875 312.5 l 25
 416.69921875 104.19921875 l 25
 520.80078125 104.19921875 l 25
 520.80078125 625 l 25
 625 625 l 25
 625 104.19921875 l 25
 520.80078125 104.19921875 l 25
 520.80078125 0 l 25
 208.30078125 0 l 25
 208.30078125 104.19921875 l 25
 104.19921875 104.19921875 l 25
 104.19921875 625 l 29
EndSplineSet
Fore
SplineSet
79 600 m 25
 179 600 l 25
 179 100 l 25
 279 100 l 25
 279 300 l 25
 379 300 l 25
 379 100 l 25
 479 100 l 25
 479 600 l 25
 579 600 l 25
 579 100 l 25
 479 100 l 25
 479 0 l 25
 179 0 l 25
 179 100 l 25
 79 100 l 25
 79 600 l 25
EndSplineSet
EndChar

StartChar: X
Encoding: 88 88 56
Width: 600
VWidth: 0
Flags: W
HStem: 0 200<83 188 397 500> 400 200<83 188 397 500>
VStem: 79 100<0 209 418 625> 379 100<0 209 418 625>
LayerCount: 2
Back
SplineSet
104.19921875 625 m 29
 208.30078125 625 l 25
 208.30078125 416.69921875 l 25
 416.69921875 416.69921875 l 25
 416.69921875 625 l 25
 520.80078125 625 l 25
 520.80078125 416.69921875 l 25
 416.69921875 416.69921875 l 25
 416.69921875 208.30078125 l 25
 520.80078125 208.30078125 l 25
 520.80078125 0 l 25
 416.69921875 0 l 25
 416.69921875 208.30078125 l 25
 208.30078125 208.30078125 l 25
 208.30078125 0 l 25
 104.19921875 0 l 25
 104.19921875 208.30078125 l 25
 208.30078125 208.30078125 l 25
 208.30078125 416.69921875 l 25
 104.19921875 416.69921875 l 25
 104.19921875 625 l 29
EndSplineSet
Fore
SplineSet
79 600 m 25
 179 600 l 25
 179 400 l 25
 379 400 l 25
 379 600 l 25
 479 600 l 25
 479 400 l 25
 379 400 l 25
 379 200 l 25
 479 200 l 25
 479 0 l 25
 379 0 l 25
 379 200 l 25
 179 200 l 25
 179 0 l 25
 79 0 l 25
 79 200 l 25
 179 200 l 25
 179 400 l 25
 79 400 l 25
 79 600 l 25
EndSplineSet
EndChar

StartChar: Y
Encoding: 89 89 57
Width: 600
VWidth: 0
Flags: W
HStem: 0 0G<291 397> 300 100<188 291 397 500> 400 200<83 188 500 604>
VStem: 79 100<418 625> 179 100<312 418> 379 100<312 418> 479 100<418 625>
LayerCount: 2
Back
SplineSet
104.19921875 625 m 29
 208.30078125 625 l 25
 208.30078125 416.69921875 l 25
 312.5 416.69921875 l 25
 312.5 312.5 l 25
 416.69921875 312.5 l 25
 416.69921875 416.69921875 l 25
 520.80078125 416.69921875 l 25
 520.80078125 625 l 25
 625 625 l 25
 625 520.80078125 l 25
 625 416.69921875 l 25
 520.80078125 416.69921875 l 25
 520.80078125 312.5 l 25
 416.69921875 312.5 l 25
 416.69921875 0 l 25
 312.5 0 l 25
 312.5 312.5 l 25
 208.30078125 312.5 l 25
 208.30078125 416.69921875 l 25
 104.19921875 416.69921875 l 25
 104.19921875 625 l 29
EndSplineSet
Fore
SplineSet
79 600 m 25xb0
 179 600 l 25xb0
 179 400 l 25xd0
 279 400 l 25
 279 300 l 25
 379 300 l 25
 379 400 l 25
 479 400 l 25xcc
 479 600 l 25
 579 600 l 25
 579 500 l 25
 579 400 l 25xa2
 479 400 l 25
 479 300 l 25
 379 300 l 25
 379 0 l 25
 279 0 l 25
 279 300 l 25
 179 300 l 25xcc
 179 400 l 25xd0
 79 400 l 25
 79 600 l 25xb0
EndSplineSet
EndChar

StartChar: Z
Encoding: 90 90 58
Width: 600
VWidth: 0
Flags: W
HStem: 0 100<188 500> 200 100<188 291> 300 100<291 397> 500 100<83 397>
VStem: 79 100<104 209> 179 100<209 312> 279 100<312 418> 379 100<418 521>
LayerCount: 2
Back
SplineSet
104.19921875 625 m 29
 520.80078125 625 l 25
 520.80078125 416.69921875 l 25
 416.69921875 416.69921875 l 25
 416.69921875 312.5 l 25
 312.5 312.5 l 25
 312.5 208.30078125 l 25
 208.30078125 208.30078125 l 25
 208.30078125 104.19921875 l 25
 520.80078125 104.19921875 l 25
 520.80078125 0 l 25
 104.19921875 0 l 25
 104.19921875 208.30078125 l 25
 208.30078125 208.30078125 l 25
 208.30078125 312.5 l 25
 312.5 312.5 l 25
 312.5 416.69921875 l 25
 416.69921875 416.69921875 l 25
 416.69921875 520.80078125 l 25
 104.19921875 520.80078125 l 25
 104.19921875 625 l 29
EndSplineSet
Fore
SplineSet
79 600 m 25xb9
 479 600 l 25
 479 400 l 25xb9
 379 400 l 25
 379 300 l 25xb2
 279 300 l 25
 279 200 l 25xd4
 179 200 l 25
 179 100 l 25
 479 100 l 25
 479 0 l 25
 79 0 l 25
 79 200 l 25
 179 200 l 25xd9
 179 300 l 25
 279 300 l 25xd4
 279 400 l 25
 379 400 l 25xb2
 379 500 l 25
 79 500 l 25
 79 600 l 25xb9
EndSplineSet
EndChar

StartChar: bracketleft
Encoding: 91 91 59
Width: 600
VWidth: 0
Flags: W
HStem: -100 100<291 397> 600 100<291 397>
VStem: 179 200<-104 0 625 729> 179 100<0 625>
LayerCount: 2
Back
SplineSet
208.30078125 729.19921875 m 29
 416.69921875 729.19921875 l 25
 416.69921875 625 l 25
 312.5 625 l 25
 312.5 0 l 25
 416.69921875 0 l 25
 416.69921875 -104.19921875 l 25
 208.30078125 -104.19921875 l 25
 208.30078125 729.19921875 l 29
EndSplineSet
Fore
SplineSet
179 700 m 25xe0
 379 700 l 25
 379 600 l 25xe0
 279 600 l 25
 279 0 l 25xd0
 379 0 l 25
 379 -100 l 25
 179 -100 l 25
 179 700 l 25xe0
EndSplineSet
EndChar

StartChar: backslash
Encoding: 92 92 60
Width: 600
VWidth: 0
Flags: W
HStem: -100 0G<397 500> 700 0G<83 188>
VStem: 79 100<521 729> 179 100<312 521> 279 100<104 312> 379 100<-104 104>
LayerCount: 2
Back
SplineSet
104.19921875 729.19921875 m 29
 208.30078125 729.19921875 l 25
 208.30078125 520.80078125 l 25
 312.5 520.80078125 l 25
 312.5 312.5 l 25
 416.69921875 312.5 l 25
 416.69921875 104.19921875 l 25
 520.80078125 104.19921875 l 25
 520.80078125 -104.19921875 l 25
 416.69921875 -104.19921875 l 25
 416.69921875 104.19921875 l 25
 312.5 104.19921875 l 25
 312.5 312.5 l 25
 208.30078125 312.5 l 25
 208.30078125 520.80078125 l 25
 104.19921875 520.80078125 l 25
 104.19921875 729.19921875 l 29
EndSplineSet
Fore
SplineSet
79 700 m 25xe0
 179 700 l 25
 179 500 l 25xe0
 279 500 l 25
 279 300 l 25xd0
 379 300 l 25
 379 100 l 25xc8
 479 100 l 25
 479 -100 l 25
 379 -100 l 25xc4
 379 100 l 25
 279 100 l 25xc8
 279 300 l 25
 179 300 l 25xd0
 179 500 l 25
 79 500 l 25
 79 700 l 25xe0
EndSplineSet
EndChar

StartChar: bracketright
Encoding: 93 93 61
Width: 600
VWidth: 0
Flags: W
HStem: -100 100<188 291> 600 100<188 291>
VStem: 179 200<-104 0 625 729> 279 100<0 625>
LayerCount: 2
Back
SplineSet
208.30078125 729.19921875 m 29
 416.69921875 729.19921875 l 25
 416.69921875 -104.19921875 l 25
 208.30078125 -104.19921875 l 25
 208.30078125 0 l 25
 312.5 0 l 25
 312.5 625 l 25
 208.30078125 625 l 25
 208.30078125 729.19921875 l 29
EndSplineSet
Fore
SplineSet
179 700 m 25xe0
 379 700 l 25
 379 -100 l 25
 179 -100 l 25
 179 0 l 25xe0
 279 0 l 25
 279 600 l 25xd0
 179 600 l 25
 179 700 l 25xe0
EndSplineSet
EndChar

StartChar: asciicircum
Encoding: 94 94 62
Width: 600
VWidth: 0
Flags: W
HStem: 400 100<83 188 500 604> 500 100<188 291 397 500> 600 100<291 397>
VStem: 79 100<418 521> 179 100<521 625> 379 100<521 625> 479 100<418 521>
LayerCount: 2
Back
SplineSet
104.19921875 520.80078125 m 29
 208.30078125 520.80078125 l 25
 208.30078125 625 l 25
 312.5 625 l 25
 312.5 729.19921875 l 25
 416.69921875 729.19921875 l 25
 416.69921875 625 l 25
 520.80078125 625 l 25
 520.80078125 520.80078125 l 25
 625 520.80078125 l 25
 625 416.69921875 l 25
 520.80078125 416.69921875 l 25
 520.80078125 520.80078125 l 25
 416.69921875 520.80078125 l 25
 416.69921875 625 l 25
 312.5 625 l 25
 312.5 520.80078125 l 25
 208.30078125 520.80078125 l 25
 208.30078125 416.69921875 l 25
 104.19921875 416.69921875 l 25
 104.19921875 520.80078125 l 29
EndSplineSet
Fore
SplineSet
79 500 m 25x90
 179 500 l 25x90
 179 600 l 25
 279 600 l 25x48
 279 700 l 25
 379 700 l 25x2c
 379 600 l 25
 479 600 l 25x4c
 479 500 l 25x8c
 579 500 l 25
 579 400 l 25
 479 400 l 25x82
 479 500 l 25x84
 379 500 l 25
 379 600 l 25
 279 600 l 25
 279 500 l 25x4c
 179 500 l 25
 179 400 l 25
 79 400 l 25
 79 500 l 25x90
EndSplineSet
EndChar

StartChar: underscore
Encoding: 95 95 63
Width: 600
VWidth: 0
Flags: W
HStem: -100 100<83 604>
LayerCount: 2
Back
SplineSet
104.19921875 0 m 29
 625 0 l 25
 625 -104.19921875 l 25
 104.19921875 -104.19921875 l 25
 104.19921875 0 l 29
EndSplineSet
Fore
SplineSet
79 0 m 25
 579 0 l 25
 579 -100 l 25
 79 -100 l 25
 79 0 l 25
EndSplineSet
EndChar

StartChar: grave
Encoding: 96 96 64
Width: 600
VWidth: 0
Flags: W
LayerCount: 2
Back
SplineSet
208.30078125 729.19921875 m 29
 208.30078125 520.80078125 l 25
 312.5 520.80078125 l 25
 312.5 416.69921875 l 25
 416.69921875 416.69921875 l 25
 416.69921875 520.80078125 l 25
 312.5 520.80078125 l 25
 312.5 729.19921875 l 25
 208.30078125 729.19921875 l 29
EndSplineSet
Fore
SplineSet
179 700 m 25
 179 500 l 25
 279 500 l 25
 279 400 l 25
 379 400 l 25
 379 500 l 25
 279 500 l 25
 279 700 l 25
 179 700 l 25
EndSplineSet
EndChar

StartChar: a
Encoding: 97 97 65
Width: 600
VWidth: 0
Flags: W
LayerCount: 2
Back
SplineSet
520.80078125 104.19921875 m 29
 520.80078125 0 l 25
 625 0 l 25
 625 104.19921875 l 25
 520.80078125 104.19921875 l 29
208.30078125 104.19921875 m 25
 208.30078125 0 l 25
 416.69921875 0 l 25
 416.69921875 104.19921875 l 25
 208.30078125 104.19921875 l 25
208.30078125 520.80078125 m 25
 208.30078125 416.69921875 l 25
 416.69921875 416.69921875 l 25
 416.69921875 104.19921875 l 25
 520.80078125 104.19921875 l 25
 520.80078125 520.80078125 l 25
 208.30078125 520.80078125 l 25
104.19921875 416.69921875 m 25
 104.19921875 104.19921875 l 25
 208.30078125 104.19921875 l 25
 208.30078125 416.69921875 l 25
 104.19921875 416.69921875 l 25
EndSplineSet
Fore
SplineSet
479 100 m 25
 479 0 l 25
 579 0 l 25
 579 100 l 25
 479 100 l 25
179 100 m 25
 179 0 l 25
 379 0 l 25
 379 100 l 25
 179 100 l 25
179 500 m 25
 179 400 l 25
 379 400 l 25
 379 100 l 25
 479 100 l 25
 479 500 l 25
 179 500 l 25
79 400 m 25
 79 100 l 25
 179 100 l 25
 179 400 l 25
 79 400 l 25
EndSplineSet
EndChar

StartChar: b
Encoding: 98 98 66
Width: 600
VWidth: 0
Flags: W
HStem: 0 100<188 397> 400 100<188 397> 700 0G<83 188>
VStem: 79 300<0 104 418 521> 79 100<104 418 521 729> 379 100<104 418>
LayerCount: 2
Back
SplineSet
416.69921875 104.19921875 m 29
 416.69921875 416.69921875 l 25
 520.80078125 416.69921875 l 25
 520.80078125 104.19921875 l 25
 416.69921875 104.19921875 l 29
104.19921875 0 m 25
 104.19921875 729.19921875 l 25
 208.30078125 729.19921875 l 25
 208.30078125 520.80078125 l 25
 416.69921875 520.80078125 l 25
 416.69921875 416.69921875 l 25
 208.30078125 416.69921875 l 25
 208.30078125 104.19921875 l 25
 416.69921875 104.19921875 l 25
 416.69921875 0 l 25
 104.19921875 0 l 25
EndSplineSet
Fore
SplineSet
379 100 m 25xf0
 379 400 l 25xf0
 479 400 l 25
 479 100 l 25xe4
 379 100 l 25xf0
79 0 m 25
 79 700 l 25
 179 700 l 25
 179 500 l 25xe8
 379 500 l 25
 379 400 l 25xf0
 179 400 l 25
 179 100 l 25xe8
 379 100 l 25
 379 0 l 25
 79 0 l 25
EndSplineSet
EndChar

StartChar: c
Encoding: 99 99 67
Width: 600
VWidth: 0
Flags: W
HStem: 0 100<188 500> 400 100<188 500>
VStem: 79 100<104 418> 179 300<0 104 418 521>
LayerCount: 2
Back
SplineSet
208.30078125 520.80078125 m 29
 520.80078125 520.80078125 l 25
 520.80078125 416.69921875 l 25
 208.30078125 416.69921875 l 25
 208.30078125 104.19921875 l 25
 520.80078125 104.19921875 l 25
 520.80078125 0 l 25
 208.30078125 0 l 25
 208.30078125 104.19921875 l 25
 104.19921875 104.19921875 l 25
 104.19921875 416.69921875 l 25
 208.30078125 416.69921875 l 25
 208.30078125 520.80078125 l 29
EndSplineSet
Fore
SplineSet
179 500 m 25xd0
 479 500 l 25
 479 400 l 25xd0
 179 400 l 25
 179 100 l 25xe0
 479 100 l 25
 479 0 l 25
 179 0 l 25xd0
 179 100 l 25
 79 100 l 25
 79 400 l 25
 179 400 l 25xe0
 179 500 l 25xd0
EndSplineSet
EndChar

StartChar: d
Encoding: 100 100 68
Width: 600
VWidth: 0
Flags: W
HStem: 0 100<188 397> 400 100<188 397> 700 0G<397 500>
VStem: 79 100<104 418> 179 300<0 104 418 521> 379 100<104 418 521 729>
LayerCount: 2
Back
SplineSet
208.30078125 520.80078125 m 29
 416.69921875 520.80078125 l 25
 416.69921875 729.19921875 l 25
 520.80078125 729.19921875 l 25
 520.80078125 0 l 25
 208.30078125 0 l 25
 208.30078125 104.19921875 l 25
 416.69921875 104.19921875 l 25
 416.69921875 416.69921875 l 25
 208.30078125 416.69921875 l 25
 208.30078125 104.19921875 l 25
 104.19921875 104.19921875 l 25
 104.19921875 416.69921875 l 25
 208.30078125 416.69921875 l 25
 208.30078125 520.80078125 l 29
EndSplineSet
Fore
SplineSet
179 500 m 25xe8
 379 500 l 25
 379 700 l 25
 479 700 l 25xe4
 479 0 l 25
 179 0 l 25xe8
 179 100 l 25
 379 100 l 25
 379 400 l 25
 179 400 l 25
 179 100 l 25
 79 100 l 25
 79 400 l 25
 179 400 l 25xf4
 179 500 l 25xe8
EndSplineSet
EndChar

StartChar: e
Encoding: 101 101 69
Width: 600
VWidth: 0
Flags: W
HStem: 0 100<188 500> 200 100<188 397> 400 100<188 397>
VStem: 79 100<104 209 312 418> 379 100<312 418>
CounterMasks: 1 e0
LayerCount: 2
Back
SplineSet
208.30078125 520.80078125 m 29
 416.69921875 520.80078125 l 25
 416.69921875 416.69921875 l 25
 208.30078125 416.69921875 l 25
 208.30078125 312.5 l 25
 416.69921875 312.5 l 25
 416.69921875 416.69921875 l 25
 520.80078125 416.69921875 l 25
 520.80078125 208.30078125 l 25
 208.30078125 208.30078125 l 25
 208.30078125 104.19921875 l 25
 520.80078125 104.19921875 l 25
 520.80078125 0 l 25
 208.30078125 0 l 25
 208.30078125 104.19921875 l 25
 104.19921875 104.19921875 l 25
 104.19921875 416.69921875 l 25
 208.30078125 416.69921875 l 25
 208.30078125 520.80078125 l 29
EndSplineSet
Fore
SplineSet
179 500 m 25
 379 500 l 25
 379 400 l 25
 179 400 l 25
 179 300 l 25
 379 300 l 25
 379 400 l 25
 479 400 l 25
 479 200 l 25
 179 200 l 25
 179 100 l 25
 479 100 l 25
 479 0 l 25
 179 0 l 25
 179 100 l 25
 79 100 l 25
 79 400 l 25
 179 400 l 25
 179 500 l 25
EndSplineSet
EndChar

StartChar: f
Encoding: 102 102 70
Width: 600
VWidth: 0
Flags: W
HStem: 0 0G<188 291> 400 100<291 500> 600 100<291 500>
VStem: 179 100<0 418 521 625>
LayerCount: 2
Back
SplineSet
208.30078125 625 m 29
 312.5 625 l 25
 312.5 729.19921875 l 25
 520.80078125 729.19921875 l 25
 520.80078125 625 l 25
 312.5 625 l 25
 312.5 520.80078125 l 25
 520.80078125 520.80078125 l 25
 520.80078125 416.69921875 l 25
 312.5 416.69921875 l 25
 312.5 0 l 25
 208.30078125 0 l 25
 208.30078125 625 l 29
EndSplineSet
Fore
SplineSet
179 600 m 25
 279 600 l 25
 279 700 l 25
 479 700 l 25
 479 600 l 25
 279 600 l 25
 279 500 l 25
 479 500 l 25
 479 400 l 25
 279 400 l 25
 279 0 l 25
 179 0 l 25
 179 600 l 25
EndSplineSet
EndChar

StartChar: g
Encoding: 103 103 71
Width: 600
VWidth: 0
Flags: W
HStem: -100 100<188 397> 100 100<188 397> 400 100<188 397>
VStem: 79 100<209 418> 179 300<104 209 418 521> 379 100<0 104 209 418>
LayerCount: 2
Back
SplineSet
104.19921875 416.69921875 m 29
 208.30078125 416.69921875 l 25
 208.30078125 520.80078125 l 25
 520.80078125 520.80078125 l 25
 520.80078125 0 l 25
 416.69921875 0 l 25
 416.69921875 -104.19921875 l 25
 208.30078125 -104.19921875 l 25
 208.30078125 0 l 25
 416.69921875 0 l 25
 416.69921875 104.19921875 l 25
 208.30078125 104.19921875 l 25
 208.30078125 208.30078125 l 25
 416.69921875 208.30078125 l 25
 416.69921875 416.69921875 l 25
 208.30078125 416.69921875 l 25
 208.30078125 208.30078125 l 25
 104.19921875 208.30078125 l 25
 104.19921875 416.69921875 l 29
EndSplineSet
Fore
SplineSet
79 400 m 25
 179 400 l 25
 179 100 l 25
 379 100 l 25
 379 400 l 25
 179 400 l 25
 179 500 l 25
 479 500 l 25
 479 -100 l 25
 379 -100 l 25
 379 -200 l 25
 179 -200 l 25
 179 -100 l 25
 379 -100 l 25
 379 0 l 25
 179 0 l 25
 179 100 l 25
 79 100 l 25
 79 400 l 25
EndSplineSet
EndChar

StartChar: h
Encoding: 104 104 72
Width: 600
VWidth: 0
Flags: W
HStem: 0 0G<83 188 397 500> 400 100<188 397> 700 0G<83 188>
VStem: 79 100<0 418 521 729> 379 100<0 418>
LayerCount: 2
Back
SplineSet
104.19921875 729.19921875 m 29
 208.30078125 729.19921875 l 25
 208.30078125 520.80078125 l 25
 416.69921875 520.80078125 l 25
 416.69921875 416.69921875 l 25
 520.80078125 416.69921875 l 25
 520.80078125 0 l 25
 416.69921875 0 l 25
 416.69921875 416.69921875 l 25
 208.30078125 416.69921875 l 25
 208.30078125 0 l 25
 104.19921875 0 l 25
 104.19921875 729.19921875 l 29
EndSplineSet
Fore
SplineSet
79 700 m 25
 179 700 l 25
 179 500 l 25
 379 500 l 25
 379 400 l 25
 479 400 l 25
 479 0 l 25
 379 0 l 25
 379 400 l 25
 179 400 l 25
 179 0 l 25
 79 0 l 25
 79 700 l 25
EndSplineSet
EndChar

StartChar: i
Encoding: 105 105 73
Width: 600
VWidth: 0
Flags: W
HStem: 0 0G<291 397> 500 0G<291 397> 600 100<291 397>
VStem: 279 100<0 521 625 729>
LayerCount: 2
Back
SplineSet
312.5 520.80078125 m 29
 416.69921875 520.80078125 l 25
 416.69921875 0 l 25
 312.5 0 l 25
 312.5 520.80078125 l 29
312.5 729.19921875 m 25
 416.69921875 729.19921875 l 25
 416.69921875 625 l 25
 312.5 625 l 25
 312.5 729.19921875 l 25
EndSplineSet
Fore
SplineSet
279 500 m 25
 379 500 l 25
 379 0 l 25
 279 0 l 25
 279 500 l 25
279 700 m 25
 379 700 l 25
 379 600 l 25
 279 600 l 25
 279 700 l 25
EndSplineSet
EndChar

StartChar: j
Encoding: 106 106 74
Width: 600
VWidth: 0
Flags: W
HStem: -100 100<188 291> 500 0G<291 397> 600 100<291 397>
VStem: 179 100<-104 0> 279 100<0 521 625 729>
LayerCount: 2
Back
SplineSet
312.5 520.80078125 m 29
 416.69921875 520.80078125 l 25
 416.69921875 0 l 25
 312.5 0 l 25
 312.5 -104.19921875 l 25
 208.30078125 -104.19921875 l 25
 208.30078125 0 l 25
 312.5 0 l 25
 312.5 520.80078125 l 29
312.5 729.19921875 m 25
 416.69921875 729.19921875 l 25
 416.69921875 625 l 25
 312.5 625 l 25
 312.5 729.19921875 l 25
EndSplineSet
Fore
SplineSet
279 500 m 25xe8
 379 500 l 25
 379 0 l 25xe8
 279 0 l 25
 279 -100 l 25
 179 -100 l 25
 179 0 l 25
 279 0 l 25xf0
 279 500 l 25xe8
279 700 m 25
 379 700 l 25
 379 600 l 25
 279 600 l 25
 279 700 l 25
EndSplineSet
EndChar

StartChar: k
Encoding: 107 107 75
Width: 600
VWidth: 0
Flags: W
LayerCount: 2
Back
SplineSet
104.19921875 729.19921875 m 29
 208.30078125 729.19921875 l 25
 208.30078125 312.5 l 25
 312.5 312.5 l 25
 312.5 416.69921875 l 25
 416.69921875 416.69921875 l 25
 416.69921875 520.80078125 l 25
 520.80078125 520.80078125 l 25
 520.80078125 416.69921875 l 25
 416.69921875 416.69921875 l 25
 416.69921875 312.5 l 25
 312.5 312.5 l 25
 312.5 208.30078125 l 25
 416.69921875 208.30078125 l 25
 416.69921875 104.19921875 l 25
 520.80078125 104.19921875 l 25
 520.80078125 0 l 25
 416.69921875 0 l 25
 416.69921875 104.19921875 l 25
 312.5 104.19921875 l 25
 312.5 208.30078125 l 25
 208.30078125 208.30078125 l 25
 208.30078125 0 l 25
 104.19921875 0 l 25
 104.19921875 729.19921875 l 29
EndSplineSet
Fore
SplineSet
80 700 m 25x8e
 180 700 l 25
 180 300 l 25
 280 300 l 25
 280 400 l 25
 380 400 l 25xae
 380 500 l 25
 480 500 l 25
 480 400 l 25x1d
 380 400 l 25
 380 300 l 25
 280 300 l 25
 280 200 l 25
 380 200 l 25x6e
 380 100 l 25x8e
 480 100 l 25
 480 0 l 25
 380 0 l 25x8d
 380 100 l 25x8e
 280 100 l 25
 280 200 l 25
 180 200 l 25x4e
 180 0 l 25
 80 0 l 25
 80 700 l 25x8e
EndSplineSet
EndChar

StartChar: l
Encoding: 108 108 76
Width: 600
VWidth: 0
Flags: W
HStem: 0 100<291 500> 700 0G<188 291>
VStem: 179 100<104 729>
LayerCount: 2
Back
SplineSet
208.30078125 729.19921875 m 29
 312.5 729.19921875 l 25
 312.5 104.19921875 l 25
 520.80078125 104.19921875 l 25
 520.80078125 0 l 25
 312.5 0 l 25
 312.5 104.19921875 l 25
 208.30078125 104.19921875 l 25
 208.30078125 729.19921875 l 29
EndSplineSet
Fore
SplineSet
179 700 m 25
 279 700 l 25
 279 100 l 25
 479 100 l 25
 479 0 l 25
 279 0 l 25
 279 100 l 25
 179 100 l 25
 179 700 l 25
EndSplineSet
EndChar

StartChar: m
Encoding: 109 109 77
Width: 600
VWidth: 0
Flags: W
HStem: 0 0G<83 188 500 604> 400 100<188 291 397 500>
VStem: 79 100<0 418> 279 100<104 418> 479 100<0 418>
CounterMasks: 1 38
LayerCount: 2
Back
SplineSet
104.19921875 0 m 29
 104.19921875 520.80078125 l 25
 520.80078125 520.80078125 l 25
 520.80078125 416.69921875 l 25
 625 416.69921875 l 25
 625 0 l 25
 520.80078125 0 l 25
 520.80078125 416.69921875 l 25
 416.69921875 416.69921875 l 25
 416.69921875 104.19921875 l 25
 312.5 104.19921875 l 25
 312.5 416.69921875 l 25
 208.30078125 416.69921875 l 25
 208.30078125 0 l 25
 104.19921875 0 l 29
EndSplineSet
Fore
SplineSet
79 0 m 25
 79 500 l 25
 479 500 l 25
 479 400 l 25
 579 400 l 25
 579 0 l 25
 479 0 l 25
 479 400 l 25
 379 400 l 25
 379 100 l 25
 279 100 l 25
 279 400 l 25
 179 400 l 25
 179 0 l 25
 79 0 l 25
EndSplineSet
EndChar

StartChar: n
Encoding: 110 110 78
Width: 600
VWidth: 0
Flags: W
HStem: 0 0G<83 188 397 500> 400 100<188 397>
VStem: 79 100<0 418> 379 100<0 418>
LayerCount: 2
Back
SplineSet
104.19921875 520.80078125 m 29
 416.69921875 520.80078125 l 25
 416.69921875 416.69921875 l 25
 520.80078125 416.69921875 l 25
 520.80078125 0 l 25
 416.69921875 0 l 25
 416.69921875 416.69921875 l 25
 208.30078125 416.69921875 l 25
 208.30078125 0 l 25
 104.19921875 0 l 25
 104.19921875 520.80078125 l 29
EndSplineSet
Fore
SplineSet
79 500 m 25
 379 500 l 25
 379 400 l 25
 479 400 l 25
 479 0 l 25
 379 0 l 25
 379 400 l 25
 179 400 l 25
 179 0 l 25
 79 0 l 25
 79 500 l 25
EndSplineSet
EndChar

StartChar: o
Encoding: 111 111 79
Width: 600
VWidth: 0
Flags: W
HStem: 0 100<188 397> 100 300<83 188 397 500>
VStem: 79 100<104 418> 179 200<0 104 418 521>
LayerCount: 2
Back
SplineSet
208.30078125 520.80078125 m 29x28
 416.69921875 520.80078125 l 25
 416.69921875 416.69921875 l 25
 520.80078125 416.69921875 l 25
 520.80078125 104.19921875 l 25
 416.69921875 104.19921875 l 25x28
 416.69921875 0 l 25
 208.30078125 0 l 25x88
 208.30078125 104.19921875 l 25
 104.19921875 104.19921875 l 25
 104.19921875 416.69921875 l 25
 208.30078125 416.69921875 l 25
 208.30078125 104.19921875 l 25x30
 416.69921875 104.19921875 l 25
 416.69921875 416.69921875 l 25x28
 208.30078125 416.69921875 l 25x30
 208.30078125 520.80078125 l 29x28
EndSplineSet
Fore
SplineSet
179 500 m 25x50
 379 500 l 25
 379 400 l 25
 479 400 l 25
 479 100 l 25x50
 379 100 l 25
 379 0 l 25
 179 0 l 25x90
 179 100 l 25xa0
 79 100 l 25
 79 400 l 25
 179 400 l 25x60
 179 100 l 25xa0
 379 100 l 25x90
 379 400 l 25x50
 179 400 l 25x60
 179 500 l 25x50
EndSplineSet
EndChar

StartChar: p
Encoding: 112 112 80
Width: 600
VWidth: 0
Flags: W
HStem: -100 0G<83 188> 100 100<188 397> 400 100<188 397>
VStem: 79 300<104 209 418 521> 79 100<-104 104 209 418> 379 100<209 418>
LayerCount: 2
Back
SplineSet
104.19921875 520.80078125 m 29
 416.69921875 520.80078125 l 25
 416.69921875 416.69921875 l 25
 520.80078125 416.69921875 l 25
 520.80078125 208.30078125 l 25
 416.69921875 208.30078125 l 25
 416.69921875 416.69921875 l 25
 208.30078125 416.69921875 l 25
 208.30078125 208.30078125 l 25
 416.69921875 208.30078125 l 25
 416.69921875 104.19921875 l 25
 208.30078125 104.19921875 l 25
 208.30078125 -104.19921875 l 25
 104.19921875 -104.19921875 l 25
 104.19921875 520.80078125 l 29
EndSplineSet
Fore
SplineSet
79 500 m 25
 379 500 l 25
 379 400 l 25
 179 400 l 25
 179 100 l 25
 379 100 l 25
 379 400 l 25
 479 400 l 25
 479 100 l 25
 379 100 l 25
 379 0 l 25
 179 0 l 25
 179 -200 l 25
 79 -200 l 25
 79 500 l 25
EndSplineSet
EndChar

StartChar: q
Encoding: 113 113 81
Width: 600
VWidth: 0
Flags: W
HStem: -100 0G<397 500> 100 100<188 397> 400 100<188 397>
VStem: 79 100<209 418> 179 300<104 209 418 521> 379 100<-104 104 209 418>
LayerCount: 2
Back
SplineSet
208.30078125 520.80078125 m 29
 520.80078125 520.80078125 l 25
 520.80078125 -104.19921875 l 25
 416.69921875 -104.19921875 l 25
 416.69921875 104.19921875 l 25
 208.30078125 104.19921875 l 25
 208.30078125 208.30078125 l 25
 104.19921875 208.30078125 l 25
 104.19921875 416.69921875 l 25
 208.30078125 416.69921875 l 25
 208.30078125 208.30078125 l 25
 416.69921875 208.30078125 l 25
 416.69921875 416.69921875 l 25
 208.30078125 416.69921875 l 25
 208.30078125 520.80078125 l 29
EndSplineSet
Fore
SplineSet
79 400 m 25
 179 400 l 25
 179 100 l 25
 379 100 l 25
 379 400 l 25
 179 400 l 25
 179 500 l 25
 479 500 l 25
 479 -200 l 25
 379 -200 l 25
 379 0 l 25
 179 0 l 25
 179 100 l 25
 79 100 l 25
 79 400 l 25
EndSplineSet
EndChar

StartChar: r
Encoding: 114 114 82
Width: 600
VWidth: 0
Flags: W
HStem: 0 0G<188 291> 400 100<291 500>
VStem: 179 100<0 418>
LayerCount: 2
Back
SplineSet
312.5 520.80078125 m 29
 520.80078125 520.80078125 l 25
 520.80078125 416.69921875 l 25
 312.5 416.69921875 l 25
 312.5 0 l 25
 208.30078125 0 l 25
 208.30078125 416.69921875 l 25
 312.5 416.69921875 l 25
 312.5 520.80078125 l 29
EndSplineSet
Fore
SplineSet
279 500 m 25
 479 500 l 25
 479 400 l 25
 279 400 l 25
 279 0 l 25
 179 0 l 25
 179 400 l 25
 279 400 l 25
 279 500 l 25
EndSplineSet
EndChar

StartChar: s
Encoding: 115 115 83
Width: 600
VWidth: 0
Flags: W
HStem: 0 100<83 397> 200 100<188 397> 400 100<188 500>
VStem: 79 100<312 418> 379 100<104 209>
CounterMasks: 1 e0
LayerCount: 2
Back
SplineSet
208.30078125 520.80078125 m 29
 520.80078125 520.80078125 l 25
 520.80078125 416.69921875 l 25
 208.30078125 416.69921875 l 25
 208.30078125 312.5 l 25
 416.69921875 312.5 l 25
 416.69921875 208.30078125 l 25
 520.80078125 208.30078125 l 25
 520.80078125 104.19921875 l 25
 416.69921875 104.19921875 l 25
 416.69921875 0 l 25
 104.19921875 0 l 25
 104.19921875 104.19921875 l 25
 416.69921875 104.19921875 l 25
 416.69921875 208.30078125 l 25
 208.30078125 208.30078125 l 25
 208.30078125 312.5 l 25
 104.19921875 312.5 l 25
 104.19921875 416.69921875 l 25
 208.30078125 416.69921875 l 25
 208.30078125 520.80078125 l 29
EndSplineSet
Fore
SplineSet
179 500 m 25
 479 500 l 25
 479 400 l 25
 179 400 l 25
 179 300 l 25
 379 300 l 25
 379 200 l 25
 479 200 l 25
 479 100 l 25
 379 100 l 25
 379 0 l 25
 79 0 l 25
 79 100 l 25
 379 100 l 25
 379 200 l 25
 179 200 l 25
 179 300 l 25
 79 300 l 25
 79 400 l 25
 179 400 l 25
 179 500 l 25
EndSplineSet
EndChar

StartChar: t
Encoding: 116 116 84
Width: 600
VWidth: 0
Flags: W
HStem: 0 100<291 500> 400 100<291 500> 700 0G<188 291>
VStem: 179 100<104 418 521 729>
LayerCount: 2
Back
SplineSet
208.30078125 729.19921875 m 29
 312.5 729.19921875 l 25
 312.5 520.80078125 l 25
 520.80078125 520.80078125 l 25
 520.80078125 416.69921875 l 25
 312.5 416.69921875 l 25
 312.5 104.19921875 l 25
 520.80078125 104.19921875 l 25
 520.80078125 0 l 25
 312.5 0 l 25
 312.5 104.19921875 l 25
 208.30078125 104.19921875 l 25
 208.30078125 729.19921875 l 29
EndSplineSet
Fore
SplineSet
179 700 m 25
 279 700 l 25
 279 500 l 25
 479 500 l 25
 479 400 l 25
 279 400 l 25
 279 100 l 25
 479 100 l 25
 479 0 l 25
 279 0 l 25
 279 100 l 25
 179 100 l 25
 179 700 l 25
EndSplineSet
EndChar

StartChar: u
Encoding: 117 117 85
Width: 600
VWidth: 0
Flags: W
HStem: 0 100<188 397> 500 0G<83 188 397 500>
VStem: 79 100<104 521> 379 100<104 521>
LayerCount: 2
Back
SplineSet
104.19921875 520.80078125 m 29
 208.30078125 520.80078125 l 25
 208.30078125 104.19921875 l 25
 416.69921875 104.19921875 l 25
 416.69921875 520.80078125 l 25
 520.80078125 520.80078125 l 25
 520.80078125 0 l 25
 208.30078125 0 l 25
 208.30078125 104.19921875 l 25
 104.19921875 104.19921875 l 25
 104.19921875 520.80078125 l 29
EndSplineSet
Fore
SplineSet
79 500 m 25
 179 500 l 25
 179 100 l 25
 379 100 l 25
 379 500 l 25
 479 500 l 25
 479 0 l 25
 179 0 l 25
 179 100 l 25
 79 100 l 25
 79 500 l 25
EndSplineSet
EndChar

StartChar: v
Encoding: 118 118 86
Width: 600
VWidth: 0
Flags: W
HStem: 0 200<188 397> 200 300<83 188 397 500>
VStem: 79 100<209 521> 379 100<209 521>
LayerCount: 2
Back
SplineSet
104.19921875 520.80078125 m 29
 208.30078125 520.80078125 l 25
 208.30078125 208.30078125 l 25
 416.69921875 208.30078125 l 25
 416.69921875 520.80078125 l 25
 520.80078125 520.80078125 l 25
 520.80078125 208.30078125 l 25
 416.69921875 208.30078125 l 25
 416.69921875 0 l 25
 208.30078125 0 l 25
 208.30078125 208.30078125 l 25
 104.19921875 208.30078125 l 25
 104.19921875 520.80078125 l 29
EndSplineSet
Fore
SplineSet
79 500 m 25x70
 179 500 l 25x70
 179 200 l 25
 379 200 l 25xb0
 379 500 l 25
 479 500 l 25
 479 200 l 25x70
 379 200 l 25
 379 0 l 25
 179 0 l 25
 179 200 l 25xb0
 79 200 l 25
 79 500 l 25x70
EndSplineSet
EndChar

StartChar: w
Encoding: 119 119 87
Width: 600
VWidth: 0
Flags: W
HStem: 0 100<188 291 397 500> 500 0G<83 188 500 604>
VStem: 79 100<104 521> 279 100<104 418> 479 100<104 521>
CounterMasks: 1 38
LayerCount: 2
Back
SplineSet
104.19921875 520.80078125 m 29
 208.30078125 520.80078125 l 25
 208.30078125 104.19921875 l 25
 312.5 104.19921875 l 25
 312.5 416.69921875 l 25
 416.69921875 416.69921875 l 25
 416.69921875 104.19921875 l 25
 520.80078125 104.19921875 l 25
 520.80078125 520.80078125 l 25
 625 520.80078125 l 25
 625 0 l 25
 208.30078125 0 l 25
 208.30078125 104.19921875 l 25
 104.19921875 104.19921875 l 25
 104.19921875 520.80078125 l 29
EndSplineSet
Fore
SplineSet
79 500 m 25
 179 500 l 25
 179 100 l 25
 279 100 l 25
 279 400 l 25
 379 400 l 25
 379 100 l 25
 479 100 l 25
 479 500 l 25
 579 500 l 25
 579 0 l 25
 179 0 l 25
 179 100 l 25
 79 100 l 25
 79 500 l 25
EndSplineSet
EndChar

StartChar: x
Encoding: 120 120 88
Width: 600
VWidth: 0
Flags: W
HStem: 0 200<83 188 397 500> 300 200<83 188 397 500>
VStem: 79 100<0 209 312 521> 379 100<0 209 312 521>
LayerCount: 2
Back
SplineSet
104.19921875 520.80078125 m 29
 208.30078125 520.80078125 l 25
 208.30078125 312.5 l 25
 416.69921875 312.5 l 25
 416.69921875 520.80078125 l 25
 520.80078125 520.80078125 l 25
 520.80078125 312.5 l 25
 416.69921875 312.5 l 25
 416.69921875 208.30078125 l 25
 520.80078125 208.30078125 l 25
 520.80078125 0 l 25
 416.69921875 0 l 25
 416.69921875 208.30078125 l 25
 208.30078125 208.30078125 l 25
 208.30078125 0 l 25
 104.19921875 0 l 25
 104.19921875 208.30078125 l 25
 208.30078125 208.30078125 l 25
 208.30078125 312.5 l 25
 104.19921875 312.5 l 25
 104.19921875 520.80078125 l 29
EndSplineSet
Fore
SplineSet
79 500 m 25
 179 500 l 25
 179 300 l 25
 379 300 l 25
 379 500 l 25
 479 500 l 25
 479 300 l 25
 379 300 l 25
 379 200 l 25
 479 200 l 25
 479 0 l 25
 379 0 l 25
 379 200 l 25
 179 200 l 25
 179 0 l 25
 79 0 l 25
 79 200 l 25
 179 200 l 25
 179 300 l 25
 79 300 l 25
 79 500 l 25
EndSplineSet
EndChar

StartChar: y
Encoding: 121 121 89
Width: 600
VWidth: 0
Flags: W
HStem: -100 100<188 397> 100 100<188 397> 500 0G<83 188 397 500>
VStem: 79 100<209 521> 379 100<0 104 209 521>
LayerCount: 2
Back
SplineSet
104.19921875 520.80078125 m 29
 208.30078125 520.80078125 l 25
 208.30078125 208.30078125 l 25
 416.69921875 208.30078125 l 25
 416.69921875 520.80078125 l 25
 520.80078125 520.80078125 l 25
 520.80078125 0 l 25
 416.69921875 0 l 25
 416.69921875 -104.19921875 l 25
 208.30078125 -104.19921875 l 25
 208.30078125 0 l 25
 416.69921875 0 l 25
 416.69921875 104.19921875 l 25
 208.30078125 104.19921875 l 25
 208.30078125 208.30078125 l 25
 104.19921875 208.30078125 l 25
 104.19921875 520.80078125 l 29
EndSplineSet
Fore
SplineSet
79 500 m 25
 179 500 l 25
 179 200 l 25
 379 200 l 25
 379 500 l 25
 479 500 l 25
 479 0 l 25
 379 0 l 25
 379 -100 l 25
 179 -100 l 25
 179 0 l 25
 379 0 l 25
 379 100 l 25
 179 100 l 25
 179 200 l 25
 79 200 l 25
 79 500 l 25
EndSplineSet
EndChar

StartChar: z
Encoding: 122 122 90
Width: 600
VWidth: 0
Flags: W
HStem: 0 100<188 500> 200 100<188 397> 400 100<83 397>
VStem: 79 100<104 209> 379 100<312 418>
CounterMasks: 1 e0
LayerCount: 2
Back
SplineSet
104.19921875 520.80078125 m 29
 520.80078125 520.80078125 l 25
 520.80078125 312.5 l 25
 416.69921875 312.5 l 25
 416.69921875 208.30078125 l 25
 208.30078125 208.30078125 l 25
 208.30078125 104.19921875 l 25
 520.80078125 104.19921875 l 25
 520.80078125 0 l 25
 104.19921875 0 l 25
 104.19921875 208.30078125 l 25
 208.30078125 208.30078125 l 25
 208.30078125 312.5 l 25
 416.69921875 312.5 l 25
 416.69921875 416.69921875 l 25
 104.19921875 416.69921875 l 25
 104.19921875 520.80078125 l 29
EndSplineSet
Fore
SplineSet
79 500 m 25
 479 500 l 25
 479 300 l 25
 379 300 l 25
 379 200 l 25
 179 200 l 25
 179 100 l 25
 479 100 l 25
 479 0 l 25
 79 0 l 25
 79 200 l 25
 179 200 l 25
 179 300 l 25
 379 300 l 25
 379 400 l 25
 79 400 l 25
 79 500 l 25
EndSplineSet
EndChar

StartChar: braceleft
Encoding: 123 123 91
Width: 600
VWidth: 0
Flags: W
HStem: 0 100<397 500> 300 100<188 291> 600 100<397 500>
VStem: 179 100<312 418> 279 100<104 312 418 625> 379 100<0 104 625 729>
CounterMasks: 1 e0
LayerCount: 2
Back
SplineSet
416.69921875 729.19921875 m 29
 520.80078125 729.19921875 l 25
 520.80078125 625 l 25
 416.69921875 625 l 25
 416.69921875 416.69921875 l 25
 312.5 416.69921875 l 25
 312.5 312.5 l 25
 416.69921875 312.5 l 25
 416.69921875 104.19921875 l 25
 520.80078125 104.19921875 l 25
 520.80078125 0 l 25
 416.69921875 0 l 25
 416.69921875 104.19921875 l 25
 312.5 104.19921875 l 25
 312.5 312.5 l 25
 208.30078125 312.5 l 25
 208.30078125 416.69921875 l 25
 312.5 416.69921875 l 25
 312.5 625 l 25
 416.69921875 625 l 25
 416.69921875 729.19921875 l 29
EndSplineSet
Fore
SplineSet
379 700 m 25xe4
 479 700 l 25
 479 600 l 25xe4
 379 600 l 25
 379 400 l 25xe8
 279 400 l 25
 279 300 l 25xf0
 379 300 l 25
 379 100 l 25xe8
 479 100 l 25
 479 0 l 25
 379 0 l 25xe4
 379 100 l 25
 279 100 l 25xe8
 279 300 l 25
 179 300 l 25
 179 400 l 25
 279 400 l 25xf0
 279 600 l 25
 379 600 l 25xe8
 379 700 l 25xe4
EndSplineSet
EndChar

StartChar: bar
Encoding: 124 124 92
Width: 600
VWidth: 0
Flags: W
HStem: -100 0G<291 397> 600 0G<291 397>
VStem: 279 100<-104 625>
LayerCount: 2
Back
SplineSet
312.5 625 m 29
 416.69921875 625 l 25
 416.69921875 -104.19921875 l 25
 312.5 -104.19921875 l 25
 312.5 625 l 29
EndSplineSet
Fore
SplineSet
279 600 m 25
 379 600 l 25
 379 -100 l 25
 279 -100 l 25
 279 600 l 25
EndSplineSet
EndChar

StartChar: braceright
Encoding: 125 125 93
Width: 600
VWidth: 0
Flags: W
HStem: 0 100<83 188> 300 100<291 397> 600 100<83 188>
VStem: 79 100<0 104 625 729> 179 100<104 312 418 625> 279 100<312 418>
CounterMasks: 1 e0
LayerCount: 2
Back
SplineSet
104.19921875 729.19921875 m 29
 208.30078125 729.19921875 l 25
 208.30078125 625 l 25
 312.5 625 l 25
 312.5 416.69921875 l 25
 416.69921875 416.69921875 l 25
 416.69921875 312.5 l 25
 312.5 312.5 l 25
 312.5 104.19921875 l 25
 208.30078125 104.19921875 l 25
 208.30078125 0 l 25
 104.19921875 0 l 25
 104.19921875 104.19921875 l 25
 208.30078125 104.19921875 l 25
 208.30078125 312.5 l 25
 312.5 312.5 l 25
 312.5 416.69921875 l 25
 208.30078125 416.69921875 l 25
 208.30078125 625 l 25
 104.19921875 625 l 25
 104.19921875 729.19921875 l 29
EndSplineSet
Fore
SplineSet
79 700 m 25xf0
 179 700 l 25
 179 600 l 25xf0
 279 600 l 25
 279 400 l 25xe8
 379 400 l 25
 379 300 l 25xe4
 279 300 l 25
 279 100 l 25xe8
 179 100 l 25
 179 0 l 25
 79 0 l 25
 79 100 l 25
 179 100 l 25xf0
 179 300 l 25
 279 300 l 25
 279 400 l 25
 179 400 l 25xe8
 179 600 l 25
 79 600 l 25
 79 700 l 25xf0
EndSplineSet
EndChar

StartChar: asciitilde
Encoding: 126 126 94
Width: 600
VWidth: 0
Flags: W
HStem: 200 100<83 188 291 500> 300 100<188 291 500 604>
VStem: 79 100<209 312> 479 100<312 418>
LayerCount: 2
Back
SplineSet
104.19921875 312.5 m 29
 208.30078125 312.5 l 25
 208.30078125 416.69921875 l 25
 312.5 416.69921875 l 25
 312.5 312.5 l 25
 520.80078125 312.5 l 25
 520.80078125 416.69921875 l 25
 625 416.69921875 l 25
 625 312.5 l 25
 520.80078125 312.5 l 25
 520.80078125 208.30078125 l 25
 312.5 208.30078125 l 25
 312.5 312.5 l 25
 208.30078125 312.5 l 25
 208.30078125 208.30078125 l 25
 104.19921875 208.30078125 l 25
 104.19921875 312.5 l 29
EndSplineSet
Fore
SplineSet
79 300 m 25xb0
 179 300 l 25xb0
 179 400 l 25
 279 400 l 25x70
 279 300 l 25
 479 300 l 25xb0
 479 400 l 25
 579 400 l 25
 579 300 l 25x70
 479 300 l 25
 479 200 l 25
 279 200 l 25
 279 300 l 25
 179 300 l 25
 179 200 l 25
 79 200 l 25
 79 300 l 25xb0
EndSplineSet
EndChar

StartChar: exclamdown
Encoding: 161 161 96
Width: 600
VWidth: 0
Flags: W
HStem: -100 0G<291 397> 500 100<291 397>
VStem: 279 100<-104 418 521 625>
LayerCount: 2
Back
SplineSet
312.5 416.69921875 m 29
 416.69921875 416.69921875 l 25
 416.69921875 -104.19921875 l 25
 312.5 -104.19921875 l 25
 312.5 416.69921875 l 29
416.69921875 625 m 25
 416.69921875 520.80078125 l 25
 312.5 520.80078125 l 25
 312.5 625 l 25
 416.69921875 625 l 25
EndSplineSet
Fore
SplineSet
279 400 m 25
 379 400 l 25
 379 -100 l 25
 279 -100 l 25
 279 400 l 25
379 600 m 25
 379 500 l 25
 279 500 l 25
 279 600 l 25
 379 600 l 25
EndSplineSet
EndChar

StartChar: sterling
Encoding: 163 163 98
Width: 600
VWidth: 0
Flags: W
HStem: 0 100<83 188 291 604> 200 100<83 188 291 500> 500 100<291 604>
VStem: 179 100<104 209 312 521>
LayerCount: 2
Back
Fore
SplineSet
279 600 m 25
 579 600 l 25
 579 500 l 25
 279 500 l 25
 279 300 l 25
 479 300 l 25
 479 200 l 25
 279 200 l 25
 279 100 l 25
 579 100 l 25
 579 0 l 25
 79 0 l 25
 79 100 l 25
 179 100 l 25
 179 200 l 25
 79 200 l 25
 79 300 l 25
 179 300 l 25
 179 500 l 25
 279 500 l 25
 279 600 l 25
EndSplineSet
EndChar

StartChar: currency
Encoding: 256 164 99
Width: 600
VWidth: 0
Flags: W
HStem: 0 100<-21 83 500 604> 500 100<-21 83 500 604>
VStem: -21 100<0 104 521 625> 479 100<0 104 521 625>
LayerCount: 2
Back
Fore
SplineSet
179 400 m 25
 179 200 l 25
 379 200 l 25
 379 400 l 25
 179 400 l 25
-21 600 m 25
 79 600 l 25
 79 500 l 25
 479 500 l 25
 479 600 l 25
 579 600 l 25
 579 500 l 25
 479 500 l 25
 479 100 l 25
 579 100 l 25
 579 0 l 25
 479 0 l 25
 479 100 l 25
 79 100 l 25
 79 0 l 25
 -21 0 l 25
 -21 100 l 25
 79 100 l 25
 79 500 l 25
 -21 500 l 25
 -21 600 l 25
EndSplineSet
EndChar

StartChar: yen
Encoding: 165 165 100
Width: 600
VWidth: 0
Flags: W
HStem: -100 0G<291 397> 0 100<188 291 397 500> 200 100<188 291 397 500> 400 100<188 291 397 500> 500 100<83 188 500 604>
VStem: 79 100<521 625> 179 100<418 521> 279 100<-104 0 104 209 312 418> 379 100<418 521> 479 100<521 625>
LayerCount: 2
Back
Fore
SplineSet
79 600 m 25xec
 179 600 l 25xec
 179 500 l 25xf4
 279 500 l 25
 279 400 l 25xf2
 379 400 l 25xf1
 379 500 l 25
 479 500 l 25xf080
 479 600 l 25
 579 600 l 25
 579 500 l 25xe840
 479 500 l 25
 479 400 l 25xf080
 379 400 l 25
 379 300 l 25
 479 300 l 25
 479 200 l 25
 379 200 l 25
 379 100 l 25
 479 100 l 25
 479 0 l 25
 379 0 l 25
 379 -100 l 25
 279 -100 l 25
 279 0 l 25xf140
 179 0 l 25
 179 100 l 25xf2
 279 100 l 25
 279 200 l 25xf1
 179 200 l 25
 179 300 l 25xf2
 279 300 l 25xf1
 279 400 l 25
 179 400 l 25xf2
 179 500 l 25xf4
 79 500 l 25
 79 600 l 25xec
EndSplineSet
EndChar

StartChar: brokenbar
Encoding: 257 166 101
Width: 600
VWidth: 0
Flags: W
HStem: -100 0G<291 397> 600 0G<291 397>
VStem: 279 100<-104 625>
LayerCount: 2
Back
Fore
SplineSet
279 600 m 25
 379 600 l 25
 379 -100 l 25
 279 -100 l 25
 279 600 l 25
EndSplineSet
EndChar

StartChar: section
Encoding: 167 167 102
Width: 600
VWidth: 0
Flags: W
HStem: -100 100<83 291> 100 100<188 291 397 500> 200 100<83 188 291 397> 400 100<291 500>
VStem: 79 100<209 312> 179 100<104 209 312 418> 279 100<0 104 209 312> 379 100<104 209>
LayerCount: 2
Back
Fore
SplineSet
179 500 m 25xb4
 479 500 l 25
 479 400 l 25
 279 400 l 25
 279 300 l 25xb5
 379 300 l 25xb2
 379 200 l 25xd2
 479 200 l 25
 479 100 l 25xd1
 379 100 l 25
 379 200 l 25xd2
 279 200 l 25xd4
 279 300 l 25xb4
 179 300 l 25xb8
 179 200 l 25xd8
 279 200 l 25
 279 100 l 25xd4
 379 100 l 25xd2
 379 -100 l 25xd1
 79 -100 l 25
 79 0 l 25
 279 0 l 25xda
 279 100 l 25
 179 100 l 25xd4
 179 200 l 25xd8
 79 200 l 25
 79 300 l 25
 179 300 l 25xb8
 179 500 l 25xb4
EndSplineSet
EndChar

StartChar: dieresis
Encoding: 258 168 103
Width: 600
VWidth: 0
Flags: W
HStem: 500 100<188 291 500 604>
VStem: 179 100<521 625> 479 100<521 625>
LayerCount: 2
Back
Fore
SplineSet
479 600 m 25
 579 600 l 25
 579 500 l 25
 479 500 l 25
 479 600 l 25
179 600 m 25
 279 600 l 25
 279 500 l 25
 179 500 l 25
 179 600 l 25
EndSplineSet
EndChar

StartChar: copyright
Encoding: 169 169 104
Width: 600
VWidth: 0
Flags: W
HStem: 0 100<188 397> 100 100<83 188 397 500> 200 100<188 397> 400 100<188 397> 500 100<83 188 397 500> 600 100<188 397>
VStem: -21 100<209 312 418 521> 79 100<104 209 521 625> 179 200<0 104 209 312 418 521 625 729> 379 100<104 209 521 625> 479 100<209 521>
LayerCount: 2
Back
Fore
SplineSet
179 700 m 25x0480
 379 700 l 25x0480
 379 600 l 25x0880
 179 600 l 25x09
 179 500 l 25x11
 79 500 l 25x0a
 79 400 l 25
 179 400 l 25
 179 300 l 25
 79 300 l 25x3280
 79 200 l 25x4280
 179 200 l 25x41
 179 100 l 25x81
 379 100 l 25x8080
 379 200 l 25x4080
 179 200 l 25x41
 179 300 l 25
 379 300 l 25x2080
 379 200 l 25x4080
 479 200 l 25
 479 500 l 25x4840
 379 500 l 25
 379 400 l 25
 179 400 l 25x1080
 179 500 l 25x11
 379 500 l 25x1080
 379 600 l 25x0880
 479 600 l 25
 479 500 l 25x0840
 579 500 l 25
 579 200 l 25x2820
 479 200 l 25
 479 100 l 25x4040
 379 100 l 25
 379 0 l 25
 179 0 l 25x8080
 179 100 l 25x81
 79 100 l 25x41
 79 200 l 25x42
 -21 200 l 25
 -21 500 l 25
 79 500 l 25x2a
 79 600 l 25
 179 600 l 25x29
 179 700 l 25x0480
EndSplineSet
EndChar

StartChar: ordfeminine
Encoding: 170 170 105
Width: 600
VWidth: 0
Flags: W
HStem: 100 100<188 291> 200 100<83 188> 300 100<188 291> 500 100<188 291>
VStem: 79 100<209 312> 179 100<521 625> 279 100<209 312 418 521>
LayerCount: 2
Back
Fore
SplineSet
179 600 m 25x34
 279 600 l 25
 279 500 l 25x34
 379 500 l 25
 379 100 l 25xb2
 179 100 l 25xb4
 179 200 l 25
 279 200 l 25
 279 300 l 25xba
 179 300 l 25x5a
 179 200 l 25x9a
 79 200 l 25
 79 300 l 25
 179 300 l 25x5a
 179 400 l 25x34
 279 400 l 25x32
 279 500 l 25
 179 500 l 25
 179 600 l 25x34
EndSplineSet
EndChar

StartChar: guillemotleft
Encoding: 171 171 106
Width: 600
VWidth: 0
Flags: W
HStem: 0 100<188 291 500 604> 100 100<83 188 397 500> 200 100<-21 83 291 397> 300 100<83 188 397 500> 400 100<188 291 500 604>
VStem: -21 100<209 312> 79 100<104 209 312 418> 179 100<0 104 418 521> 279 100<209 312> 379 100<104 209 312 418> 479 100<0 104 418 521>
LayerCount: 2
Back
Fore
SplineSet
479 500 m 25x0820
 579 500 l 25
 579 400 l 25x0820
 479 400 l 25
 479 300 l 25x1040
 379 300 l 25x2080
 379 200 l 25x4080
 479 200 l 25x4040
 479 100 l 25x8040
 579 100 l 25
 579 0 l 25
 479 0 l 25x8020
 479 100 l 25x8040
 379 100 l 25x4040
 379 200 l 25x4080
 279 200 l 25
 279 300 l 25
 379 300 l 25x2080
 379 400 l 25
 479 400 l 25x1040
 479 500 l 25x0820
179 500 m 25x09
 279 500 l 25
 279 400 l 25x09
 179 400 l 25
 179 300 l 25x12
 79 300 l 25x24
 79 200 l 25x44
 179 200 l 25x42
 179 100 l 25x82
 279 100 l 25
 279 0 l 25
 179 0 l 25x81
 179 100 l 25x82
 79 100 l 25x42
 79 200 l 25x44
 -21 200 l 25
 -21 300 l 25
 79 300 l 25x24
 79 400 l 25
 179 400 l 25x12
 179 500 l 25x09
EndSplineSet
EndChar

StartChar: logicalnot
Encoding: 172 172 107
Width: 600
VWidth: 0
Flags: W
HStem: 0 0G<500 604> 200 100<83 500>
VStem: 479 100<0 209>
LayerCount: 2
Back
Fore
SplineSet
79 300 m 25
 579 300 l 25
 579 0 l 25
 479 0 l 25
 479 200 l 25
 79 200 l 25
 79 300 l 25
EndSplineSet
EndChar

StartChar: registered
Encoding: 174 174 108
Width: 600
VWidth: 0
Flags: W
HStem: 0 100<188 397> 100 100<83 188> 200 300<-21 83 188 291 500 604> 500 100<83 188> 600 100<188 397>
VStem: -21 100<209 521> 79 100<104 209 521 625> 179 200<0 104 312 418 625 729> 179 100<209 312> 379 100<104 209 521 625> 479 100<312 418>
LayerCount: 2
Back
Fore
SplineSet
179 700 m 25x09
 379 700 l 25
 379 600 l 25x09
 179 600 l 25x12
 179 500 l 25x22
 79 500 l 25x24
 79 200 l 25x44
 179 200 l 25x42
 179 100 l 25x82
 379 100 l 25
 379 300 l 25
 479 300 l 25
 479 400 l 25
 379 400 l 25
 379 300 l 25x8120
 279 300 l 25
 279 200 l 25xa080
 179 200 l 25x42
 179 500 l 25x22
 379 500 l 25x1240
 379 600 l 25x09
 479 600 l 25
 479 500 l 25x2840
 579 500 l 25
 579 200 l 25x2820
 479 200 l 25x2840
 479 100 l 25x4040
 379 100 l 25
 379 0 l 25
 179 0 l 25x81
 179 100 l 25x82
 79 100 l 25x42
 79 200 l 25x44
 -21 200 l 25
 -21 500 l 25
 79 500 l 25x24
 79 600 l 25
 179 600 l 25x12
 179 700 l 25x09
EndSplineSet
EndChar

StartChar: macron
Encoding: 175 175 109
Width: 600
VWidth: 0
Flags: W
HStem: 500 100<188 500>
VStem: 179 300<521 625>
LayerCount: 2
Back
Fore
SplineSet
179 600 m 25
 479 600 l 25
 479 500 l 25
 179 500 l 25
 179 600 l 25
EndSplineSet
EndChar

StartChar: degree
Encoding: 176 176 110
Width: 600
VWidth: 0
Flags: W
HStem: 300 100<188 291> 400 100<83 188 291 397> 500 100<188 291>
VStem: 79 100<418 521> 179 100<312 418 521 625> 279 100<418 521>
LayerCount: 2
Back
Fore
SplineSet
179 600 m 25x28
 279 600 l 25x28
 279 500 l 25x48
 179 500 l 25x50
 179 400 l 25x90
 279 400 l 25x88
 279 500 l 25x48
 379 500 l 25
 379 400 l 25x44
 279 400 l 25
 279 300 l 25
 179 300 l 25x88
 179 400 l 25x90
 79 400 l 25
 79 500 l 25
 179 500 l 25x50
 179 600 l 25x28
EndSplineSet
EndChar

StartChar: plusminus
Encoding: 177 177 111
Width: 600
VWidth: 0
Flags: W
HStem: 100 100<188 500> 400 100<188 291 397 500> 600 0G<291 397>
VStem: 179 300<104 209 418 521> 279 100<312 418 521 625>
LayerCount: 2
Back
Fore
SplineSet
179 200 m 25xf0
 479 200 l 25
 479 100 l 25
 179 100 l 25
 179 200 l 25xf0
279 600 m 25xe8
 379 600 l 25
 379 500 l 25xe8
 479 500 l 25
 479 400 l 25xf0
 379 400 l 25
 379 300 l 25
 279 300 l 25
 279 400 l 25xe8
 179 400 l 25
 179 500 l 25xf0
 279 500 l 25
 279 600 l 25xe8
EndSplineSet
EndChar

StartChar: uni00B2
Encoding: 178 178 112
Width: 600
VWidth: 0
Flags: W
HStem: 300 100<83 188 291 397> 600 100<83 188> 700 100<188 291>
VStem: 79 100<625 729> 179 100<418 521 729 834> 279 100<521 729>
LayerCount: 2
Back
Fore
SplineSet
79 600 m 25xd0
 79 700 l 25
 179 700 l 25xd0
 179 800 l 25
 279 800 l 25
 279 700 l 25xa8
 379 700 l 25
 379 500 l 25xa4
 279 500 l 25
 279 400 l 25xa8
 379 400 l 25
 379 300 l 25
 79 300 l 25
 79 400 l 25xb4
 179 400 l 25
 179 500 l 25
 279 500 l 25
 279 700 l 25xa8
 179 700 l 25
 179 600 l 25
 79 600 l 25xd0
EndSplineSet
EndChar

StartChar: uni00B3
Encoding: 179 179 113
Width: 600
VWidth: 0
Flags: W
HStem: 300 100<83 291> 500 100<83 291> 700 100<83 291>
VStem: 79 200<312 418 521 625 729 834> 279 100<418 521 625 729>
CounterMasks: 1 e0
LayerCount: 2
Back
Fore
SplineSet
79 800 m 25xf0
 279 800 l 25
 279 700 l 25xf0
 379 700 l 25
 379 600 l 25xe8
 279 600 l 25
 279 500 l 25xf0
 379 500 l 25
 379 400 l 25xe8
 279 400 l 25
 279 300 l 25
 79 300 l 25
 79 400 l 25
 279 400 l 25
 279 500 l 25
 79 500 l 25
 79 600 l 25
 279 600 l 25
 279 700 l 25
 79 700 l 25
 79 800 l 25xf0
EndSplineSet
EndChar

StartChar: acute
Encoding: 259 180 114
Width: 600
VWidth: 0
Flags: W
HStem: 400 100<188 291> 700 0G<291 397>
VStem: 179 100<418 521> 279 100<521 729>
LayerCount: 2
Back
Fore
SplineSet
279 700 m 25xd0
 379 700 l 25
 379 500 l 25xd0
 279 500 l 25
 279 400 l 25
 179 400 l 25
 179 500 l 25
 279 500 l 25xe0
 279 700 l 25xd0
EndSplineSet
EndChar

StartChar: mu
Encoding: 181 181 115
Width: 600
VWidth: 0
Flags: W
HStem: 0 100<188 291> 100 100<291 397> 500 0G<83 188 397 500>
VStem: 79 100<-209 0 104 521> 379 100<0 104 209 521>
LayerCount: 2
Back
Fore
SplineSet
79 500 m 25xb8
 179 500 l 25
 179 100 l 25
 279 100 l 25xb8
 279 200 l 25
 379 200 l 25x78
 379 500 l 25
 479 500 l 25
 479 0 l 25
 379 0 l 25xb8
 379 100 l 25x78
 279 100 l 25
 279 0 l 25
 179 0 l 25
 179 -200 l 25
 79 -200 l 25
 79 500 l 25xb8
EndSplineSet
EndChar

StartChar: paragraph
Encoding: 182 182 116
Width: 600
VWidth: 0
Flags: W
HStem: -100 0G<188 291 397 500> 500 100<291 397>
VStem: -21 300<312 521> 179 100<-104 209> 379 100<-104 521>
LayerCount: 2
Back
Fore
SplineSet
-21 500 m 25xe8
 79 500 l 25
 79 600 l 25
 479 600 l 25
 479 -100 l 25
 379 -100 l 25
 379 500 l 25
 279 500 l 25xe8
 279 -100 l 25
 179 -100 l 25
 179 200 l 25xd8
 79 200 l 25
 79 300 l 25
 -21 300 l 25
 -21 500 l 25xe8
EndSplineSet
EndChar

StartChar: periodcentered
Encoding: 183 183 117
Width: 600
VWidth: 0
Flags: W
HStem: 100 200<188 397>
VStem: 179 200<104 312>
LayerCount: 2
Back
Fore
SplineSet
179 300 m 25
 379 300 l 25
 379 100 l 25
 179 100 l 25
 179 300 l 25
EndSplineSet
EndChar

StartChar: cedilla
Encoding: 260 184 118
Width: 600
VWidth: 0
Flags: W
HStem: -200 100<188 397> 0 100<291 397>
VStem: 279 100<0 104> 379 100<-104 0>
LayerCount: 2
Back
Fore
SplineSet
279 100 m 25xe0
 379 100 l 25
 379 0 l 25xe0
 479 0 l 25
 479 -200 l 25
 179 -200 l 25
 179 -100 l 25
 379 -100 l 25xd0
 379 0 l 25
 279 0 l 25
 279 100 l 25xe0
EndSplineSet
EndChar

StartChar: uni00B9
Encoding: 185 185 119
Width: 600
VWidth: 0
Flags: W
HStem: 400 100<83 188> 600 0G<188 291>
VStem: 179 100<104 418 521 625>
LayerCount: 2
Back
Fore
SplineSet
79 500 m 25
 179 500 l 25
 179 600 l 25
 279 600 l 25
 279 100 l 25
 179 100 l 25
 179 400 l 25
 79 400 l 25
 79 500 l 25
EndSplineSet
EndChar

StartChar: ordmasculine
Encoding: 186 186 120
Width: 600
VWidth: 0
Flags: W
HStem: 200 100<188 397> 300 200<83 188 397 500> 500 100<188 397>
VStem: 79 100<312 521> 179 200<209 312 521 625> 379 100<312 521>
LayerCount: 2
Back
Fore
SplineSet
179 600 m 25x28
 379 600 l 25x28
 379 500 l 25x48
 479 500 l 25
 479 300 l 25x44
 379 300 l 25
 379 200 l 25
 179 200 l 25x88
 179 300 l 25x90
 379 300 l 25x88
 379 500 l 25x48
 179 500 l 25x50
 179 300 l 25x90
 79 300 l 25
 79 500 l 25
 179 500 l 25x50
 179 600 l 25x28
EndSplineSet
EndChar

StartChar: guillemotright
Encoding: 187 187 121
Width: 600
VWidth: 0
Flags: W
HStem: 0 100<-21 83 291 397> 100 100<83 188 397 500> 200 100<188 291 500 604> 300 100<83 188 397 500> 400 100<-21 83 291 397>
VStem: -21 100<0 104 418 521> 79 100<104 209 312 418> 179 100<209 312> 279 100<0 104 418 521> 379 100<104 209 312 418> 479 100<209 312>
LayerCount: 2
Back
Fore
SplineSet
279 500 m 25x0880
 379 500 l 25x0880
 379 400 l 25x1080
 479 400 l 25x1040
 479 300 l 25x2040
 579 300 l 25
 579 200 l 25x2020
 479 200 l 25
 479 100 l 25x4040
 379 100 l 25
 379 0 l 25
 279 0 l 25
 279 100 l 25
 379 100 l 25x8080
 379 200 l 25
 479 200 l 25x4040
 479 300 l 25x2040
 379 300 l 25x1040
 379 400 l 25x1080
 279 400 l 25
 279 500 l 25x0880
-21 500 m 25x0c
 79 500 l 25x0c
 79 400 l 25x14
 179 400 l 25x12
 179 300 l 25x22
 279 300 l 25
 279 200 l 25x21
 179 200 l 25
 179 100 l 25x42
 79 100 l 25
 79 0 l 25
 -21 0 l 25
 -21 100 l 25
 79 100 l 25x84
 79 200 l 25
 179 200 l 25x42
 179 300 l 25x22
 79 300 l 25x12
 79 400 l 25x14
 -21 400 l 25
 -21 500 l 25x0c
EndSplineSet
EndChar

StartChar: onequarter
Encoding: 261 188 122
Width: 600
VWidth: 0
Flags: W
HStem: -100 0G<497 600> 0 100<391 497 600 704> 100 100<79 182> 200 100<182 288 391 497> 300 100<288 391> 400 100<391 497> 500 100<497 600> 600 100<79 182>
VStem: 79 100<104 209> 179 100<209 312 418 625 729 834> 279 100<104 209 312 418> 379 100<418 521> 479 100<-104 0 104 209 312 418 521 625>
LayerCount: 2
Back
Fore
SplineSet
79 700 m 25x8580
 179 700 l 1
 179 800 l 5
 279 800 l 1
 279 400 l 1x8940
 379 400 l 25x8920
 379 500 l 25
 479 500 l 25x8410
 479 600 l 25
 579 600 l 25
 579 500 l 25x8208
 479 500 l 25
 479 400 l 25x8410
 579 400 l 25
 579 100 l 25
 679 100 l 25
 679 0 l 25
 579 0 l 25
 579 -100 l 25
 479 -100 l 25
 479 0 l 25
 279 0 l 25xc428
 279 200 l 25xd440
 379 200 l 25
 379 100 l 25
 479 100 l 25
 479 200 l 25
 379 200 l 25
 379 300 l 25
 479 300 l 25xd428
 479 400 l 25xd410
 379 400 l 25x8820
 379 300 l 25x9020
 279 300 l 25
 279 200 l 25x9040
 179 200 l 25
 179 100 l 25
 79 100 l 25
 79 200 l 25
 179 200 l 25xa080
 179 300 l 25
 279 300 l 25x9040
 279 400 l 25x8840
 179 400 l 25
 179 600 l 25x8540
 79 600 l 25
 79 700 l 25x8580
EndSplineSet
EndChar

StartChar: onehalf
Encoding: 262 189 123
Width: 600
VWidth: 0
Flags: W
HStem: 0 100<291 397 500 604> 100 100<-21 83> 200 100<83 188 500 604> 300 100<188 291 397 500> 500 100<397 500> 600 100<-21 83>
VStem: -21 100<104 209> 79 100<209 312 418 625 729 834> 279 100<418 521> 379 100<104 209 521 625> 479 100<209 312>
LayerCount: 2
Back
Fore
SplineSet
-21 700 m 25x16
 79 700 l 1x15
 79 800 l 1
 179 800 l 5
 179 400 l 1
 279 400 l 25
 279 500 l 25
 379 500 l 25x1980
 379 600 l 25
 479 600 l 25
 479 500 l 25x1840
 379 500 l 25
 379 400 l 25
 479 400 l 25x18a0
 479 300 l 25
 579 300 l 25
 579 200 l 25x20a0
 479 200 l 25
 479 100 l 25xa040
 579 100 l 25
 579 0 l 25
 279 0 l 25
 279 100 l 25xa0a0
 379 100 l 25
 379 200 l 25
 479 200 l 25xa040
 479 300 l 25
 179 300 l 25
 179 200 l 25xa120
 79 200 l 25
 79 100 l 25
 -21 100 l 25
 -21 200 l 25
 79 200 l 25x42
 79 300 l 25
 179 300 l 25x21
 179 400 l 25
 79 400 l 25
 79 600 l 25x15
 -21 600 l 25
 -21 700 l 25x16
EndSplineSet
EndChar

StartChar: threequarters
Encoding: 263 190 124
Width: 600
VWidth: 0
Flags: W
HStem: -100 0G<397 500> 0 100<291 397 500 604> 100 100<-21 83> 200 100<83 188 291 397> 400 100<-21 188 291 397> 500 100<397 500> 700 100<-21 83>
VStem: -21 100<104 209> 79 100<209 312> 179 100<104 209 312 418 521 625> 379 100<-104 0 104 209 312 418 521 625>
LayerCount: 2
Back
Fore
SplineSet
-21 800 m 25x8720
 279 800 l 25
 279 500 l 25
 379 500 l 25x8b60
 379 600 l 25
 479 600 l 25
 479 500 l 25x8760
 379 500 l 25
 379 400 l 25
 479 400 l 25
 479 100 l 25
 579 100 l 25
 579 0 l 25
 479 0 l 25
 479 -100 l 25
 379 -100 l 25
 379 0 l 25
 179 0 l 25xcb60
 179 200 l 25xdaa0
 279 200 l 25
 279 100 l 25
 379 100 l 25
 379 200 l 25
 279 200 l 25
 279 300 l 25
 379 300 l 25
 379 400 l 25
 279 400 l 25
 279 300 l 25xda60
 179 300 l 25
 179 200 l 25xdaa0
 79 200 l 25
 79 100 l 25
 -21 100 l 25
 -21 200 l 25
 79 200 l 25xa320
 79 300 l 25
 179 300 l 25x92a0
 179 400 l 25
 -21 400 l 25
 -21 500 l 25
 179 500 l 25x9b60
 179 600 l 25x8760
 79 600 l 25
 79 700 l 25x86a0
 -21 700 l 25
 -21 800 l 25x8720
EndSplineSet
EndChar

StartChar: questiondown
Encoding: 191 191 125
Width: 600
VWidth: 0
Flags: W
HStem: -100 100<188 397> 0 100<397 500> 200 100<188 291> 300 100<291 397> 500 100<291 397>
VStem: 79 100<0 209> 179 100<209 312> 279 100<312 418 521 625> 379 100<0 104>
LayerCount: 2
Back
Fore
SplineSet
279 400 m 25x19
 379 400 l 25
 379 300 l 25x19
 279 300 l 25
 279 200 l 25x2a
 179 200 l 25
 179 0 l 25
 379 0 l 25xac80
 379 100 l 25
 479 100 l 25
 479 0 l 25x4c80
 379 0 l 25
 379 -100 l 25
 179 -100 l 25x8a80
 179 0 l 25x8c
 79 0 l 25
 79 200 l 25
 179 200 l 25x6c
 179 300 l 25
 279 300 l 25x6a
 279 400 l 25x19
279 600 m 25
 379 600 l 25
 379 500 l 25
 279 500 l 25
 279 600 l 25
EndSplineSet
EndChar

StartChar: Agrave
Encoding: 192 192 126
Width: 600
VWidth: 0
Flags: W
HStem: 0 0G<83 188 397 500> 200 100<188 397> 500 0G<83 188> 500 100<188 291> 700 100<188 291>
VStem: 79 100<0 209 312 521> 179 100<729 834> 279 100<625 729> 379 100<0 209 312 521>
LayerCount: 2
Back
Fore
SplineSet
179 800 m 25xda
 279 800 l 25
 279 700 l 25xda
 379 700 l 25xd9
 379 500 l 25
 479 500 l 25xd880
 479 0 l 25
 379 0 l 25
 379 200 l 25
 179 200 l 25
 179 0 l 25
 79 0 l 25
 79 500 l 25
 179 500 l 25xec80
 179 300 l 25
 379 300 l 25
 379 500 l 25xdc80
 179 500 l 25xec80
 179 600 l 25xda
 279 600 l 25xd9
 279 700 l 25
 179 700 l 25
 179 800 l 25xda
EndSplineSet
EndChar

StartChar: Aacute
Encoding: 193 193 127
Width: 600
VWidth: 0
Flags: W
HStem: 0 0G<83 188 397 500> 200 100<188 397> 500 0G<83 188> 500 100<188 291> 700 100<397 500>
VStem: 79 100<0 209 312 521> 279 100<625 729> 379 100<0 209 312 521 729 834>
LayerCount: 2
Back
Fore
SplineSet
379 800 m 25xdd
 479 800 l 25
 479 700 l 25xdd
 379 700 l 25xde
 379 500 l 25
 479 500 l 25xdd
 479 0 l 25
 379 0 l 25
 379 200 l 25
 179 200 l 25
 179 0 l 25
 79 0 l 25
 79 500 l 25
 179 500 l 25xed
 179 300 l 25
 379 300 l 25
 379 500 l 25xdd
 179 500 l 25xed
 179 600 l 25
 279 600 l 25
 279 700 l 25
 379 700 l 25xde
 379 800 l 25xdd
EndSplineSet
EndChar

StartChar: Acircumflex
Encoding: 194 194 128
Width: 600
VWidth: 0
Flags: W
HStem: 0 0G<83 188 397 500> 200 100<188 397> 500 0G<397 500> 500 100<188 397> 600 100<83 188 397 500> 700 100<188 397>
VStem: 79 100<0 209 312 521 625 729> 179 200<521 625 729 834> 379 100<0 209 312 521 625 729>
LayerCount: 2
Back
Fore
SplineSet
79 600 m 25xca80
 79 700 l 25
 179 700 l 25xca80
 179 800 l 25
 379 800 l 25xc5
 379 700 l 25xc9
 179 700 l 25xca
 179 600 l 25xd2
 379 600 l 25xd1
 379 700 l 25xc9
 479 700 l 25
 479 600 l 25xc880
 379 600 l 25xd1
 379 500 l 25xe1
 179 500 l 25
 179 300 l 25
 379 300 l 25xd280
 379 500 l 25xe1
 479 500 l 25xe080
 479 0 l 25
 379 0 l 25
 379 200 l 25
 179 200 l 25
 179 0 l 25
 79 0 l 25
 79 500 l 25
 179 500 l 25
 179 600 l 25xd280
 79 600 l 25xca80
EndSplineSet
EndChar

StartChar: Atilde
Encoding: 195 195 129
Width: 600
VWidth: 0
Flags: W
HStem: 0 0G<83 188 397 500> 200 100<188 397> 500 0G<397 500> 500 100<188 291> 600 100<83 188> 700 100<188 291 397 500>
VStem: 79 100<0 209 312 521 625 729> 179 100<729 834> 279 100<625 729> 379 100<0 209 312 521 729 834>
LayerCount: 2
Back
Fore
SplineSet
79 600 m 25xca40
 79 700 l 25
 179 700 l 25xca40
 179 600 l 25
 279 600 l 25xd280
 279 700 l 25xd5
 179 700 l 25xca
 179 800 l 25
 279 800 l 25
 279 700 l 25xc5
 379 700 l 25xc480
 379 800 l 25
 479 800 l 25
 479 700 l 25xc440
 379 700 l 25xc480
 379 500 l 25xe440
 179 500 l 25xd240
 179 300 l 25
 379 300 l 25
 379 500 l 25
 479 500 l 25xe240
 479 0 l 25
 379 0 l 25
 379 200 l 25
 179 200 l 25
 179 0 l 25
 79 0 l 25
 79 500 l 25
 179 500 l 25
 179 600 l 25xd240
 79 600 l 25xca40
EndSplineSet
EndChar

StartChar: Adieresis
Encoding: 196 196 130
Width: 600
VWidth: 0
Flags: W
HStem: 0 0G<83 188 397 500> 200 100<188 397> 500 0G<83 188> 500 100<188 397> 700 100<83 188 397 500>
VStem: 79 100<0 209 312 521 729 834> 379 100<0 209 312 521 729 834>
LayerCount: 2
Back
Fore
SplineSet
179 600 m 25xde
 379 600 l 25
 379 500 l 25
 479 500 l 25xde
 479 0 l 25
 379 0 l 25
 379 200 l 25
 179 200 l 25
 179 0 l 25
 79 0 l 25
 79 500 l 25
 179 500 l 25xee
 179 300 l 25
 379 300 l 25
 379 500 l 25xde
 179 500 l 25xee
 179 600 l 25xde
379 800 m 25
 479 800 l 25
 479 700 l 25
 379 700 l 25
 379 800 l 25
79 800 m 25
 179 800 l 25
 179 700 l 25
 79 700 l 25
 79 800 l 25
EndSplineSet
EndChar

StartChar: Aring
Encoding: 197 197 131
Width: 600
VWidth: 0
Flags: W
HStem: 0 0G<83 188 397 500> 200 100<188 397> 500 0G<397 500> 500 100<188 291> 700 100<188 291 397 500> 900 100<291 397>
VStem: 79 100<0 209 312 521> 179 100<729 834> 279 100<625 729 834 938> 379 100<0 209 312 521 729 834>
LayerCount: 2
Back
Fore
SplineSet
179 700 m 29xd9
 279 700 l 5xd9
 279 800 l 5
 379 800 l 5xc480
 379 700 l 5xc880
 279 700 l 29
 279 600 l 29xc9
 379 600 l 29
 379 700 l 29xc880
 479 700 l 29
 479 600 l 29xc840
 379 600 l 5xc880
 379 400 l 5xe840
 179 400 l 5xd240
 179 300 l 1
 379 300 l 1
 379 400 l 5
 479 400 l 5xe240
 479 0 l 1
 379 0 l 25
 379 200 l 25
 179 200 l 25
 179 0 l 25
 79 0 l 1
 79 400 l 5
 179 400 l 5xd240
 179 500 l 5xd1
 279 500 l 29xd080
 279 600 l 29
 179 600 l 29
 179 700 l 29xd9
EndSplineSet
EndChar

StartChar: AE
Encoding: 198 198 132
Width: 600
VWidth: 0
Flags: W
HStem: 0 100<397 604> 200 100<83 291> 300 100<397 500> 500 100<83 291 397 604>
VStem: -21 100<0 209 312 521> 279 100<104 209 418 521>
LayerCount: 2
Back
Fore
SplineSet
-21 500 m 25xdc
 79 500 l 25
 79 600 l 25
 279 600 l 25
 279 500 l 25
 79 500 l 25
 79 300 l 25
 279 300 l 25xdc
 279 500 l 25
 379 500 l 25
 379 600 l 25
 579 600 l 25
 579 500 l 25
 379 500 l 25
 379 400 l 25
 479 400 l 25
 479 300 l 25
 379 300 l 25xbc
 379 100 l 25
 579 100 l 25
 579 0 l 25
 279 0 l 25
 279 200 l 25
 79 200 l 25
 79 0 l 25
 -21 0 l 25
 -21 500 l 25xdc
EndSplineSet
EndChar

StartChar: Ccedilla
Encoding: 199 199 133
Width: 600
VWidth: 0
Flags: W
HStem: -200 100<188 291> 0 100<188 291 397 500> 500 100<188 500>
VStem: 79 100<104 521> 179 300<0 104 521 625> 179 100<-209 -104> 279 100<-104 0>
LayerCount: 2
Back
Fore
SplineSet
179 600 m 25xe8
 479 600 l 25
 479 500 l 25xe8
 179 500 l 25
 179 100 l 25xf0
 479 100 l 25
 479 0 l 25xe8
 379 0 l 25
 379 -100 l 25xe2
 279 -100 l 25
 279 -200 l 25
 179 -200 l 25
 179 -100 l 25
 279 -100 l 25xe4
 279 0 l 25xe2
 179 0 l 25xe8
 179 100 l 25
 79 100 l 25
 79 500 l 25
 179 500 l 25xf0
 179 600 l 25xe8
EndSplineSet
EndChar

StartChar: Egrave
Encoding: 200 200 134
Width: 600
VWidth: 0
Flags: W
HStem: 0 100<188 500> 300 100<188 397> 500 100<188 291 397 500> 700 100<188 291>
VStem: 79 100<104 312 418 521> 179 100<729 834> 279 100<625 729>
LayerCount: 2
Back
Fore
SplineSet
179 800 m 25xf4
 279 800 l 25
 279 700 l 25xf4
 379 700 l 25
 379 600 l 25
 479 600 l 25
 479 500 l 25
 179 500 l 25
 179 400 l 25
 379 400 l 25
 379 300 l 25
 179 300 l 25
 179 100 l 25
 479 100 l 25
 479 0 l 25
 79 0 l 25
 79 600 l 25
 279 600 l 25xfa
 279 700 l 25
 179 700 l 25
 179 800 l 25xf4
EndSplineSet
EndChar

StartChar: Eacute
Encoding: 201 201 135
Width: 600
VWidth: 0
Flags: W
HStem: 0 100<188 500> 300 100<188 397> 500 100<291 500> 700 100<291 397>
VStem: 79 100<104 312 418 521> 179 100<625 729> 279 100<729 834>
LayerCount: 2
Back
Fore
SplineSet
279 800 m 25xf2
 379 800 l 25
 379 700 l 25xf2
 279 700 l 25
 279 600 l 25xf4
 479 600 l 25
 479 500 l 25
 179 500 l 25
 179 400 l 25
 379 400 l 25
 379 300 l 25
 179 300 l 25
 179 100 l 25
 479 100 l 25
 479 0 l 25
 79 0 l 25
 79 600 l 25xfa
 179 600 l 25
 179 700 l 25
 279 700 l 25xf4
 279 800 l 25xf2
EndSplineSet
EndChar

StartChar: Ecircumflex
Encoding: 202 202 136
Width: 600
VWidth: 0
Flags: W
HStem: 0 100<188 500> 300 100<188 397> 500 100<188 397> 600 100<83 188> 700 100<188 397>
VStem: 79 100<104 312 418 521 625 729> 379 100<625 729>
LayerCount: 2
Back
Fore
SplineSet
79 700 m 25xd6
 179 700 l 25xd6
 179 800 l 25
 379 800 l 25
 379 700 l 25xce
 179 700 l 25xd6
 179 600 l 25
 379 600 l 25
 379 700 l 25
 479 700 l 25
 479 500 l 25
 179 500 l 25
 179 400 l 25
 379 400 l 25
 379 300 l 25
 179 300 l 25
 179 100 l 25
 479 100 l 25
 479 0 l 25
 79 0 l 25
 79 500 l 25
 179 500 l 25
 179 600 l 25xee
 79 600 l 25
 79 700 l 25xd6
EndSplineSet
EndChar

StartChar: Edieresis
Encoding: 203 203 137
Width: 600
VWidth: 0
Flags: W
HStem: 0 100<188 500> 300 100<188 397> 500 100<188 500> 700 100<83 188 397 500>
VStem: 79 100<104 312 418 521 729 834> 379 100<729 834>
LayerCount: 2
Back
Fore
SplineSet
79 600 m 25
 479 600 l 25
 479 500 l 25
 179 500 l 25
 179 400 l 25
 379 400 l 25
 379 300 l 25
 179 300 l 25
 179 100 l 25
 479 100 l 25
 479 0 l 25
 79 0 l 25
 79 600 l 25
379 800 m 25
 479 800 l 25
 479 700 l 25
 379 700 l 25
 379 800 l 25
79 800 m 25
 179 800 l 25
 179 700 l 25
 79 700 l 25
 79 800 l 25
EndSplineSet
EndChar

StartChar: Igrave
Encoding: 204 204 138
Width: 600
VWidth: 0
Flags: W
HStem: 0 100<188 291 397 500> 500 100<188 291 397 500> 700 100<188 291>
VStem: 179 300<0 104 521 625> 179 100<729 834> 279 100<104 521 625 729>
LayerCount: 2
Back
Fore
SplineSet
179 800 m 25xe8
 279 800 l 25
 279 700 l 25xe8
 379 700 l 25
 379 600 l 25xe4
 479 600 l 25
 479 500 l 25xf0
 379 500 l 25
 379 100 l 25xe4
 479 100 l 25
 479 0 l 25
 179 0 l 25
 179 100 l 25xf0
 279 100 l 25
 279 500 l 25xe4
 179 500 l 25
 179 600 l 25xf0
 279 600 l 25xe4
 279 700 l 25
 179 700 l 25
 179 800 l 25xe8
EndSplineSet
EndChar

StartChar: Iacute
Encoding: 205 205 139
Width: 600
VWidth: 0
Flags: W
HStem: 0 100<188 291 397 500> 500 100<188 291 397 500> 700 100<397 500>
VStem: 179 300<0 104 521 625> 279 100<104 521 625 729> 379 100<729 834>
LayerCount: 2
Back
Fore
SplineSet
379 800 m 25xe4
 479 800 l 25
 479 700 l 25xe4
 379 700 l 25
 379 600 l 25xe8
 479 600 l 25
 479 500 l 25xf0
 379 500 l 25
 379 100 l 25xe8
 479 100 l 25
 479 0 l 25
 179 0 l 25
 179 100 l 25xf0
 279 100 l 25
 279 500 l 25xe8
 179 500 l 25
 179 600 l 25xf0
 279 600 l 25
 279 700 l 25
 379 700 l 25xe8
 379 800 l 25xe4
EndSplineSet
EndChar

StartChar: Icircumflex
Encoding: 206 206 140
Width: 600
VWidth: 0
Flags: W
HStem: 0 100<188 291 397 500> 400 100<188 291 397 500> 600 100<188 291 397 500> 700 100<291 397>
VStem: 179 100<625 729> 279 100<104 418 729 834> 379 100<625 729>
LayerCount: 2
Back
Fore
SplineSet
179 500 m 25xc8
 479 500 l 25
 479 400 l 25xca
 379 400 l 25
 379 100 l 25xc4
 479 100 l 25
 479 0 l 25
 179 0 l 25
 179 100 l 25xca
 279 100 l 25
 279 400 l 25xc4
 179 400 l 25
 179 500 l 25xc8
179 700 m 25xe8
 279 700 l 25xe8
 279 800 l 25
 379 800 l 25xd4
 379 700 l 25xe4
 479 700 l 25
 479 600 l 25
 379 600 l 25xe2
 379 700 l 25xe4
 279 700 l 25
 279 600 l 25
 179 600 l 25
 179 700 l 25xe8
EndSplineSet
EndChar

StartChar: Idieresis
Encoding: 207 207 141
Width: 600
VWidth: 0
Flags: W
HStem: 0 100<188 291 397 500> 500 100<188 291 397 500> 700 100<188 291 397 500>
VStem: 179 100<729 834> 379 100<729 834>
LayerCount: 2
Back
Fore
SplineSet
179 600 m 25
 479 600 l 25
 479 500 l 25
 379 500 l 25
 379 100 l 25
 479 100 l 25
 479 0 l 25
 179 0 l 25
 179 100 l 25
 279 100 l 25
 279 500 l 25
 179 500 l 25
 179 600 l 25
379 800 m 25
 479 800 l 25
 479 700 l 25
 379 700 l 25
 379 800 l 25
179 800 m 25
 279 800 l 25
 279 700 l 25
 179 700 l 25
 179 800 l 25
EndSplineSet
EndChar

StartChar: Eth
Encoding: 208 208 142
Width: 600
VWidth: 0
Flags: W
HStem: 0 100<291 500> 300 100<83 188 291 397> 500 0G<500 604> 500 100<291 500>
VStem: 179 300<0 104 521 625> 179 100<104 312 418 521> 479 100<104 521>
LayerCount: 2
Back
Fore
SplineSet
79 400 m 25xe4
 179 400 l 25xe4
 179 600 l 25
 479 600 l 25xd8
 479 500 l 25xe8
 279 500 l 25
 279 400 l 25
 379 400 l 25
 379 300 l 25
 279 300 l 25
 279 100 l 25xd4
 479 100 l 25
 479 500 l 25xe8
 579 500 l 25
 579 100 l 25xe2
 479 100 l 25
 479 0 l 25
 179 0 l 25xe8
 179 300 l 25
 79 300 l 25
 79 400 l 25xe4
EndSplineSet
EndChar

StartChar: Ntilde
Encoding: 209 209 143
Width: 600
VWidth: 0
Flags: W
HStem: 0 0G<83 188 397 500> 200 100<291 397> 300 100<188 291> 600 0G<397 500> 600 100<291 397> 700 100<188 291 397 500>
VStem: 79 100<0 312 418 729> 179 100<729 834> 279 100<625 729> 379 100<0 209 312 625 729 834>
LayerCount: 2
Back
Fore
SplineSet
79 0 m 25xa280
 79 700 l 25
 179 700 l 25xa680
 179 800 l 25
 279 800 l 25xa5
 279 700 l 25x89
 379 700 l 25x8880
 379 800 l 25
 479 800 l 25
 479 700 l 25x8440
 379 700 l 25x8880
 379 600 l 25x9080
 279 600 l 25x8880
 279 700 l 25x89
 179 700 l 25
 179 400 l 25
 279 400 l 25xa680
 279 300 l 25xc280
 379 300 l 25xc040
 379 600 l 25xd080
 479 600 l 25
 479 0 l 25
 379 0 l 25
 379 200 l 25xd040
 279 200 l 25
 279 300 l 25xd080
 179 300 l 25
 179 0 l 25
 79 0 l 25xa280
EndSplineSet
EndChar

StartChar: Ograve
Encoding: 210 210 144
Width: 600
VWidth: 0
Flags: W
HStem: 0 100<188 397> 500 0G<397 500> 500 100<188 291> 700 100<188 291>
VStem: 79 100<104 521> 179 100<729 834> 279 100<625 729> 379 100<104 521>
LayerCount: 2
Back
Fore
SplineSet
179 800 m 25xb4
 279 800 l 25
 279 700 l 25xb4
 379 700 l 25xb2
 379 500 l 25xd1
 179 500 l 25
 179 100 l 25xb9
 379 100 l 25
 379 500 l 25
 479 500 l 25
 479 100 l 25
 379 100 l 25
 379 0 l 25
 179 0 l 25xd5
 179 100 l 25
 79 100 l 25
 79 500 l 25
 179 500 l 25xb8
 179 600 l 25xb4
 279 600 l 25xb2
 279 700 l 25
 179 700 l 25
 179 800 l 25xb4
EndSplineSet
EndChar

StartChar: Oacute
Encoding: 211 211 145
Width: 600
VWidth: 0
Flags: W
HStem: 0 100<188 397> 500 0G<397 500> 500 100<291 397> 700 100<291 397>
VStem: 79 100<104 521> 179 100<625 729> 279 100<729 834> 379 100<104 521>
LayerCount: 2
Back
Fore
SplineSet
279 800 m 25xb2
 379 800 l 25
 379 700 l 25xb2
 279 700 l 25
 279 600 l 25
 379 600 l 25xb5
 379 500 l 25xd5
 179 500 l 25
 179 100 l 25xb9
 379 100 l 25
 379 500 l 25
 479 500 l 25
 479 100 l 25
 379 100 l 25
 379 0 l 25
 179 0 l 25xd5
 179 100 l 25
 79 100 l 25
 79 500 l 25
 179 500 l 25xb8
 179 700 l 25
 279 700 l 25xb4
 279 800 l 25xb2
EndSplineSet
EndChar

StartChar: Ocircumflex
Encoding: 212 212 146
Width: 600
VWidth: 0
Flags: W
HStem: 0 100<188 397> 500 0G<397 500> 500 100<188 397> 600 100<83 188 397 500> 700 100<188 397>
VStem: 79 100<104 521 625 729> 179 200<0 104 521 625 729 834> 379 100<104 521 625 729>
LayerCount: 2
Back
Fore
SplineSet
179 800 m 25x8a
 379 800 l 25x8a
 379 700 l 25x92
 179 700 l 25x94
 179 600 l 25xa4
 379 600 l 25xa2
 379 700 l 25x92
 479 700 l 25
 479 600 l 25x91
 379 600 l 25xa2
 379 500 l 25xc2
 179 500 l 25
 179 100 l 25xa4
 379 100 l 25
 379 500 l 25xc2
 479 500 l 25
 479 100 l 25xc1
 379 100 l 25
 379 0 l 25
 179 0 l 25xc2
 179 100 l 25
 79 100 l 25
 79 500 l 25
 179 500 l 25
 179 600 l 25xa4
 79 600 l 25
 79 700 l 25
 179 700 l 25x94
 179 800 l 25x8a
EndSplineSet
EndChar

StartChar: Otilde
Encoding: 213 213 147
Width: 600
VWidth: 0
Flags: W
HStem: 0 100<188 397> 500 0G<397 500> 500 100<188 291> 600 100<83 188> 700 100<188 291 397 500>
VStem: 79 100<104 521 625 729> 179 100<729 834> 279 100<625 729> 379 100<104 521 729 834>
LayerCount: 2
Back
Fore
SplineSet
79 700 m 25x94
 179 700 l 25x94
 179 600 l 25
 279 600 l 25xa5
 279 700 l 25xaa
 179 700 l 25x94
 179 800 l 25
 279 800 l 25
 279 700 l 25x8a
 379 700 l 25x89
 379 800 l 25
 479 800 l 25
 479 700 l 25x8880
 379 700 l 25x89
 379 500 l 25xc880
 179 500 l 25
 179 100 l 25xa480
 379 100 l 25
 379 500 l 25
 479 500 l 25
 479 100 l 25
 379 100 l 25
 379 0 l 25
 179 0 l 25xc280
 179 100 l 25
 79 100 l 25
 79 500 l 25
 179 500 l 25
 179 600 l 25xa4
 79 600 l 25
 79 700 l 25x94
EndSplineSet
EndChar

StartChar: Odieresis
Encoding: 214 214 148
Width: 600
VWidth: 0
Flags: W
HStem: 0 100<188 397> 500 0G<397 500> 500 100<188 397> 700 100<83 188 397 500>
VStem: 79 100<104 521 729 834> 179 200<0 104 521 625> 379 100<104 521 729 834>
LayerCount: 2
Back
Fore
SplineSet
179 600 m 25xb4
 379 600 l 25xb4
 379 500 l 25xd4
 179 500 l 25
 179 100 l 25xb8
 379 100 l 25
 379 500 l 25xd4
 479 500 l 25
 479 100 l 25xd2
 379 100 l 25
 379 0 l 25
 179 0 l 25xd4
 179 100 l 25
 79 100 l 25
 79 500 l 25
 179 500 l 25xb8
 179 600 l 25xb4
379 800 m 25x92
 479 800 l 25
 479 700 l 25
 379 700 l 25
 379 800 l 25x92
79 800 m 25x98
 179 800 l 25
 179 700 l 25
 79 700 l 25
 79 800 l 25x98
EndSplineSet
EndChar

StartChar: multiply
Encoding: 215 215 149
Width: 600
VWidth: 0
Flags: W
HStem: 200 100<188 291 397 500> 400 100<188 291 397 500>
VStem: 179 100<209 312 418 521> 379 100<209 312 418 521>
LayerCount: 2
Back
Fore
SplineSet
179 500 m 25
 279 500 l 25
 279 400 l 25
 379 400 l 25
 379 500 l 25
 479 500 l 25
 479 400 l 25
 379 400 l 25
 379 300 l 25
 479 300 l 25
 479 200 l 25
 379 200 l 25
 379 300 l 25
 279 300 l 25
 279 200 l 25
 179 200 l 25
 179 300 l 25
 279 300 l 25
 279 400 l 25
 179 400 l 25
 179 500 l 25
EndSplineSet
EndChar

StartChar: Oslash
Encoding: 216 216 150
Width: 600
VWidth: 0
Flags: W
HStem: 0 100<-21 83 188 397> 300 100<291 397> 500 100<188 397 500 604>
VStem: -21 100<0 104> 79 100<104 209 312 521> 179 200<0 104 521 625> 379 100<104 312 418 521> 479 100<521 625>
LayerCount: 2
Back
Fore
SplineSet
179 600 m 25xe4
 379 600 l 25
 379 500 l 25xe4
 179 500 l 25
 179 300 l 25
 279 300 l 25
 279 200 l 25
 179 200 l 25
 179 100 l 25xe8
 379 100 l 25xe4
 379 300 l 25
 279 300 l 25
 279 400 l 25
 379 400 l 25xe2
 379 500 l 25xe4
 479 500 l 25xe2
 479 600 l 25
 579 600 l 25
 579 500 l 25xe1
 479 500 l 25
 479 100 l 25xe2
 379 100 l 25
 379 0 l 25
 179 0 l 25xe4
 179 100 l 25xe8
 79 100 l 25
 79 0 l 25
 -21 0 l 25
 -21 100 l 25
 79 100 l 25xf0
 79 500 l 25
 179 500 l 25xe8
 179 600 l 25xe4
EndSplineSet
EndChar

StartChar: Ugrave
Encoding: 217 217 151
Width: 600
VWidth: 0
Flags: W
HStem: 0 100<188 397> 600 0G<83 188> 600 100<291 397> 700 100<188 291>
VStem: 79 100<104 625> 179 100<729 834> 279 100<625 729> 379 100<104 625>
LayerCount: 2
Back
Fore
SplineSet
179 800 m 25x94
 279 800 l 25x94
 279 700 l 25xa4
 379 700 l 25
 379 600 l 25xa2
 479 600 l 25
 479 0 l 25
 179 0 l 25xa5
 179 100 l 25
 79 100 l 25
 79 600 l 25
 179 600 l 25
 179 100 l 25
 379 100 l 25xc9
 379 600 l 25
 279 600 l 25xa2
 279 700 l 25xa4
 179 700 l 25
 179 800 l 25x94
EndSplineSet
EndChar

StartChar: Uacute
Encoding: 218 218 152
Width: 600
VWidth: 0
Flags: W
HStem: 0 100<188 397> 600 0G<397 500> 600 100<188 291> 700 100<291 397>
VStem: 79 100<104 625> 179 100<625 729> 279 100<729 834> 379 100<104 625>
LayerCount: 2
Back
Fore
SplineSet
279 800 m 25x92
 379 800 l 25
 379 700 l 25x92
 279 700 l 25
 279 600 l 25xa4
 179 600 l 25
 179 100 l 25xa8
 379 100 l 25
 379 600 l 25
 479 600 l 25
 479 0 l 25
 179 0 l 25xc5
 179 100 l 25
 79 100 l 25
 79 600 l 25
 179 600 l 25xa8
 179 700 l 25
 279 700 l 25xa4
 279 800 l 25x92
EndSplineSet
EndChar

StartChar: Ucircumflex
Encoding: 219 219 153
Width: 600
VWidth: 0
Flags: W
HStem: 0 100<188 397> 500 0G<83 188 397 500> 600 100<83 188 397 500> 700 100<188 397>
VStem: 79 100<104 521 625 729> 379 100<104 521 625 729>
LayerCount: 2
Back
Fore
SplineSet
79 500 m 25xcc
 179 500 l 25
 179 100 l 25
 379 100 l 25
 379 500 l 25
 479 500 l 25
 479 0 l 25
 179 0 l 25
 179 100 l 25
 79 100 l 25
 79 500 l 25xcc
79 700 m 25xec
 179 700 l 25xec
 179 800 l 25
 379 800 l 25xdc
 379 700 l 25
 479 700 l 25
 479 600 l 25
 379 600 l 25
 379 700 l 25
 179 700 l 25
 179 600 l 25
 79 600 l 25
 79 700 l 25xec
EndSplineSet
EndChar

StartChar: Udieresis
Encoding: 220 220 154
Width: 600
VWidth: 0
Flags: W
HStem: 0 100<188 397> 600 0G<83 188 397 500> 700 100<83 188 397 500>
VStem: 79 100<104 625 729 834> 379 100<104 625 729 834>
LayerCount: 2
Back
Fore
SplineSet
79 600 m 25
 179 600 l 25
 179 100 l 25
 379 100 l 25
 379 600 l 25
 479 600 l 25
 479 0 l 25
 179 0 l 25
 179 100 l 25
 79 100 l 25
 79 600 l 25
379 800 m 25
 479 800 l 25
 479 700 l 25
 379 700 l 25
 379 800 l 25
79 800 m 25
 179 800 l 25
 179 700 l 25
 79 700 l 25
 79 800 l 25
EndSplineSet
EndChar

StartChar: Yacute
Encoding: 221 221 155
Width: 600
VWidth: 0
Flags: W
HStem: 0 0G<291 397> 300 100<188 291 397 500> 400 200<83 188 500 604> 600 100<291 397> 700 100<397 500>
VStem: 79 100<418 625> 179 100<312 418> 279 100<0 312 625 729> 379 100<312 418 729 834> 479 100<418 625>
LayerCount: 2
Back
Fore
SplineSet
79 600 m 25xa4
 179 600 l 25xa4
 179 400 l 25xc4
 279 400 l 25
 279 300 l 25xc2
 379 300 l 25xc1
 379 400 l 25
 479 400 l 25xc080
 479 600 l 25
 579 600 l 25
 579 400 l 25xa040
 479 400 l 25
 479 300 l 25xc080
 379 300 l 25
 379 0 l 25
 279 0 l 25xc1
 279 300 l 25
 179 300 l 25xc2
 179 400 l 25xc4
 79 400 l 25
 79 600 l 25xa4
379 800 m 25x8880
 479 800 l 25
 479 700 l 25x8880
 379 700 l 25
 379 600 l 25
 279 600 l 25
 279 700 l 25
 379 700 l 25x91
 379 800 l 25x8880
EndSplineSet
EndChar

StartChar: Thorn
Encoding: 222 222 156
Width: 600
VWidth: 0
Flags: W
HStem: -100 0G<83 188> 100 100<188 397> 400 100<188 397> 700 0G<83 188>
VStem: 79 300<104 209 418 521> 79 100<-104 104 209 418 521 729> 379 100<209 418>
LayerCount: 2
Back
Fore
SplineSet
79 700 m 25xf4
 179 700 l 25
 179 500 l 25xf4
 379 500 l 25
 379 400 l 25xf8
 179 400 l 25
 179 200 l 25xf4
 379 200 l 25
 379 400 l 25xf8
 479 400 l 25
 479 200 l 25xf2
 379 200 l 25
 379 100 l 25xf8
 179 100 l 25
 179 -100 l 25
 79 -100 l 25
 79 700 l 25xf4
EndSplineSet
EndChar

StartChar: germandbls
Encoding: 223 223 157
Width: 600
VWidth: 0
Flags: W
HStem: -100 0G<83 188> 0 100<291 397> 600 100<188 291>
VStem: 79 100<-104 625> 279 100<0 104 418 625> 379 100<104 418>
LayerCount: 2
Back
Fore
SplineSet
79 600 m 25xf8
 179 600 l 25
 179 700 l 25
 379 700 l 25xf4
 379 400 l 25xf8
 479 400 l 25
 479 100 l 25xf4
 379 100 l 25
 379 0 l 25
 279 0 l 25
 279 100 l 25
 379 100 l 25
 379 400 l 25
 279 400 l 25
 279 600 l 25
 179 600 l 25
 179 -100 l 25
 79 -100 l 25
 79 600 l 25xf8
EndSplineSet
EndChar

StartChar: agrave
Encoding: 224 224 158
Width: 600
VWidth: 0
Flags: W
HStem: 0 100<188 397 500 604> 400 100<188 397> 600 100<291 397> 700 100<188 291>
VStem: 79 100<104 418> 179 100<729 834> 279 100<625 729> 379 100<104 418> 479 100<0 104>
LayerCount: 2
Back
Fore
SplineSet
79 400 m 25xc8
 179 400 l 25xc8
 179 500 l 25
 479 500 l 25xc480
 479 100 l 25xc1
 579 100 l 25
 579 0 l 25
 479 0 l 25xc080
 479 100 l 25
 379 100 l 25
 379 400 l 25
 179 400 l 25
 179 100 l 25xc9
 379 100 l 25
 379 0 l 25
 179 0 l 25xc5
 179 100 l 25
 79 100 l 25
 79 400 l 25xc8
179 800 m 25xd4
 279 800 l 25xd4
 279 700 l 25xe4
 379 700 l 25
 379 600 l 25
 279 600 l 25xe2
 279 700 l 25xe4
 179 700 l 25
 179 800 l 25xd4
EndSplineSet
EndChar

StartChar: aacute
Encoding: 225 225 159
Width: 600
VWidth: 0
Flags: W
HStem: 0 100<188 397 500 604> 400 100<188 397> 600 100<291 397> 700 100<397 500>
VStem: 79 100<104 418> 279 100<625 729> 379 100<104 418 729 834> 479 100<0 104>
LayerCount: 2
Back
Fore
SplineSet
179 500 m 25xca
 479 500 l 25xc9
 479 100 l 25xca
 579 100 l 25
 579 0 l 25
 479 0 l 25xc9
 479 100 l 25
 379 100 l 25
 379 400 l 25
 179 400 l 25
 179 100 l 25
 379 100 l 25
 379 0 l 25
 179 0 l 25
 179 100 l 25
 79 100 l 25
 79 400 l 25
 179 400 l 25
 179 500 l 25xca
279 700 m 25xec
 379 700 l 25xec
 379 800 l 25
 479 800 l 25
 479 700 l 25xda
 379 700 l 25
 379 600 l 25
 279 600 l 25
 279 700 l 25xec
EndSplineSet
EndChar

StartChar: acircumflex
Encoding: 226 226 160
Width: 600
VWidth: 0
Flags: W
HStem: 0 100<188 397 500 604> 400 100<188 397> 600 100<188 291 397 500> 700 100<291 397>
VStem: 79 100<104 418> 179 100<625 729> 279 100<729 834> 379 100<104 418 625 729> 479 100<0 104>
LayerCount: 2
Back
Fore
SplineSet
79 400 m 25xc8
 179 400 l 25xc8
 179 500 l 25
 479 500 l 25xc480
 479 100 l 25xc1
 579 100 l 25
 579 0 l 25
 479 0 l 25xc080
 479 100 l 25
 379 100 l 25
 379 400 l 25
 179 400 l 25
 179 100 l 25xc9
 379 100 l 25
 379 0 l 25
 179 0 l 25xc5
 179 100 l 25
 79 100 l 25
 79 400 l 25xc8
179 700 m 25xe4
 279 700 l 25xe4
 279 800 l 25
 379 800 l 25xd2
 379 700 l 25xe2
 479 700 l 25
 479 600 l 25
 379 600 l 25xe1
 379 700 l 25xe2
 279 700 l 25
 279 600 l 25
 179 600 l 25
 179 700 l 25xe4
EndSplineSet
EndChar

StartChar: atilde
Encoding: 227 227 161
Width: 600
VWidth: 0
Flags: W
HStem: 0 100<188 397 500 604> 400 100<188 397> 600 100<83 188 291 397> 700 100<188 291 397 500>
VStem: 79 100<104 418 625 729> 179 100<729 834> 279 100<625 729> 379 100<104 418 729 834> 479 100<0 104>
LayerCount: 2
Back
Fore
SplineSet
79 400 m 25xc8
 179 400 l 25xc8
 179 500 l 25
 479 500 l 25xc480
 479 100 l 25xc1
 579 100 l 25
 579 0 l 25
 479 0 l 25xc080
 479 100 l 25
 379 100 l 25
 379 400 l 25
 179 400 l 25
 179 100 l 25xc9
 379 100 l 25
 379 0 l 25
 179 0 l 25xc5
 179 100 l 25
 79 100 l 25
 79 400 l 25xc8
79 700 m 25xe8
 179 700 l 25xe8
 179 800 l 25
 279 800 l 25xd4
 279 700 l 25xe4
 379 700 l 25xe2
 379 800 l 25
 479 800 l 25
 479 700 l 25xd1
 379 700 l 25
 379 600 l 25
 279 600 l 25xe2
 279 700 l 25xe4
 179 700 l 25
 179 600 l 25
 79 600 l 25
 79 700 l 25xe8
EndSplineSet
EndChar

StartChar: adieresis
Encoding: 228 228 162
Width: 600
VWidth: 0
Flags: W
HStem: 0 100<188 397 500 604> 400 100<188 397> 600 100<188 291 397 500>
VStem: 79 100<104 418> 179 100<625 729> 379 100<104 418 625 729> 479 100<0 104>
LayerCount: 2
Back
Fore
SplineSet
79 400 m 25xf0
 179 400 l 25xf0
 179 500 l 25
 479 500 l 25xea
 479 100 l 25xe4
 579 100 l 25
 579 0 l 25
 479 0 l 25xe2
 479 100 l 25
 379 100 l 25
 379 400 l 25
 179 400 l 25
 179 100 l 25xf4
 379 100 l 25
 379 0 l 25
 179 0 l 25xec
 179 100 l 25
 79 100 l 25
 79 400 l 25xf0
379 700 m 25xe4
 479 700 l 25
 479 600 l 25
 379 600 l 25
 379 700 l 25xe4
179 700 m 25xe8
 279 700 l 25
 279 600 l 25
 179 600 l 25
 179 700 l 25xe8
EndSplineSet
EndChar

StartChar: aring
Encoding: 229 229 163
Width: 600
VWidth: 0
Flags: W
HStem: 0 100<188 397 500 604> 400 100<188 291> 600 100<188 291 397 500> 700 100<291 397>
VStem: 79 100<104 418> 179 100<625 729> 279 100<521 625 729 834> 379 100<104 418 625 729> 479 100<0 104>
LayerCount: 2
Back
Fore
SplineSet
179 700 m 25xe4
 279 700 l 25xe4
 279 800 l 25
 379 800 l 25xd2
 379 700 l 25xe2
 279 700 l 25
 279 600 l 25xe4
 379 600 l 25
 379 700 l 25xe2
 479 700 l 25
 479 600 l 25xe1
 379 600 l 25
 379 500 l 25
 479 500 l 25xe280
 479 100 l 25xe1
 579 100 l 25
 579 0 l 25
 479 0 l 25xe080
 479 100 l 25
 379 100 l 25
 379 400 l 25
 179 400 l 25
 179 100 l 25xe9
 379 100 l 25
 379 0 l 25
 179 0 l 25xe5
 179 100 l 25
 79 100 l 25
 79 400 l 25
 179 400 l 25xe8
 179 500 l 25xe4
 279 500 l 25xe2
 279 600 l 25
 179 600 l 25
 179 700 l 25xe4
EndSplineSet
EndChar

StartChar: ae
Encoding: 230 230 164
Width: 600
VWidth: 0
Flags: W
HStem: 0 100<83 291 397 604> 100 100<-21 83> 200 100<83 291 397 500> 400 100<83 291 397 500>
VStem: -21 100<104 209> 279 100<104 209 312 418> 479 100<312 418>
LayerCount: 2
Back
Fore
SplineSet
79 500 m 25x3e
 479 500 l 25
 479 400 l 25
 379 400 l 25
 379 300 l 25
 479 300 l 25
 479 400 l 25
 579 400 l 25
 579 200 l 25
 379 200 l 25
 379 100 l 25
 579 100 l 25
 579 0 l 25
 379 0 l 25
 379 100 l 25
 279 100 l 25
 279 0 l 25
 79 0 l 25
 79 100 l 25
 279 100 l 25
 279 200 l 25xbe
 79 200 l 25x5e
 79 100 l 25x9e
 -21 100 l 25
 -21 200 l 25
 79 200 l 25x5e
 79 300 l 25
 279 300 l 25
 279 400 l 25
 79 400 l 25
 79 500 l 25x3e
EndSplineSet
EndChar

StartChar: ccedilla
Encoding: 231 231 165
Width: 600
VWidth: 0
Flags: W
HStem: -200 100<188 291> 0 100<188 291 397 500> 400 100<188 500>
VStem: 79 100<104 418> 179 300<0 104 418 521> 179 100<-209 -104> 279 100<-104 0>
LayerCount: 2
Back
Fore
SplineSet
179 500 m 25xe8
 479 500 l 25
 479 400 l 25xe8
 179 400 l 25
 179 100 l 25xf0
 479 100 l 25
 479 0 l 25xe8
 379 0 l 25
 379 -100 l 25xe2
 279 -100 l 25
 279 -200 l 25
 179 -200 l 25
 179 -100 l 25
 279 -100 l 25xe4
 279 0 l 25xe2
 179 0 l 25xe8
 179 100 l 25
 79 100 l 25
 79 400 l 25
 179 400 l 25xf0
 179 500 l 25xe8
EndSplineSet
EndChar

StartChar: egrave
Encoding: 232 232 166
Width: 600
VWidth: 0
Flags: W
HStem: 0 100<188 500> 200 100<188 397> 400 100<188 397> 600 100<291 397> 700 100<188 291>
VStem: 79 100<104 209 312 418> 179 100<729 834> 279 100<625 729> 379 100<312 418>
LayerCount: 2
Back
Fore
SplineSet
179 500 m 25xe2
 379 500 l 25
 379 400 l 25
 179 400 l 25
 179 300 l 25
 379 300 l 25
 379 400 l 25
 479 400 l 25
 479 200 l 25
 179 200 l 25
 179 100 l 25xe480
 479 100 l 25
 479 0 l 25
 179 0 l 25xe280
 179 100 l 25
 79 100 l 25
 79 400 l 25
 179 400 l 25xe4
 179 500 l 25xe2
179 800 m 25xea
 279 800 l 25xea
 279 700 l 25xf2
 379 700 l 25
 379 600 l 25
 279 600 l 25xf1
 279 700 l 25xf2
 179 700 l 25
 179 800 l 25xea
EndSplineSet
EndChar

StartChar: eacute
Encoding: 233 233 167
Width: 600
VWidth: 0
Flags: W
HStem: 0 100<188 500> 200 100<188 397> 400 100<188 397> 600 100<188 291> 700 100<291 397>
VStem: 79 100<104 209 312 418> 179 100<625 729> 279 100<729 834> 379 100<312 418>
LayerCount: 2
Back
Fore
SplineSet
179 500 m 25xe2
 379 500 l 25
 379 400 l 25
 179 400 l 25
 179 300 l 25
 379 300 l 25
 379 400 l 25
 479 400 l 25
 479 200 l 25
 179 200 l 25
 179 100 l 25xe480
 479 100 l 25
 479 0 l 25
 179 0 l 25xe280
 179 100 l 25
 79 100 l 25
 79 400 l 25
 179 400 l 25xe4
 179 500 l 25xe2
179 700 m 25xf2
 279 700 l 25xf2
 279 800 l 25
 379 800 l 25
 379 700 l 25xe9
 279 700 l 25
 279 600 l 25
 179 600 l 25
 179 700 l 25xf2
EndSplineSet
EndChar

StartChar: ecircumflex
Encoding: 234 234 168
Width: 600
VWidth: 0
Flags: W
HStem: 0 100<188 500> 200 100<188 397> 400 100<188 397> 600 100<83 188 397 500> 700 100<188 397>
VStem: 79 100<104 209 312 418 625 729> 179 200<418 521 729 834> 379 100<312 418 625 729>
LayerCount: 2
Back
Fore
SplineSet
179 500 m 25xe2
 379 500 l 25
 379 400 l 25xe2
 179 400 l 25
 179 300 l 25
 379 300 l 25xe5
 379 400 l 25xe2
 479 400 l 25
 479 200 l 25
 179 200 l 25
 179 100 l 25
 479 100 l 25
 479 0 l 25xe5
 179 0 l 25xe2
 179 100 l 25
 79 100 l 25
 79 400 l 25
 179 400 l 25xe4
 179 500 l 25xe2
79 700 m 25xf4
 179 700 l 25xf4
 179 800 l 25
 379 800 l 25xea
 379 700 l 25xf2
 479 700 l 25
 479 600 l 25
 379 600 l 25xf1
 379 700 l 25xf2
 179 700 l 25
 179 600 l 25
 79 600 l 25
 79 700 l 25xf4
EndSplineSet
EndChar

StartChar: edieresis
Encoding: 235 235 169
Width: 600
VWidth: 0
Flags: W
HStem: 0 100<188 500> 200 100<188 397> 400 100<188 397> 600 100<83 188 397 500>
VStem: 79 100<104 209 312 418 625 729> 379 100<312 418 625 729>
LayerCount: 2
Back
Fore
SplineSet
179 500 m 25
 379 500 l 25
 379 400 l 25
 179 400 l 25
 179 300 l 25
 379 300 l 25
 379 400 l 25
 479 400 l 25
 479 200 l 25
 179 200 l 25
 179 100 l 25
 479 100 l 25
 479 0 l 25
 179 0 l 25
 179 100 l 25
 79 100 l 25
 79 400 l 25
 179 400 l 25
 179 500 l 25
379 700 m 25
 479 700 l 25
 479 600 l 25
 379 600 l 25
 379 700 l 25
79 700 m 25
 179 700 l 25
 179 600 l 25
 79 600 l 25
 79 700 l 25
EndSplineSet
EndChar

StartChar: igrave
Encoding: 236 236 170
Width: 600
VWidth: 0
Flags: W
HStem: 0 0G<291 397> 500 0G<291 397> 600 100<291 397> 700 100<188 291>
VStem: 179 100<729 834> 279 100<0 521 625 729>
LayerCount: 2
Back
Fore
SplineSet
279 500 m 25xc4
 379 500 l 25
 379 0 l 25
 279 0 l 25
 279 500 l 25xc4
179 800 m 25xd8
 279 800 l 25xd8
 279 700 l 25xe8
 379 700 l 25
 379 600 l 25
 279 600 l 25xe4
 279 700 l 25xe8
 179 700 l 25
 179 800 l 25xd8
EndSplineSet
EndChar

StartChar: iacute
Encoding: 237 237 171
Width: 600
VWidth: 0
Flags: W
HStem: 0 0G<291 397> 500 0G<291 397> 600 100<291 397> 700 100<397 500>
VStem: 279 100<0 521 625 729> 379 100<729 834>
LayerCount: 2
Back
Fore
SplineSet
279 500 m 25xc8
 379 500 l 25
 379 0 l 25
 279 0 l 25
 279 500 l 25xc8
379 800 m 25xd4
 479 800 l 25
 479 700 l 25xd4
 379 700 l 25
 379 600 l 25
 279 600 l 25
 279 700 l 25
 379 700 l 25xe8
 379 800 l 25xd4
EndSplineSet
EndChar

StartChar: icircumflex
Encoding: 238 238 172
Width: 600
VWidth: 0
Flags: W
HStem: 0 0G<291 397> 500 0G<291 397> 600 100<188 291 397 500> 700 100<291 397>
VStem: 179 100<625 729> 279 100<0 521 729 834> 379 100<625 729>
LayerCount: 2
Back
Fore
SplineSet
279 500 m 25xc4
 379 500 l 25
 379 0 l 25
 279 0 l 25
 279 500 l 25xc4
179 700 m 25xe8
 279 700 l 25xe8
 279 800 l 25
 379 800 l 25xd4
 379 700 l 25xe4
 479 700 l 25
 479 600 l 25
 379 600 l 25xe2
 379 700 l 25xe4
 279 700 l 25
 279 600 l 25
 179 600 l 25
 179 700 l 25xe8
EndSplineSet
EndChar

StartChar: idieresis
Encoding: 239 239 173
Width: 600
VWidth: 0
Flags: W
HStem: 0 0G<291 397> 500 0G<291 397> 600 100<188 291 397 500>
VStem: 179 100<625 729> 279 100<0 521> 379 100<625 729>
LayerCount: 2
Back
Fore
SplineSet
279 500 m 25xe8
 379 500 l 25
 379 0 l 25
 279 0 l 25
 279 500 l 25xe8
379 700 m 25xe4
 479 700 l 25
 479 600 l 25
 379 600 l 25
 379 700 l 25xe4
179 700 m 25xf0
 279 700 l 25
 279 600 l 25
 179 600 l 25
 179 700 l 25xf0
EndSplineSet
EndChar

StartChar: eth
Encoding: 240 240 174
Width: 600
VWidth: 0
Flags: W
HStem: 0 100<188 397> 100 100<83 188> 200 100<188 397> 400 100<291 397> 500 100<500 604> 600 100<291 397>
VStem: 79 100<104 209> 279 100<625 729> 379 100<104 209 312 418>
LayerCount: 2
Back
Fore
SplineSet
279 700 m 25x37
 379 700 l 25
 379 600 l 25x37
 579 600 l 25
 579 500 l 25
 479 500 l 25
 479 100 l 25x4a80
 379 100 l 25
 379 200 l 25xa280
 179 200 l 25x4280
 179 100 l 25
 379 100 l 25
 379 0 l 25
 179 0 l 25
 179 100 l 25x8280
 79 100 l 25
 79 200 l 25
 179 200 l 25x4280
 179 300 l 25
 379 300 l 25
 379 400 l 25x3280
 279 400 l 25
 279 500 l 25x33
 379 500 l 25x3280
 379 600 l 25
 279 600 l 25
 279 700 l 25x37
EndSplineSet
EndChar

StartChar: ntilde
Encoding: 241 241 175
Width: 600
VWidth: 0
Flags: W
HStem: 0 0G<83 188 397 500> 400 100<188 397> 600 100<83 188 291 397> 700 100<188 291 397 500>
VStem: 79 100<0 418 625 729> 279 100<625 729> 379 100<0 418 729 834>
LayerCount: 2
Back
Fore
SplineSet
79 500 m 25xca
 379 500 l 25
 379 400 l 25
 479 400 l 25
 479 0 l 25
 379 0 l 25
 379 400 l 25
 179 400 l 25
 179 0 l 25
 79 0 l 25
 79 500 l 25xca
79 700 m 25xec
 179 700 l 25xec
 179 800 l 25
 279 800 l 25xdc
 279 700 l 25
 379 700 l 25xec
 379 800 l 25
 479 800 l 25
 479 700 l 25xda
 379 700 l 25
 379 600 l 25
 279 600 l 25
 279 700 l 25
 179 700 l 25
 179 600 l 25
 79 600 l 25
 79 700 l 25xec
EndSplineSet
EndChar

StartChar: ograve
Encoding: 242 242 176
Width: 600
VWidth: 0
Flags: W
HStem: 0 100<188 397> 100 300<83 188 397 500> 400 100<188 291> 600 100<188 291>
VStem: 79 100<104 418> 179 100<625 729> 279 100<521 625> 379 100<104 418>
LayerCount: 2
Back
Fore
SplineSet
179 700 m 25x34
 279 700 l 25
 279 600 l 25x34
 379 600 l 25x32
 379 400 l 25
 179 400 l 25x59
 179 100 l 25
 379 100 l 25x99
 379 400 l 25
 479 400 l 25
 479 100 l 25x59
 379 100 l 25
 379 0 l 25
 179 0 l 25x95
 179 100 l 25x98
 79 100 l 25
 79 400 l 25
 179 400 l 25x58
 179 500 l 25x34
 279 500 l 25x32
 279 600 l 25
 179 600 l 25
 179 700 l 25x34
EndSplineSet
EndChar

StartChar: oacute
Encoding: 243 243 177
Width: 600
VWidth: 0
Flags: W
HStem: 0 100<188 397> 100 300<83 188 397 500> 400 100<291 397> 600 100<291 397>
VStem: 79 100<104 418> 179 100<521 625> 279 100<625 729> 379 100<104 418>
LayerCount: 2
Back
Fore
SplineSet
379 700 m 25x52
 379 600 l 25x52
 279 600 l 25
 279 500 l 25
 379 500 l 25x35
 379 400 l 25
 179 400 l 25x59
 179 100 l 25
 379 100 l 25x99
 379 400 l 25
 479 400 l 25
 479 100 l 25x59
 379 100 l 25
 379 0 l 25
 179 0 l 25x95
 179 100 l 25x98
 79 100 l 25
 79 400 l 25
 179 400 l 25x58
 179 600 l 25
 279 600 l 25x54
 279 700 l 25
 379 700 l 25x52
EndSplineSet
EndChar

StartChar: ocircumflex
Encoding: 244 244 178
Width: 600
VWidth: 0
Flags: W
HStem: 0 100<188 397> 100 300<83 188 397 500> 400 100<188 397> 600 100<83 188 397 500> 700 100<188 397>
VStem: 79 100<104 418 625 729> 179 200<0 104 418 521 729 834> 379 100<104 418 625 729>
LayerCount: 2
Back
Fore
SplineSet
179 500 m 25x22
 379 500 l 25x22
 379 400 l 25x42
 179 400 l 25x44
 179 100 l 25x84
 379 100 l 25x82
 379 400 l 25x42
 479 400 l 25
 479 100 l 25x41
 379 100 l 25
 379 0 l 25
 179 0 l 25x82
 179 100 l 25x84
 79 100 l 25
 79 400 l 25
 179 400 l 25x44
 179 500 l 25x22
79 700 m 25x14
 179 700 l 25x14
 179 800 l 25
 379 800 l 25x0a
 379 700 l 25x12
 479 700 l 25
 479 600 l 25
 379 600 l 25x11
 379 700 l 25x12
 179 700 l 25
 179 600 l 25
 79 600 l 25
 79 700 l 25x14
EndSplineSet
EndChar

StartChar: otilde
Encoding: 245 245 179
Width: 600
VWidth: 0
Flags: W
HStem: 0 100<188 397> 100 300<83 188 397 500> 400 100<188 397> 600 100<83 188 291 397> 700 100<188 291 397 500>
VStem: 79 100<104 418 625 729> 179 100<729 834> 279 100<625 729> 379 100<104 418 729 834>
LayerCount: 2
Back
Fore
SplineSet
179 500 m 25x22
 379 500 l 25x2280
 379 400 l 25
 179 400 l 25x4480
 179 100 l 25
 379 100 l 25x8480
 379 400 l 25
 479 400 l 25
 479 100 l 25x4480
 379 100 l 25
 379 0 l 25
 179 0 l 25x8280
 179 100 l 25x84
 79 100 l 25
 79 400 l 25
 179 400 l 25x44
 179 500 l 25x22
79 700 m 25x14
 179 700 l 25x14
 179 800 l 25
 279 800 l 25x0a
 279 700 l 25x12
 379 700 l 25x11
 379 800 l 25
 479 800 l 25
 479 700 l 25x0880
 379 700 l 25
 379 600 l 25
 279 600 l 25x11
 279 700 l 25x12
 179 700 l 25
 179 600 l 25
 79 600 l 25
 79 700 l 25x14
EndSplineSet
EndChar

StartChar: odieresis
Encoding: 246 246 180
Width: 600
VWidth: 0
Flags: W
HStem: 0 100<188 397> 100 300<83 188 397 500> 400 100<188 397> 600 100<83 188 397 500>
VStem: 79 100<104 418 625 729> 179 200<0 104 418 521> 379 100<104 418 625 729>
LayerCount: 2
Back
Fore
SplineSet
179 500 m 25x34
 379 500 l 25x34
 379 400 l 25x54
 179 400 l 25x58
 179 100 l 25x98
 379 100 l 25x94
 379 400 l 25x54
 479 400 l 25
 479 100 l 25x52
 379 100 l 25
 379 0 l 25
 179 0 l 25x94
 179 100 l 25x98
 79 100 l 25
 79 400 l 25
 179 400 l 25x58
 179 500 l 25x34
379 700 m 25x12
 479 700 l 25
 479 600 l 25
 379 600 l 25
 379 700 l 25x12
79 700 m 25x18
 179 700 l 25
 179 600 l 25
 79 600 l 25
 79 700 l 25x18
EndSplineSet
EndChar

StartChar: divide
Encoding: 247 247 181
Width: 600
VWidth: 0
Flags: W
HStem: 100 100<291 397> 300 100<83 604> 500 100<291 397>
VStem: 279 100<104 209 521 625>
CounterMasks: 1 e0
LayerCount: 2
Back
Fore
SplineSet
279 200 m 25
 379 200 l 25
 379 100 l 25
 279 100 l 25
 279 200 l 25
79 400 m 25
 579 400 l 25
 579 300 l 25
 79 300 l 25
 79 400 l 25
279 600 m 25
 379 600 l 25
 379 500 l 25
 279 500 l 25
 279 600 l 25
EndSplineSet
EndChar

StartChar: oslash
Encoding: 248 248 182
Width: 600
VWidth: 0
Flags: W
HStem: -100 100<-21 83> 0 100<188 397> 200 100<188 397> 400 100<188 397> 500 100<500 604>
VStem: -21 100<-104 0> 79 100<104 209 312 418> 379 100<104 209 312 418> 479 100<521 625>
LayerCount: 2
Back
Fore
SplineSet
179 500 m 25xb3
 479 500 l 25
 479 600 l 25
 579 600 l 25
 579 500 l 25
 479 500 l 25x2a80
 479 100 l 25
 379 100 l 25
 379 200 l 25
 179 200 l 25
 179 100 l 25
 379 100 l 25
 379 0 l 25x6b
 79 0 l 25
 79 -100 l 25
 -21 -100 l 25
 -21 0 l 25
 79 0 l 25xa5
 79 400 l 25
 179 400 l 25
 179 300 l 25
 379 300 l 25
 379 400 l 25
 179 400 l 25
 179 500 l 25xb3
EndSplineSet
EndChar

StartChar: ugrave
Encoding: 249 249 183
Width: 600
VWidth: 0
Flags: W
HStem: 0 100<188 397> 500 0G<83 188 397 500> 600 100<291 397> 700 100<188 291>
VStem: 79 100<104 521> 179 100<729 834> 279 100<625 729> 379 100<104 521>
LayerCount: 2
Back
Fore
SplineSet
379 500 m 25xc9
 479 500 l 25
 479 0 l 25
 179 0 l 25xc5
 179 100 l 25
 79 100 l 25
 79 500 l 25
 179 500 l 25
 179 100 l 25
 379 100 l 25
 379 500 l 25xc9
179 800 m 25xd4
 279 800 l 25xd4
 279 700 l 25xe4
 379 700 l 25
 379 600 l 25
 279 600 l 25xe2
 279 700 l 25xe4
 179 700 l 25
 179 800 l 25xd4
EndSplineSet
EndChar

StartChar: uacute
Encoding: 250 250 184
Width: 600
VWidth: 0
Flags: W
HStem: 0 100<188 397> 500 0G<83 188 397 500> 600 100<188 291> 700 100<291 397>
VStem: 79 100<104 521> 179 100<625 729> 279 100<729 834> 379 100<104 521>
LayerCount: 2
Back
Fore
SplineSet
379 500 m 25xc9
 479 500 l 25
 479 0 l 25
 179 0 l 25xc5
 179 100 l 25
 79 100 l 25
 79 500 l 25
 179 500 l 25
 179 100 l 25
 379 100 l 25
 379 500 l 25xc9
179 700 m 25xe4
 279 700 l 25xe4
 279 800 l 25
 379 800 l 25
 379 700 l 25xd2
 279 700 l 25
 279 600 l 25
 179 600 l 25
 179 700 l 25xe4
EndSplineSet
EndChar

StartChar: ucircumflex
Encoding: 251 251 185
Width: 600
VWidth: 0
Flags: W
HStem: 0 100<188 397> 500 0G<83 188 397 500> 600 100<83 188 397 500> 700 100<188 397>
VStem: 79 100<104 521 625 729> 379 100<104 521 625 729>
LayerCount: 2
Back
Fore
SplineSet
379 500 m 25xcc
 479 500 l 25
 479 0 l 25
 179 0 l 25
 179 100 l 25
 79 100 l 25
 79 500 l 25
 179 500 l 25
 179 100 l 25
 379 100 l 25
 379 500 l 25xcc
79 700 m 25xec
 179 700 l 25xec
 179 800 l 25
 379 800 l 25xdc
 379 700 l 25
 479 700 l 25
 479 600 l 25
 379 600 l 25
 379 700 l 25
 179 700 l 25
 179 600 l 25
 79 600 l 25
 79 700 l 25xec
EndSplineSet
EndChar

StartChar: udieresis
Encoding: 252 252 186
Width: 600
VWidth: 0
Flags: W
HStem: 0 100<188 397> 500 0G<83 188 397 500> 600 100<83 188 397 500>
VStem: 79 100<104 521 625 729> 379 100<104 521 625 729>
LayerCount: 2
Back
Fore
SplineSet
379 500 m 25
 479 500 l 25
 479 0 l 25
 179 0 l 25
 179 100 l 25
 79 100 l 25
 79 500 l 25
 179 500 l 25
 179 100 l 25
 379 100 l 25
 379 500 l 25
379 700 m 25
 479 700 l 25
 479 600 l 25
 379 600 l 25
 379 700 l 25
79 700 m 25
 179 700 l 25
 179 600 l 25
 79 600 l 25
 79 700 l 25
EndSplineSet
EndChar

StartChar: yacute
Encoding: 253 253 187
Width: 600
VWidth: 0
Flags: W
HStem: -100 100<188 397> 100 100<188 397> 500 0G<397 500> 500 100<188 291> 600 100<291 397>
VStem: 79 100<209 521> 179 100<521 625> 279 100<625 729> 379 100<0 104 209 521>
LayerCount: 2
Back
Fore
SplineSet
279 700 m 25xc9
 379 700 l 25
 379 600 l 25xc9
 279 600 l 25
 279 500 l 25xd2
 179 500 l 25
 179 200 l 25xd4
 379 200 l 25
 379 500 l 25
 479 500 l 25
 479 0 l 25
 379 0 l 25
 379 -100 l 25
 179 -100 l 25
 179 0 l 25
 379 0 l 25
 379 100 l 25
 179 100 l 25xe280
 179 200 l 25
 79 200 l 25
 79 500 l 25
 179 500 l 25xd4
 179 600 l 25
 279 600 l 25xd2
 279 700 l 25xc9
EndSplineSet
EndChar

StartChar: thorn
Encoding: 254 254 188
Width: 600
VWidth: 0
Flags: W
HStem: -100 0G<83 188> 100 100<188 397> 200 100<397 500> 600 0G<83 188>
VStem: 79 300<104 209 312 418> 79 100<-104 104 209 312 418 625> 379 100<209 312>
LayerCount: 2
Back
Fore
SplineSet
79 600 m 25xd4
 179 600 l 25
 179 400 l 25xd4
 379 400 l 25
 379 300 l 25xb8
 179 300 l 25xb4
 179 200 l 25xd4
 379 200 l 25xd8
 379 300 l 25xb8
 479 300 l 25
 479 200 l 25xb2
 379 200 l 25
 379 100 l 25xd8
 179 100 l 25
 179 -100 l 25
 79 -100 l 25
 79 600 l 25xd4
EndSplineSet
EndChar

StartChar: ydieresis
Encoding: 255 255 189
Width: 600
VWidth: 0
Flags: W
HStem: -100 100<188 397> 100 100<188 397> 500 0G<83 188 397 500> 600 100<83 188 397 500>
VStem: 79 100<209 521 625 729> 379 100<0 104 209 521 625 729>
LayerCount: 2
Back
Fore
SplineSet
79 500 m 25
 179 500 l 25
 179 200 l 25
 379 200 l 25
 379 500 l 25
 479 500 l 25
 479 0 l 25
 379 0 l 25
 379 -100 l 25
 179 -100 l 25
 179 0 l 25
 379 0 l 25
 379 100 l 25
 179 100 l 25
 179 200 l 25
 79 200 l 25
 79 500 l 25
379 700 m 25
 479 700 l 25
 479 600 l 25
 379 600 l 25
 379 700 l 25
79 700 m 25
 179 700 l 25
 179 600 l 25
 79 600 l 25
 79 700 l 25
EndSplineSet
EndChar

StartChar: uni0185
Encoding: 270 389 262
Width: 600
VWidth: 0
Flags: W
LayerCount: 2
Back
SplineSet
0 8.10546875 m 29
 6.15234375 8.10546875 l 25
 6.15234375 -2.05078125 l 25
 0 -2.05078125 l 25
 0 8.10546875 l 29
EndSplineSet
EndChar

StartChar: pi
Encoding: 402 960 401
Width: 600
VWidth: 0
Flags: W
HStem: 0 100<397 500> 400 100<-21 83 188 291 397 500>
VStem: 79 100<0 418> 279 100<104 418> 379 100<0 104>
LayerCount: 2
Back
Fore
SplineSet
-21 500 m 25xf0
 479 500 l 25
 479 400 l 25xe8
 379 400 l 25
 379 100 l 25xf0
 479 100 l 25
 479 0 l 25
 379 0 l 25xe8
 379 100 l 25
 279 100 l 25
 279 400 l 25
 179 400 l 25
 179 0 l 25
 79 0 l 25
 79 400 l 25
 -21 400 l 25
 -21 500 l 25xf0
EndSplineSet
EndChar

StartChar: arrowup
Encoding: 403 8593 402
Width: 600
VWidth: 0
Flags: W
HStem: 0 0G<291 397> 400 100<83 188 500 604> 500 100<188 291 397 500> 700 0G<291 397>
VStem: 79 100<418 521> 279 100<0 521 625 729> 479 100<418 521>
CounterMasks: 1 0e
LayerCount: 2
Back
Fore
SplineSet
79 500 m 25xde
 179 500 l 25xde
 179 600 l 25
 279 600 l 25
 279 700 l 25
 379 700 l 25
 379 600 l 25
 479 600 l 25xbe
 479 500 l 25
 579 500 l 25
 579 400 l 25
 479 400 l 25
 479 500 l 25xde
 379 500 l 25
 379 0 l 25
 279 0 l 25
 279 500 l 25xbe
 179 500 l 25
 179 400 l 25
 79 400 l 25
 79 500 l 25xde
EndSplineSet
EndChar

StartChar: arrowdown
Encoding: 404 8595 403
Width: 600
VWidth: 0
Flags: W
HStem: 0 0G<291 397> 100 100<188 291 397 500> 200 100<83 188 500 604> 700 0G<291 397>
VStem: 79 100<209 312> 279 100<0 104 209 729> 479 100<209 312>
CounterMasks: 1 0e
LayerCount: 2
Back
Fore
SplineSet
279 700 m 25xde
 379 700 l 25
 379 200 l 25
 479 200 l 25xde
 479 300 l 25
 579 300 l 25
 579 200 l 25xbe
 479 200 l 25
 479 100 l 25
 379 100 l 25
 379 0 l 25
 279 0 l 25
 279 100 l 25
 179 100 l 25
 179 200 l 25xde
 79 200 l 25
 79 300 l 25
 179 300 l 25xbe
 179 200 l 25
 279 200 l 25
 279 700 l 25xde
EndSplineSet
EndChar

StartChar: lessequal
Encoding: 405 8804 404
Width: 600
VWidth: 0
Flags: W
HStem: -200 100<188 291> -100 100<83 188> 0 100<-21 83 291 397> 100 100<188 291> 200 100<83 188> 400 100<83 188> 500 100<188 291> 600 100<291 397>
VStem: -21 100<0 104 312 418> 79 100<-104 0 209 312 418 521> 179 100<-209 -104 104 209 521 625> 279 100<0 104 625 729>
LayerCount: 2
Back
Fore
SplineSet
-21 100 m 25x2080
 79 100 l 25x2080
 79 0 l 25x4080
 179 0 l 25x4040
 179 -100 l 25x8040
 279 -100 l 25
 279 -200 l 25
 179 -200 l 25x8020
 179 -100 l 25x8040
 79 -100 l 25x4040
 79 0 l 25x4080
 -21 0 l 25
 -21 100 l 25x2080
279 700 m 25x0110
 379 700 l 25
 379 600 l 25x0110
 279 600 l 25
 279 500 l 25x0220
 179 500 l 25
 179 400 l 25x0440
 79 400 l 25
 79 300 l 25x0c80
 179 300 l 25x0c40
 179 200 l 25x1040
 279 200 l 25x1020
 279 100 l 25x2020
 379 100 l 25
 379 0 l 25
 279 0 l 25x2010
 279 100 l 25x2020
 179 100 l 25x1020
 179 200 l 25x1040
 79 200 l 25x0840
 79 300 l 25
 -21 300 l 25
 -21 400 l 25
 79 400 l 25x0c80
 79 500 l 25
 179 500 l 25x0c40
 179 600 l 25
 279 600 l 25x0220
 279 700 l 25x0110
EndSplineSet
EndChar

StartChar: greaterequal
Encoding: 406 8805 405
Width: 600
VWidth: 0
Flags: W
HStem: -200 100<188 291> -100 100<291 397> 0 100<83 188 397 500> 100 100<188 291> 200 100<291 397> 400 100<291 397> 500 100<188 291> 600 100<83 188>
VStem: 79 100<0 104 625 729> 179 100<-209 -104 104 209 521 625> 279 100<-104 0 209 312 418 521> 379 100<0 104 312 418>
LayerCount: 2
Back
Fore
SplineSet
379 100 m 25x2010
 479 100 l 25
 479 0 l 25x2010
 379 0 l 25
 379 -100 l 25x4020
 279 -100 l 25
 279 -200 l 25
 179 -200 l 25
 179 -100 l 25
 279 -100 l 25x8040
 279 0 l 25
 379 0 l 25x4020
 379 100 l 25x2010
79 700 m 25x0180
 179 700 l 25x0180
 179 600 l 25x0280
 279 600 l 25x0240
 279 500 l 25x0440
 379 500 l 25
 379 400 l 25x0420
 479 400 l 25
 479 300 l 25x0c10
 379 300 l 25
 379 200 l 25x0c20
 279 200 l 25
 279 100 l 25x1040
 179 100 l 25
 179 0 l 25
 79 0 l 25
 79 100 l 25
 179 100 l 25x2080
 179 200 l 25
 279 200 l 25x1040
 279 300 l 25
 379 300 l 25
 379 400 l 25
 279 400 l 25x0c20
 279 500 l 25x0c40
 179 500 l 25x0240
 179 600 l 25x0280
 79 600 l 25
 79 700 l 25x0180
EndSplineSet
EndChar

StartChar: SF100000
Encoding: 407 9472 406
Width: 600
VWidth: 0
Flags: W
HStem: 300 100<-21 604>
LayerCount: 2
Back
Fore
SplineSet
-21 400 m 25
 579 400 l 25
 579 300 l 25
 -21 300 l 25
 -21 400 l 25
EndSplineSet
EndChar

StartChar: uni2501
Encoding: 408 9473 407
Width: 600
VWidth: 0
Flags: W
HStem: 200 200<-21 604>
LayerCount: 2
Back
Fore
SplineSet
-21 400 m 25
 579 400 l 25
 579 200 l 25
 -21 200 l 25
 -21 400 l 25
EndSplineSet
EndChar

StartChar: SF110000
Encoding: 409 9474 408
Width: 600
VWidth: 0
Flags: W
VStem: 179 100<-209 834>
LayerCount: 2
Back
Fore
SplineSet
179 800 m 1
 279 800 l 5
 279 -200 l 1
 179 -200 l 1
 179 800 l 1
EndSplineSet
EndChar

StartChar: uni2503
Encoding: 410 9475 409
Width: 600
VWidth: 0
Flags: W
VStem: 179 200<-209 834>
LayerCount: 2
Back
Fore
SplineSet
179 800 m 1
 379 800 l 5
 379 -200 l 1
 179 -200 l 1
 179 800 l 1
EndSplineSet
EndChar

StartChar: uni2504
Encoding: 411 9476 410
Width: 600
VWidth: 0
Flags: W
HStem: 300 100<-21 83 188 291 397 500>
VStem: -21 100<312 418> 179 100<312 418> 379 100<312 418>
CounterMasks: 1 70
LayerCount: 2
Back
Fore
SplineSet
479 300 m 25
 379 300 l 25
 379 400 l 25
 479 400 l 25
 479 300 l 25
279 400 m 25
 279 300 l 25
 179 300 l 25
 179 400 l 25
 279 400 l 25
-21 400 m 25
 79 400 l 25
 79 300 l 25
 -21 300 l 25
 -21 400 l 25
EndSplineSet
EndChar

StartChar: uni2505
Encoding: 412 9477 411
Width: 600
VWidth: 0
Flags: W
HStem: 200 200<-21 83 188 291 397 500>
VStem: -21 100<209 418> 179 100<209 418> 379 100<209 418>
CounterMasks: 1 70
LayerCount: 2
Back
Fore
SplineSet
379 400 m 25
 479 400 l 25
 479 200 l 25
 379 200 l 25
 379 400 l 25
179 400 m 25
 279 400 l 25
 279 200 l 25
 179 200 l 25
 179 400 l 25
-21 400 m 25
 79 400 l 25
 79 200 l 25
 -21 200 l 25
 -21 400 l 25
EndSplineSet
EndChar

StartChar: uni2506
Encoding: 413 9478 412
Width: 600
VWidth: 0
Flags: W
HStem: 0 0G<188 291> 500 0G<188 291> 600 0G<188 291>
VStem: 179 100<-209 0 104 521 625 834>
LayerCount: 2
Back
Fore
SplineSet
179 0 m 25
 279 0 l 25
 279 -200 l 25
 179 -200 l 25
 179 0 l 25
179 500 m 25
 279 500 l 25
 279 100 l 25
 179 100 l 25
 179 500 l 25
179 800 m 1
 279 800 l 5
 279 600 l 1
 179 600 l 1
 179 800 l 1
EndSplineSet
EndChar

StartChar: uni2507
Encoding: 414 9479 413
Width: 600
VWidth: 0
Flags: W
HStem: -200 200<188 397> 500 0G<188 397> 600 200<188 397>
VStem: 179 200<-209 0 104 521 625 834>
LayerCount: 2
Back
Fore
SplineSet
179 0 m 25
 379 0 l 25
 379 -200 l 25
 179 -200 l 25
 179 0 l 25
179 500 m 25
 379 500 l 25
 379 100 l 25
 179 100 l 25
 179 500 l 25
179 800 m 1
 379 800 l 5
 379 600 l 1
 179 600 l 1
 179 800 l 1
EndSplineSet
EndChar

StartChar: uni2508
Encoding: 415 9480 414
Width: 600
VWidth: 0
Flags: W
HStem: 300 100<-21 83 188 291 397 500>
VStem: -21 100<312 418> 179 100<312 418> 379 100<312 418>
CounterMasks: 1 70
LayerCount: 2
Back
Fore
SplineSet
379 400 m 25
 479 400 l 25
 479 300 l 25
 379 300 l 25
 379 400 l 25
179 400 m 25
 279 400 l 25
 279 300 l 25
 179 300 l 25
 179 400 l 25
-21 400 m 25
 79 400 l 25
 79 300 l 25
 -21 300 l 25
 -21 400 l 25
EndSplineSet
EndChar

StartChar: uni2509
Encoding: 416 9481 415
Width: 600
VWidth: 0
Flags: W
HStem: 200 200<-21 83 188 291 397 500>
VStem: -21 100<209 418> 179 100<209 418> 379 100<209 418>
CounterMasks: 1 70
LayerCount: 2
Back
Fore
SplineSet
379 400 m 25
 479 400 l 25
 479 200 l 25
 379 200 l 25
 379 400 l 25
179 400 m 25
 279 400 l 25
 279 200 l 25
 179 200 l 25
 179 400 l 25
-21 400 m 25
 79 400 l 25
 79 200 l 25
 -21 200 l 25
 -21 400 l 25
EndSplineSet
EndChar

StartChar: uni250A
Encoding: 417 9482 416
Width: 600
VWidth: 0
Flags: W
HStem: -200 100<188 291> 0 0G<188 291> 500 0G<188 291> 600 0G<188 291>
VStem: 179 100<-209 -104 0 209 312 521 625 834>
LayerCount: 2
Back
Fore
SplineSet
179 -100 m 25
 279 -100 l 25
 279 -200 l 25
 179 -200 l 25
 179 -100 l 25
179 200 m 25
 279 200 l 25
 279 0 l 25
 179 0 l 25
 179 200 l 25
179 500 m 25
 279 500 l 25
 279 300 l 25
 179 300 l 25
 179 500 l 25
179 800 m 1
 279 800 l 5
 279 600 l 1
 179 600 l 1
 179 800 l 1
EndSplineSet
EndChar

StartChar: uni250B
Encoding: 418 9483 417
Width: 600
VWidth: 0
Flags: W
HStem: -200 100<188 397> 0 200<188 397> 300 200<188 397> 600 200<188 397>
VStem: 179 200<-209 -104 0 209 312 521 625 834>
LayerCount: 2
Back
Fore
SplineSet
179 -100 m 25
 379 -100 l 25
 379 -200 l 25
 179 -200 l 25
 179 -100 l 25
179 200 m 25
 379 200 l 25
 379 0 l 25
 179 0 l 25
 179 200 l 25
179 500 m 25
 379 500 l 25
 379 300 l 25
 179 300 l 25
 179 500 l 25
179 800 m 1
 379 800 l 5
 379 600 l 1
 179 600 l 1
 179 800 l 1
EndSplineSet
EndChar

StartChar: SF010000
Encoding: 419 9484 418
Width: 600
VWidth: 0
Flags: W
HStem: 300 100<291 604>
VStem: 179 100<-209 312>
LayerCount: 2
Back
Fore
SplineSet
179 400 m 25
 579 400 l 25
 579 300 l 25
 279 300 l 25
 279 -200 l 25
 179 -200 l 25
 179 400 l 25
EndSplineSet
EndChar

StartChar: uni250D
Encoding: 420 9485 419
Width: 600
VWidth: 0
Flags: W
HStem: 200 200<291 604>
VStem: 179 100<-209 209>
LayerCount: 2
Back
Fore
SplineSet
179 400 m 25
 579 400 l 25
 579 200 l 25
 279 200 l 25
 279 -200 l 25
 179 -200 l 25
 179 400 l 25
EndSplineSet
EndChar

StartChar: uni250E
Encoding: 421 9486 420
Width: 600
VWidth: 0
Flags: W
HStem: 300 100<397 604>
VStem: 179 200<-209 312>
LayerCount: 2
Back
Fore
SplineSet
179 400 m 25
 579 400 l 25
 579 300 l 25
 379 300 l 25
 379 -200 l 25
 179 -200 l 25
 179 400 l 25
EndSplineSet
EndChar

StartChar: uni250F
Encoding: 422 9487 421
Width: 600
VWidth: 0
Flags: W
HStem: 200 200<397 604>
VStem: 179 200<-209 209>
LayerCount: 2
Back
Fore
SplineSet
179 400 m 25
 579 400 l 25
 579 200 l 25
 379 200 l 25
 379 -200 l 25
 179 -200 l 25
 179 400 l 25
EndSplineSet
EndChar

StartChar: SF030000
Encoding: 423 9488 422
Width: 600
VWidth: 0
Flags: W
HStem: 300 100<-21 188>
VStem: 179 100<-209 312>
LayerCount: 2
Back
Fore
SplineSet
-21 400 m 25
 279 400 l 25
 279 -200 l 25
 179 -200 l 25
 179 300 l 25
 -21 300 l 25
 -21 400 l 25
EndSplineSet
EndChar

StartChar: uni2511
Encoding: 424 9489 423
Width: 600
VWidth: 0
Flags: W
HStem: 200 200<-21 188>
VStem: -21 300<209 418> 179 100<-209 209>
LayerCount: 2
Back
Fore
SplineSet
-21 400 m 25xc0
 279 400 l 25xc0
 279 -200 l 25
 179 -200 l 25
 179 200 l 25xa0
 -21 200 l 25
 -21 400 l 25xc0
EndSplineSet
EndChar

StartChar: uni2512
Encoding: 425 9490 424
Width: 600
VWidth: 0
Flags: W
HStem: 300 100<-21 188>
VStem: 179 200<-209 312>
LayerCount: 2
Back
Fore
SplineSet
-21 400 m 25
 379 400 l 25
 379 -200 l 25
 179 -200 l 25
 179 300 l 25
 -21 300 l 25
 -21 400 l 25
EndSplineSet
EndChar

StartChar: uni2513
Encoding: 426 9491 425
Width: 600
VWidth: 0
Flags: W
HStem: 200 200<-21 188>
VStem: 179 200<-209 209>
LayerCount: 2
Back
Fore
SplineSet
-21 400 m 25
 379 400 l 25
 379 -200 l 25
 179 -200 l 25
 179 200 l 25
 -21 200 l 25
 -21 400 l 25
EndSplineSet
EndChar

StartChar: SF020000
Encoding: 427 9492 426
Width: 600
VWidth: 0
Flags: W
HStem: 300 100<291 604>
VStem: 179 100<418 834>
LayerCount: 2
Back
Fore
SplineSet
179 800 m 5
 279 800 l 1
 279 400 l 1
 579 400 l 25
 579 300 l 25
 179 300 l 1
 179 800 l 5
EndSplineSet
EndChar

StartChar: uni2515
Encoding: 428 9493 427
Width: 600
VWidth: 0
Flags: W
HStem: 200 200<291 604>
VStem: 179 100<418 834>
LayerCount: 2
Back
Fore
SplineSet
179 800 m 1
 279 800 l 5
 279 400 l 1
 579 400 l 25
 579 200 l 25
 179 200 l 1
 179 800 l 1
EndSplineSet
EndChar

StartChar: uni2516
Encoding: 429 9494 428
Width: 600
VWidth: 0
Flags: W
HStem: 300 100<397 604>
VStem: 179 200<418 834>
LayerCount: 2
Back
Fore
SplineSet
179 800 m 1
 379 800 l 5
 379 400 l 1
 579 400 l 25
 579 300 l 25
 179 300 l 1
 179 800 l 1
EndSplineSet
EndChar

StartChar: uni2517
Encoding: 430 9495 429
Width: 600
VWidth: 0
Flags: W
HStem: 200 200<397 604>
VStem: 179 200<418 834>
LayerCount: 2
Back
Fore
SplineSet
179 800 m 1
 379 800 l 5
 379 400 l 1
 579 400 l 25
 579 200 l 25
 179 200 l 1
 179 800 l 1
EndSplineSet
EndChar

StartChar: SF040000
Encoding: 431 9496 430
Width: 600
VWidth: 0
Flags: W
HStem: 300 100<-21 188>
VStem: 179 100<418 834>
LayerCount: 2
Back
Fore
SplineSet
179 800 m 1
 279 800 l 5
 279 300 l 1
 -21 300 l 25
 -21 400 l 25
 179 400 l 1
 179 800 l 1
EndSplineSet
EndChar

StartChar: uni2519
Encoding: 432 9497 431
Width: 600
VWidth: 0
Flags: W
HStem: 200 200<-21 188>
VStem: -21 300<209 418> 179 100<418 834>
LayerCount: 2
Back
Fore
SplineSet
179 800 m 1xa0
 279 800 l 5xa0
 279 200 l 1
 -21 200 l 25
 -21 400 l 25xc0
 179 400 l 1
 179 800 l 1xa0
EndSplineSet
EndChar

StartChar: uni251A
Encoding: 433 9498 432
Width: 600
VWidth: 0
Flags: W
HStem: 300 100<-21 188>
VStem: 179 200<418 834>
LayerCount: 2
Back
Fore
SplineSet
179 800 m 1
 379 800 l 5
 379 300 l 1
 -21 300 l 25
 -21 400 l 25
 179 400 l 1
 179 800 l 1
EndSplineSet
EndChar

StartChar: uni251B
Encoding: 434 9499 433
Width: 600
VWidth: 0
Flags: W
HStem: 200 200<-21 188>
VStem: 179 200<418 834>
LayerCount: 2
Back
Fore
SplineSet
179 800 m 5
 379 800 l 1
 379 200 l 1
 -21 200 l 25
 -21 400 l 25
 179 400 l 1
 179 800 l 5
EndSplineSet
EndChar

StartChar: SF080000
Encoding: 435 9500 434
Width: 600
VWidth: 0
Flags: W
HStem: 300 100<291 604>
VStem: 179 100<-209 312 418 834>
LayerCount: 2
Back
Fore
SplineSet
179 800 m 1
 279 800 l 5
 279 400 l 1
 579 400 l 25
 579 300 l 25
 279 300 l 25
 279 -200 l 25
 179 -200 l 1
 179 800 l 1
EndSplineSet
EndChar

StartChar: uni251D
Encoding: 436 9501 435
Width: 600
VWidth: 0
Flags: W
HStem: 200 200<291 604>
VStem: 179 100<-209 209 418 834>
LayerCount: 2
Back
Fore
SplineSet
179 800 m 1
 279 800 l 5
 279 400 l 1
 579 400 l 25
 579 200 l 25
 279 200 l 25
 279 -200 l 25
 179 -200 l 1
 179 800 l 1
EndSplineSet
EndChar

StartChar: uni251E
Encoding: 437 9502 436
Width: 600
VWidth: 0
Flags: W
HStem: 300 100<397 604>
VStem: 179 200<418 834> 179 100<-209 312>
LayerCount: 2
Back
Fore
SplineSet
179 800 m 1xc0
 379 800 l 5
 379 400 l 1xc0
 579 400 l 25
 579 300 l 25
 279 300 l 25
 279 -200 l 25
 179 -200 l 1xa0
 179 800 l 1xc0
EndSplineSet
EndChar

StartChar: uni251F
Encoding: 438 9503 437
Width: 600
VWidth: 0
Flags: W
HStem: 300 100<397 604>
VStem: 179 200<-209 312> 179 100<418 834>
LayerCount: 2
Back
Fore
SplineSet
179 800 m 1xa0
 279 800 l 5
 279 400 l 1xa0
 579 400 l 25
 579 300 l 25
 379 300 l 25
 379 -200 l 25
 179 -200 l 1xc0
 179 800 l 1xa0
EndSplineSet
EndChar

StartChar: uni2520
Encoding: 439 9504 438
Width: 600
VWidth: 0
Flags: W
HStem: 300 100<397 604>
VStem: 179 200<-209 312 418 834>
LayerCount: 2
Back
Fore
SplineSet
179 800 m 1
 379 800 l 5
 379 400 l 1
 579 400 l 25
 579 300 l 25
 379 300 l 25
 379 -200 l 25
 179 -200 l 1
 179 800 l 1
EndSplineSet
EndChar

StartChar: uni2521
Encoding: 440 9505 439
Width: 600
VWidth: 0
Flags: W
HStem: 200 200<397 604>
VStem: 179 200<418 834> 179 100<-209 209>
LayerCount: 2
Back
Fore
SplineSet
179 800 m 1xc0
 379 800 l 5
 379 400 l 1xc0
 579 400 l 25
 579 200 l 25
 279 200 l 25
 279 -200 l 25
 179 -200 l 1xa0
 179 800 l 1xc0
EndSplineSet
EndChar

StartChar: uni2522
Encoding: 441 9506 440
Width: 600
VWidth: 0
Flags: W
HStem: 200 200<397 604>
VStem: 179 200<-209 209> 179 100<418 834>
LayerCount: 2
Back
Fore
SplineSet
179 800 m 1xa0
 279 800 l 5
 279 400 l 1xa0
 579 400 l 25
 579 200 l 25
 379 200 l 25
 379 -200 l 25
 179 -200 l 1xc0
 179 800 l 1xa0
EndSplineSet
EndChar

StartChar: uni2523
Encoding: 442 9507 441
Width: 600
VWidth: 0
Flags: W
HStem: 200 200<397 604>
VStem: 179 200<-209 209 418 834>
LayerCount: 2
Back
Fore
SplineSet
179 800 m 29
 379 800 l 29
 379 400 l 1
 579 400 l 25
 579 200 l 25
 379 200 l 25
 379 -200 l 25
 179 -200 l 1
 179 800 l 29
EndSplineSet
EndChar

StartChar: SF090000
Encoding: 443 9508 442
Width: 600
VWidth: 0
Flags: W
HStem: 300 100<-21 188>
VStem: 179 100<-209 312 418 834>
LayerCount: 2
Back
Fore
SplineSet
179 800 m 1
 279 800 l 5
 279 -200 l 1
 179 -200 l 25
 179 300 l 25
 -21 300 l 25
 -21 400 l 25
 179 400 l 1
 179 800 l 1
EndSplineSet
EndChar

StartChar: uni2525
Encoding: 444 9509 443
Width: 600
VWidth: 0
Flags: W
HStem: 200 200<-21 188>
VStem: -21 300<209 418> 179 100<-209 209 418 834>
LayerCount: 2
Back
Fore
SplineSet
179 800 m 1xa0
 279 800 l 5
 279 -200 l 1
 179 -200 l 25
 179 200 l 25xa0
 -21 200 l 25
 -21 400 l 25xc0
 179 400 l 1
 179 800 l 1xa0
EndSplineSet
EndChar

StartChar: uni2526
Encoding: 445 9510 444
Width: 600
VWidth: 0
Flags: W
HStem: 300 100<-21 188>
VStem: 179 200<418 834> 179 100<-209 312>
LayerCount: 2
Back
Fore
SplineSet
179 800 m 1xc0
 379 800 l 5
 379 400 l 1xc0
 279 400 l 25
 279 -200 l 25
 179 -200 l 25
 179 300 l 25xa0
 -21 300 l 25
 -21 400 l 25
 179 400 l 1
 179 800 l 1xc0
EndSplineSet
EndChar

StartChar: uni2527
Encoding: 446 9511 445
Width: 600
VWidth: 0
Flags: W
HStem: 300 100<-21 188>
VStem: 179 200<-209 312> 179 100<418 834>
LayerCount: 2
Back
Fore
SplineSet
179 800 m 1xa0
 279 800 l 5
 279 300 l 1xa0
 379 300 l 25
 379 -200 l 25
 179 -200 l 25
 179 300 l 25xc0
 -21 300 l 25
 -21 400 l 25
 179 400 l 1
 179 800 l 1xa0
EndSplineSet
EndChar

StartChar: uni2528
Encoding: 447 9512 446
Width: 600
VWidth: 0
Flags: W
HStem: 300 100<-21 188>
VStem: 179 200<-209 312 418 834>
LayerCount: 2
Back
Fore
SplineSet
179 800 m 1
 379 800 l 5
 379 -200 l 1
 179 -200 l 25
 179 300 l 25
 -21 300 l 25
 -21 400 l 25
 179 400 l 1
 179 800 l 1
EndSplineSet
EndChar

StartChar: uni2529
Encoding: 448 9513 447
Width: 600
VWidth: 0
Flags: W
HStem: 200 200<-21 188>
VStem: 179 200<418 834> 179 100<-209 209>
LayerCount: 2
Back
Fore
SplineSet
179 800 m 1xc0
 379 800 l 5
 379 200 l 1xc0
 279 200 l 25
 279 -200 l 25
 179 -200 l 25
 179 200 l 25xa0
 -21 200 l 25
 -21 400 l 25
 179 400 l 1
 179 800 l 1xc0
EndSplineSet
EndChar

StartChar: uni252A
Encoding: 449 9514 448
Width: 600
VWidth: 0
Flags: W
HStem: 200 200<-21 188>
VStem: 179 200<-209 209> 179 100<418 834>
LayerCount: 2
Back
Fore
SplineSet
179 800 m 29xa0
 279 800 l 29
 279 400 l 1xa0
 379 400 l 25
 379 -200 l 25
 179 -200 l 25
 179 200 l 25xc0
 -21 200 l 25
 -21 400 l 25
 179 400 l 1
 179 800 l 29xa0
EndSplineSet
EndChar

StartChar: uni252B
Encoding: 450 9515 449
Width: 600
VWidth: 0
Flags: W
HStem: 200 200<-21 188>
VStem: 179 200<-209 209 418 834>
LayerCount: 2
Back
Fore
SplineSet
179 800 m 29
 379 800 l 29
 379 -200 l 1
 179 -200 l 25
 179 200 l 25
 -21 200 l 25
 -21 400 l 25
 179 400 l 1
 179 800 l 29
EndSplineSet
EndChar

StartChar: SF060000
Encoding: 451 9516 450
Width: 600
VWidth: 0
Flags: W
HStem: 300 100<-21 188 291 604>
VStem: 179 100<-209 312>
LayerCount: 2
Back
Fore
SplineSet
-21 400 m 25
 579 400 l 25
 579 300 l 25
 279 300 l 25
 279 -200 l 25
 179 -200 l 25
 179 300 l 25
 -21 300 l 25
 -21 400 l 25
EndSplineSet
EndChar

StartChar: uni252D
Encoding: 452 9517 451
Width: 600
VWidth: 0
Flags: W
HStem: 200 200<-21 188> 300 100<291 604>
VStem: 179 100<-209 209>
LayerCount: 2
Back
Fore
SplineSet
-21 400 m 25xa0
 579 400 l 25
 579 300 l 25
 279 300 l 25x60
 279 -200 l 25
 179 -200 l 25
 179 200 l 25
 -21 200 l 25
 -21 400 l 25xa0
EndSplineSet
EndChar

StartChar: uni252E
Encoding: 453 9518 452
Width: 600
VWidth: 0
Flags: W
HStem: 200 200<291 604> 300 100<-21 188>
VStem: 179 100<-209 209>
LayerCount: 2
Back
Fore
SplineSet
-21 400 m 25x60
 579 400 l 25
 579 200 l 25
 279 200 l 25xa0
 279 -200 l 25
 179 -200 l 25
 179 300 l 25
 -21 300 l 25
 -21 400 l 25x60
EndSplineSet
EndChar

StartChar: uni252F
Encoding: 454 9519 453
Width: 600
VWidth: 0
Flags: W
HStem: 200 200<-21 188 291 604>
VStem: 179 100<-209 209>
LayerCount: 2
Back
Fore
SplineSet
-21 400 m 25
 579 400 l 25
 579 200 l 25
 279 200 l 25
 279 -200 l 25
 179 -200 l 25
 179 200 l 25
 -21 200 l 25
 -21 400 l 25
EndSplineSet
EndChar

StartChar: uni2530
Encoding: 455 9520 454
Width: 600
VWidth: 0
Flags: W
HStem: 300 100<-21 188 397 604>
VStem: 179 200<-209 312>
LayerCount: 2
Back
Fore
SplineSet
-21 400 m 25
 579 400 l 25
 579 300 l 25
 379 300 l 25
 379 -200 l 25
 179 -200 l 25
 179 300 l 25
 -21 300 l 25
 -21 400 l 25
EndSplineSet
EndChar

StartChar: uni2531
Encoding: 456 9521 455
Width: 600
VWidth: 0
Flags: W
HStem: 200 200<-21 188> 300 100<397 604>
VStem: 179 200<-209 209>
LayerCount: 2
Back
Fore
SplineSet
-21 400 m 25xa0
 579 400 l 25
 579 300 l 25
 379 300 l 25x60
 379 -200 l 25
 179 -200 l 25
 179 200 l 25
 -21 200 l 25
 -21 400 l 25xa0
EndSplineSet
EndChar

StartChar: uni2532
Encoding: 457 9522 456
Width: 600
VWidth: 0
Flags: W
HStem: 200 200<397 604> 300 100<-21 188>
VStem: 179 200<-209 209>
LayerCount: 2
Back
Fore
SplineSet
-21 400 m 1x60
 579 400 l 1
 579 200 l 1
 379 200 l 1xa0
 379 -200 l 1
 179 -200 l 1
 179 300 l 1
 -21 300 l 1
 -21 400 l 1x60
EndSplineSet
EndChar

StartChar: uni2533
Encoding: 458 9523 457
Width: 600
VWidth: 0
Flags: W
HStem: 200 200<-21 188 397 604>
VStem: 179 200<-209 209>
LayerCount: 2
Back
Fore
SplineSet
-21 400 m 25
 579 400 l 25
 579 200 l 25
 379 200 l 25
 379 -200 l 25
 179 -200 l 25
 179 200 l 25
 -21 200 l 25
 -21 400 l 25
EndSplineSet
EndChar

StartChar: SF070000
Encoding: 459 9524 458
Width: 600
VWidth: 0
Flags: W
HStem: 300 100<-21 188 291 604>
VStem: 179 100<418 834>
LayerCount: 2
Back
Fore
SplineSet
-21 400 m 25
 179 400 l 1
 179 800 l 29
 279 800 l 29
 279 400 l 1
 579 400 l 25
 579 300 l 25
 -21 300 l 25
 -21 400 l 25
EndSplineSet
EndChar

StartChar: uni2535
Encoding: 460 9525 459
Width: 600
VWidth: 0
Flags: W
HStem: 200 200<-21 188> 300 100<291 604>
VStem: 179 100<418 834>
LayerCount: 2
Back
Fore
SplineSet
179 800 m 29xa0
 279 800 l 29
 279 400 l 1
 579 400 l 25
 579 300 l 25
 179 300 l 25x60
 179 200 l 25
 -21 200 l 25
 -21 400 l 25
 179 400 l 1
 179 800 l 29xa0
EndSplineSet
EndChar

StartChar: uni2536
Encoding: 461 9526 460
Width: 600
VWidth: 0
Flags: W
HStem: 200 200<291 604> 300 100<-21 188>
VStem: 179 100<418 834>
LayerCount: 2
Back
Fore
SplineSet
179 800 m 1x60
 279 800 l 5
 279 400 l 1
 579 400 l 25
 579 200 l 25
 279 200 l 25xa0
 279 300 l 25
 -21 300 l 25
 -21 400 l 25
 179 400 l 1
 179 800 l 1x60
EndSplineSet
EndChar

StartChar: uni2537
Encoding: 462 9527 461
Width: 600
VWidth: 0
Flags: W
HStem: 200 200<-21 188 291 604>
VStem: 179 100<418 834>
LayerCount: 2
Back
Fore
SplineSet
179 800 m 29
 279 800 l 29
 279 400 l 1
 579 400 l 25
 579 200 l 25
 -21 200 l 25
 -21 400 l 25
 179 400 l 1
 179 800 l 29
EndSplineSet
EndChar

StartChar: uni2538
Encoding: 463 9528 462
Width: 600
VWidth: 0
Flags: W
HStem: 300 100<-21 188 397 604>
VStem: 179 200<418 834>
LayerCount: 2
Back
Fore
SplineSet
179 800 m 29
 379 800 l 29
 379 400 l 1
 579 400 l 25
 579 300 l 25
 -21 300 l 25
 -21 400 l 25
 179 400 l 1
 179 800 l 29
EndSplineSet
EndChar

StartChar: uni2539
Encoding: 464 9529 463
Width: 600
VWidth: 0
Flags: W
HStem: 200 200<-21 188> 300 100<397 604>
VStem: 179 200<418 834>
LayerCount: 2
Back
Fore
SplineSet
179 800 m 29xa0
 379 800 l 29
 379 400 l 1
 579 400 l 25
 579 300 l 25
 279 300 l 25x60
 279 200 l 25
 -21 200 l 25
 -21 400 l 25
 179 400 l 1
 179 800 l 29xa0
EndSplineSet
EndChar

StartChar: uni253A
Encoding: 465 9530 464
Width: 600
VWidth: 0
Flags: W
HStem: 200 200<397 604> 300 100<-21 188>
VStem: 179 200<418 834>
LayerCount: 2
Back
Fore
SplineSet
179 800 m 1x60
 379 800 l 5
 379 400 l 1
 579 400 l 25
 579 200 l 25
 279 200 l 25xa0
 279 300 l 25
 -21 300 l 25
 -21 400 l 25
 179 400 l 1
 179 800 l 1x60
EndSplineSet
EndChar

StartChar: uni253B
Encoding: 466 9531 465
Width: 600
VWidth: 0
Flags: W
HStem: 200 200<-21 188 397 604>
VStem: 179 200<418 834>
LayerCount: 2
Back
Fore
SplineSet
179 800 m 1
 379 800 l 5
 379 400 l 1
 579 400 l 25
 579 200 l 25
 -21 200 l 25
 -21 400 l 25
 179 400 l 1
 179 800 l 1
EndSplineSet
EndChar

StartChar: SF050000
Encoding: 467 9532 466
Width: 600
VWidth: 0
Flags: W
HStem: 300 100<-21 188 291 604>
VStem: 179 100<-209 312 418 834>
LayerCount: 2
Back
Fore
SplineSet
179 800 m 1
 279 800 l 5
 279 400 l 1
 579 400 l 25
 579 300 l 25
 279 300 l 25
 279 -200 l 25
 179 -200 l 25
 179 300 l 25
 -21 300 l 25
 -21 400 l 25
 179 400 l 1
 179 800 l 1
EndSplineSet
EndChar

StartChar: uni253D
Encoding: 468 9533 467
Width: 600
VWidth: 0
Flags: W
HStem: 200 200<-21 188> 300 100<291 604>
VStem: 179 100<-209 209 418 834>
LayerCount: 2
Back
Fore
SplineSet
179 800 m 1xa0
 279 800 l 5
 279 400 l 1
 579 400 l 25
 579 300 l 25
 279 300 l 25x60
 279 -200 l 25
 179 -200 l 25
 179 200 l 25
 -21 200 l 25
 -21 400 l 25
 179 400 l 1
 179 800 l 1xa0
EndSplineSet
EndChar

StartChar: uni253E
Encoding: 469 9534 468
Width: 600
VWidth: 0
Flags: W
HStem: 200 200<291 604> 300 100<-21 188>
VStem: 179 100<-209 209 418 834>
LayerCount: 2
Back
Fore
SplineSet
179 800 m 1x60
 279 800 l 5
 279 400 l 1
 579 400 l 25
 579 200 l 25
 279 200 l 25xa0
 279 -200 l 25
 179 -200 l 25
 179 300 l 25
 -21 300 l 25
 -21 400 l 25
 179 400 l 1
 179 800 l 1x60
EndSplineSet
EndChar

StartChar: uni253F
Encoding: 470 9535 469
Width: 600
VWidth: 0
Flags: W
HStem: 200 200<-21 188 291 604>
VStem: 179 100<-209 209 418 834>
LayerCount: 2
Back
Fore
SplineSet
179 800 m 1
 279 800 l 5
 279 400 l 1
 579 400 l 25
 579 200 l 25
 279 200 l 25
 279 -200 l 25
 179 -200 l 25
 179 200 l 25
 -21 200 l 25
 -21 400 l 25
 179 400 l 1
 179 800 l 1
EndSplineSet
EndChar

StartChar: uni2540
Encoding: 471 9536 470
Width: 600
VWidth: 0
Flags: W
HStem: 300 100<-21 188 397 604>
VStem: 179 200<418 834> 179 100<-209 312>
LayerCount: 2
Back
Fore
SplineSet
179 800 m 1xc0
 379 800 l 5
 379 400 l 1xc0
 579 400 l 25
 579 300 l 25
 279 300 l 25
 279 -200 l 25
 179 -200 l 25
 179 300 l 25xa0
 -21 300 l 25
 -21 400 l 25
 179 400 l 1
 179 800 l 1xc0
EndSplineSet
EndChar

StartChar: uni2541
Encoding: 472 9537 471
Width: 600
VWidth: 0
Flags: W
HStem: 300 100<-21 188 397 604>
VStem: 179 200<-209 312> 179 100<418 834>
LayerCount: 2
Back
Fore
SplineSet
179 800 m 1xa0
 279 800 l 5
 279 400 l 1xa0
 579 400 l 25
 579 300 l 25
 379 300 l 25
 379 -200 l 25
 179 -200 l 25
 179 300 l 25xc0
 -21 300 l 25
 -21 400 l 25
 179 400 l 1
 179 800 l 1xa0
EndSplineSet
EndChar

StartChar: uni2542
Encoding: 473 9538 472
Width: 600
VWidth: 0
Flags: W
HStem: 300 100<-21 188 397 604>
VStem: 179 200<-209 312 418 834>
LayerCount: 2
Back
Fore
SplineSet
179 800 m 1
 379 800 l 5
 379 400 l 1
 579 400 l 25
 579 300 l 25
 379 300 l 25
 379 -200 l 25
 179 -200 l 25
 179 300 l 25
 -21 300 l 25
 -21 400 l 25
 179 400 l 1
 179 800 l 1
EndSplineSet
EndChar

StartChar: uni2543
Encoding: 474 9539 473
Width: 600
VWidth: 0
Flags: W
HStem: 200 200<-21 188> 300 100<397 604>
VStem: 179 200<418 834> 179 100<-209 209>
LayerCount: 2
Back
Fore
SplineSet
179 800 m 1xa0
 379 800 l 5
 379 400 l 1x60
 579 400 l 25
 579 300 l 25
 279 300 l 25x50
 279 -200 l 25
 179 -200 l 25
 179 200 l 25x90
 -21 200 l 25
 -21 400 l 25
 179 400 l 1
 179 800 l 1xa0
EndSplineSet
EndChar

StartChar: uni2544
Encoding: 475 9540 474
Width: 600
VWidth: 0
Flags: W
HStem: 200 200<397 604> 300 100<-21 188>
VStem: 179 200<418 834> 179 100<-209 209>
LayerCount: 2
Back
Fore
SplineSet
179 800 m 1x60
 379 800 l 5
 379 400 l 1xa0
 579 400 l 25
 579 200 l 25
 279 200 l 25x90
 279 -200 l 25
 179 -200 l 25
 179 300 l 25x50
 -21 300 l 25
 -21 400 l 25
 179 400 l 1
 179 800 l 1x60
EndSplineSet
EndChar

StartChar: uni2545
Encoding: 476 9541 475
Width: 600
VWidth: 0
Flags: W
HStem: 200 200<-21 188> 300 100<397 604>
VStem: 179 200<-209 209> 179 100<418 834>
LayerCount: 2
Back
Fore
SplineSet
179 800 m 1x90
 279 800 l 5
 279 400 l 1x50
 579 400 l 25
 579 300 l 25
 379 300 l 25x60
 379 -200 l 25
 179 -200 l 25
 179 200 l 25xa0
 -21 200 l 25
 -21 400 l 25
 179 400 l 1
 179 800 l 1x90
EndSplineSet
EndChar

StartChar: uni2546
Encoding: 477 9542 476
Width: 600
VWidth: 0
Flags: W
HStem: 200 200<397 604> 300 100<-21 188>
VStem: 179 200<-209 209> 179 100<418 834>
LayerCount: 2
Back
Fore
SplineSet
179 800 m 1x50
 279 800 l 5
 279 400 l 1x50
 579 400 l 25
 579 200 l 25
 379 200 l 25
 379 -200 l 25
 179 -200 l 25xa0
 179 300 l 25
 -21 300 l 25
 -21 400 l 25
 179 400 l 1
 179 800 l 1x50
EndSplineSet
EndChar

StartChar: uni2547
Encoding: 478 9543 477
Width: 600
VWidth: 0
Flags: W
HStem: 200 200<-21 188 397 604>
VStem: 179 200<418 834> 179 100<-209 209>
LayerCount: 2
Back
Fore
SplineSet
179 800 m 1xc0
 379 800 l 5
 379 400 l 1xc0
 579 400 l 25
 579 200 l 25
 279 200 l 25
 279 -200 l 25
 179 -200 l 25
 179 200 l 25xa0
 -21 200 l 25
 -21 400 l 25
 179 400 l 1
 179 800 l 1xc0
EndSplineSet
EndChar

StartChar: uni2548
Encoding: 479 9544 478
Width: 600
VWidth: 0
Flags: W
HStem: 200 200<-21 188 397 604>
VStem: 179 200<-209 209> 179 100<418 834>
LayerCount: 2
Back
Fore
SplineSet
179 800 m 1xa0
 279 800 l 5
 279 400 l 1xa0
 579 400 l 25
 579 200 l 25
 379 200 l 25
 379 -200 l 25
 179 -200 l 25
 179 200 l 25xc0
 -21 200 l 25
 -21 400 l 25
 179 400 l 1
 179 800 l 1xa0
EndSplineSet
EndChar

StartChar: uni2549
Encoding: 480 9545 479
Width: 600
VWidth: 0
Flags: W
HStem: 200 200<-21 188> 300 100<397 604>
VStem: 179 200<-209 209 418 834>
LayerCount: 2
Back
Fore
SplineSet
179 800 m 1xa0
 379 800 l 5
 379 400 l 1
 579 400 l 25
 579 300 l 25
 379 300 l 25x60
 379 -200 l 25
 179 -200 l 25
 179 200 l 25
 -21 200 l 25
 -21 400 l 25
 179 400 l 1
 179 800 l 1xa0
EndSplineSet
EndChar

StartChar: uni254A
Encoding: 481 9546 480
Width: 600
VWidth: 0
Flags: W
HStem: 200 200<397 604> 300 100<-21 188>
VStem: 179 200<-209 209 418 834>
LayerCount: 2
Back
Fore
SplineSet
179 800 m 1x60
 379 800 l 5
 379 400 l 1
 579 400 l 25
 579 200 l 25
 379 200 l 25xa0
 379 -200 l 25
 179 -200 l 25
 179 300 l 25
 -21 300 l 25
 -21 400 l 25
 179 400 l 1
 179 800 l 1x60
EndSplineSet
EndChar

StartChar: uni254B
Encoding: 482 9547 481
Width: 600
VWidth: 0
Flags: W
HStem: 200 200<-21 188 397 604>
VStem: 179 200<-209 209 418 834>
LayerCount: 2
Back
Fore
SplineSet
179 800 m 1
 379 800 l 5
 379 400 l 1
 579 400 l 25
 579 200 l 25
 379 200 l 25
 379 -200 l 25
 179 -200 l 25
 179 200 l 25
 -21 200 l 25
 -21 400 l 25
 179 400 l 1
 179 800 l 1
EndSplineSet
EndChar

StartChar: uni254C
Encoding: 483 9548 482
Width: 600
VWidth: 0
Flags: W
HStem: 300 100<-21 188 397 604>
LayerCount: 2
Back
Fore
SplineSet
379 400 m 25
 579 400 l 25
 579 300 l 25
 379 300 l 25
 379 400 l 25
-21 400 m 25
 179 400 l 25
 179 300 l 25
 -21 300 l 25
 -21 400 l 25
EndSplineSet
EndChar

StartChar: uni254D
Encoding: 484 9549 483
Width: 600
VWidth: 0
Flags: W
HStem: 200 200<-21 188 397 604>
VStem: -21 200<209 418> 379 200<209 418>
LayerCount: 2
Back
Fore
SplineSet
379 400 m 25
 579 400 l 25
 579 200 l 25
 379 200 l 25
 379 400 l 25
-21 400 m 25
 179 400 l 25
 179 200 l 25
 -21 200 l 25
 -21 400 l 25
EndSplineSet
EndChar

StartChar: uni254E
Encoding: 485 9550 484
Width: 600
VWidth: 0
Flags: W
VStem: 179 100<-209 209 418 834>
LayerCount: 2
Back
Fore
SplineSet
179 200 m 25
 279 200 l 25
 279 -200 l 25
 179 -200 l 25
 179 200 l 25
179 800 m 1
 279 800 l 5
 279 400 l 1
 179 400 l 1
 179 800 l 1
EndSplineSet
EndChar

StartChar: uni254F
Encoding: 486 9551 485
Width: 600
VWidth: 0
Flags: W
VStem: 179 200<-209 209 418 834>
LayerCount: 2
Back
Fore
SplineSet
179 200 m 25
 379 200 l 25
 379 -200 l 25
 179 -200 l 25
 179 200 l 25
179 800 m 1
 379 800 l 5
 379 400 l 1
 179 400 l 1
 179 800 l 1
EndSplineSet
EndChar

StartChar: SF430000
Encoding: 487 9552 486
Width: 600
VWidth: 0
Flags: W
HStem: 200 100<-21 604> 400 100<-21 604>
LayerCount: 2
Back
Fore
SplineSet
-21 300 m 25
 579 300 l 25
 579 200 l 25
 -21 200 l 25
 -21 300 l 25
-21 500 m 25
 579 500 l 25
 579 400 l 25
 -21 400 l 25
 -21 500 l 25
EndSplineSet
EndChar

StartChar: SF240000
Encoding: 488 9553 487
Width: 600
VWidth: 0
Flags: W
VStem: 79 100<-209 834> 279 100<-209 834>
LayerCount: 2
Back
Fore
SplineSet
279 800 m 29
 379 800 l 29
 379 -200 l 1
 279 -200 l 1
 279 800 l 29
79 800 m 29
 179 800 l 29
 179 -200 l 1
 79 -200 l 1
 79 800 l 29
EndSplineSet
EndChar

StartChar: SF510000
Encoding: 489 9554 488
Width: 600
VWidth: 0
Flags: W
HStem: 200 100<291 604> 400 100<291 604>
VStem: 179 100<-209 209 312 418>
LayerCount: 2
Back
Fore
SplineSet
179 500 m 25
 579 500 l 25
 579 400 l 25
 279 400 l 25
 279 300 l 25
 579 300 l 25
 579 200 l 25
 279 200 l 25
 279 -200 l 25
 179 -200 l 25
 179 500 l 25
EndSplineSet
EndChar

StartChar: SF520000
Encoding: 490 9555 489
Width: 600
VWidth: 0
Flags: W
HStem: 300 100<188 291 397 604>
VStem: 79 100<-209 312> 279 100<-209 312>
LayerCount: 2
Back
Fore
SplineSet
79 400 m 25
 579 400 l 25
 579 300 l 25
 379 300 l 25
 379 -200 l 25
 279 -200 l 25
 279 300 l 25
 179 300 l 25
 179 -200 l 25
 79 -200 l 25
 79 400 l 25
EndSplineSet
EndChar

StartChar: SF390000
Encoding: 491 9556 490
Width: 600
VWidth: 0
Flags: W
HStem: 200 100<397 604> 400 100<188 604>
VStem: 79 100<-209 418> 279 100<-209 209>
LayerCount: 2
Back
Fore
SplineSet
279 300 m 25
 579 300 l 25
 579 200 l 25
 379 200 l 25
 379 -200 l 25
 279 -200 l 25
 279 300 l 25
79 500 m 25
 579 500 l 25
 579 400 l 25
 179 400 l 25
 179 -200 l 25
 79 -200 l 25
 79 500 l 25
EndSplineSet
EndChar

StartChar: SF220000
Encoding: 492 9557 491
Width: 600
VWidth: 0
Flags: W
HStem: 200 100<-21 188> 400 100<-21 188>
VStem: -21 300<209 312 418 521> 179 100<-209 209 312 418>
LayerCount: 2
Back
Fore
SplineSet
-21 500 m 25xe0
 279 500 l 25xe0
 279 -200 l 25
 179 -200 l 25
 179 200 l 25xd0
 -21 200 l 25
 -21 300 l 25xe0
 179 300 l 25
 179 400 l 25xd0
 -21 400 l 25
 -21 500 l 25xe0
EndSplineSet
EndChar

StartChar: SF210000
Encoding: 493 9558 492
Width: 600
VWidth: 0
Flags: W
HStem: 300 100<-21 83 188 291>
VStem: 79 100<-209 312> 279 100<-209 312>
LayerCount: 2
Back
Fore
SplineSet
-21 400 m 25
 379 400 l 25
 379 -200 l 25
 279 -200 l 25
 279 300 l 25
 179 300 l 25
 179 -200 l 25
 79 -200 l 25
 79 300 l 25
 -21 300 l 25
 -21 400 l 25
EndSplineSet
EndChar

StartChar: SF250000
Encoding: 494 9559 493
Width: 600
VWidth: 0
Flags: W
HStem: 200 100<-21 83> 400 100<-21 291>
VStem: 79 100<-209 209> 279 100<-209 418>
LayerCount: 2
Back
Fore
SplineSet
-21 300 m 25
 179 300 l 25
 179 -200 l 25
 79 -200 l 25
 79 200 l 25
 -21 200 l 25
 -21 300 l 25
-21 500 m 25
 379 500 l 25
 379 -200 l 25
 279 -200 l 25
 279 400 l 25
 -21 400 l 25
 -21 500 l 25
EndSplineSet
EndChar

StartChar: SF500000
Encoding: 495 9560 494
Width: 600
VWidth: 0
Flags: W
HStem: 200 100<291 604> 400 100<291 604>
VStem: 179 100<312 418 521 834>
LayerCount: 2
Back
Fore
SplineSet
179 800 m 1
 279 800 l 5
 279 500 l 1
 579 500 l 25
 579 400 l 25
 279 400 l 25
 279 300 l 25
 579 300 l 25
 579 200 l 25
 179 200 l 1
 179 800 l 1
EndSplineSet
EndChar

StartChar: SF490000
Encoding: 496 9561 495
Width: 600
VWidth: 0
Flags: W
HStem: 300 100<188 291 397 604>
VStem: 79 100<418 834> 279 100<418 834>
LayerCount: 2
Back
Fore
SplineSet
79 800 m 1
 179 800 l 1
 179 400 l 1
 279 400 l 1
 279 800 l 1
 379 800 l 5
 379 400 l 1
 579 400 l 25
 579 300 l 25
 79 300 l 1
 79 800 l 1
EndSplineSet
EndChar

StartChar: SF380000
Encoding: 497 9562 496
Width: 600
VWidth: 0
Flags: W
HStem: 200 100<188 604> 400 100<397 604>
VStem: 79 100<312 834> 279 100<521 834>
LayerCount: 2
Back
Fore
SplineSet
279 800 m 29
 379 800 l 29
 379 500 l 1
 579 500 l 25
 579 400 l 25
 279 400 l 1
 279 800 l 29
79 800 m 29
 179 800 l 29
 179 300 l 1
 579 300 l 25
 579 200 l 25
 79 200 l 1
 79 800 l 29
EndSplineSet
EndChar

StartChar: SF280000
Encoding: 498 9563 497
Width: 600
VWidth: 0
Flags: W
HStem: 200 100<-21 188> 400 100<-21 188>
VStem: -21 300<209 312 418 521> 179 100<312 418 521 834>
LayerCount: 2
Back
Fore
SplineSet
179 800 m 29xd0
 279 800 l 29xd0
 279 200 l 1
 -21 200 l 25
 -21 300 l 25xe0
 179 300 l 25
 179 400 l 25xd0
 -21 400 l 25
 -21 500 l 25xe0
 179 500 l 1
 179 800 l 29xd0
EndSplineSet
EndChar

StartChar: SF270000
Encoding: 499 9564 498
Width: 600
VWidth: 0
Flags: W
HStem: 300 100<579 682 788 891>
VStem: 679 100<418 834> 879 100<418 834>
LayerCount: 2
Back
Fore
SplineSet
79 800 m 29
 179 800 l 29
 179 400 l 1
 279 400 l 1
 279 800 l 29
 379 800 l 29
 379 300 l 1
 -21 300 l 25
 -21 400 l 25
 79 400 l 1
 79 800 l 29
EndSplineSet
EndChar

StartChar: SF260000
Encoding: 500 9565 499
Width: 600
VWidth: 0
Flags: W
HStem: 200 100<-21 291> 400 100<-21 83>
VStem: 79 100<521 834> 279 100<312 834>
LayerCount: 2
Back
Fore
SplineSet
279 800 m 1
 379 800 l 5
 379 200 l 1
 -21 200 l 25
 -21 300 l 25
 279 300 l 1
 279 800 l 1
79 800 m 1
 179 800 l 1
 179 400 l 1
 -21 400 l 25
 -21 500 l 25
 79 500 l 1
 79 800 l 1
EndSplineSet
EndChar

StartChar: SF360000
Encoding: 501 9566 500
Width: 600
VWidth: 0
Flags: W
HStem: 200 100<291 604> 400 100<291 604>
VStem: 179 100<-209 209 312 418 521 834>
LayerCount: 2
Back
Fore
SplineSet
179 800 m 1
 279 800 l 5
 279 500 l 1
 579 500 l 25
 579 400 l 25
 279 400 l 25
 279 300 l 25
 579 300 l 25
 579 200 l 25
 279 200 l 25
 279 -200 l 25
 179 -200 l 1
 179 800 l 1
EndSplineSet
EndChar

StartChar: SF370000
Encoding: 502 9567 501
Width: 600
VWidth: 0
Flags: W
HStem: 300 100<397 604>
VStem: 79 100<-209 834> 279 100<-209 312 418 834>
LayerCount: 2
Back
Fore
SplineSet
279 800 m 1
 379 800 l 5
 379 400 l 1
 579 400 l 25
 579 300 l 25
 379 300 l 25
 379 -200 l 25
 279 -200 l 1
 279 800 l 1
79 800 m 1
 179 800 l 1
 179 -200 l 1
 79 -200 l 1
 79 800 l 1
EndSplineSet
EndChar

StartChar: SF420000
Encoding: 503 9568 502
Width: 600
VWidth: 0
Flags: W
HStem: 200 100<397 604> 400 100<397 604>
VStem: 79 100<-209 834> 279 300<209 312 418 521> 279 100<-209 209 521 834>
LayerCount: 2
Back
Fore
SplineSet
279 300 m 25xf0
 579 300 l 25
 579 200 l 25xf0
 379 200 l 25
 379 -200 l 25
 279 -200 l 25xe8
 279 300 l 25xf0
279 800 m 29xe8
 379 800 l 29
 379 500 l 1xe8
 579 500 l 25
 579 400 l 25
 279 400 l 1xf0
 279 800 l 29xe8
79 800 m 29
 179 800 l 29
 179 -200 l 1
 79 -200 l 1
 79 800 l 29
EndSplineSet
EndChar

StartChar: SF190000
Encoding: 504 9569 503
Width: 600
VWidth: 0
Flags: W
HStem: 200 100<-21 188> 400 100<-21 188>
VStem: -21 300<209 312 418 521> 179 100<-209 209 312 418 521 834>
LayerCount: 2
Back
Fore
SplineSet
-21 500 m 25xe0
 179 500 l 1
 179 800 l 29
 279 800 l 29
 279 -200 l 1
 179 -200 l 25
 179 200 l 25xd0
 -21 200 l 25
 -21 300 l 25xe0
 179 300 l 25
 179 400 l 25xd0
 -21 400 l 25
 -21 500 l 25xe0
EndSplineSet
EndChar

StartChar: SF200000
Encoding: 505 9570 504
Width: 600
VWidth: 0
Flags: W
HStem: 300 100<-21 83>
VStem: 79 100<-209 312 418 834> 279 100<-209 834>
LayerCount: 2
Back
Fore
SplineSet
279 800 m 29
 379 800 l 29
 379 -200 l 1
 279 -200 l 1
 279 800 l 29
79 800 m 29
 179 800 l 29
 179 -200 l 1
 79 -200 l 25
 79 300 l 25
 -21 300 l 25
 -21 400 l 25
 79 400 l 1
 79 800 l 29
EndSplineSet
EndChar

StartChar: SF230000
Encoding: 506 9571 505
Width: 600
VWidth: 0
Flags: W
HStem: 200 100<-21 83> 400 100<-21 83>
VStem: -21 200<209 312 418 521> 79 100<-209 209 521 834> 279 100<-209 834>
LayerCount: 2
Back
Fore
SplineSet
279 800 m 29xc8
 379 800 l 29
 379 -200 l 1
 279 -200 l 1
 279 800 l 29xc8
-21 300 m 25xe8
 179 300 l 25xe8
 179 -200 l 25
 79 -200 l 25
 79 200 l 25xd8
 -21 200 l 25
 -21 300 l 25xe8
79 800 m 29xd8
 179 800 l 29xd8
 179 400 l 1
 -21 400 l 25
 -21 500 l 25xe8
 79 500 l 1
 79 800 l 29xd8
EndSplineSet
EndChar

StartChar: SF470000
Encoding: 507 9572 506
Width: 600
VWidth: 0
Flags: W
HStem: 200 100<-21 188 291 604> 400 100<-21 604>
VStem: 179 100<-209 209>
LayerCount: 2
Back
Fore
SplineSet
-21 300 m 25
 579 300 l 25
 579 200 l 25
 279 200 l 25
 279 -200 l 25
 179 -200 l 25
 179 200 l 25
 -21 200 l 25
 -21 300 l 25
-21 500 m 25
 579 500 l 25
 579 400 l 25
 -21 400 l 25
 -21 500 l 25
EndSplineSet
EndChar

StartChar: SF480000
Encoding: 508 9573 507
Width: 600
VWidth: 0
Flags: W
HStem: 300 100<-21 83 188 291 397 604>
VStem: 79 100<-209 312> 279 100<-209 312>
LayerCount: 2
Back
Fore
SplineSet
-21 400 m 25
 579 400 l 25
 579 300 l 25
 379 300 l 25
 379 -200 l 25
 279 -200 l 25
 279 300 l 25
 179 300 l 25
 179 -200 l 25
 79 -200 l 25
 79 300 l 25
 -21 300 l 25
 -21 400 l 25
EndSplineSet
EndChar

StartChar: SF410000
Encoding: 509 9574 508
Width: 600
VWidth: 0
Flags: W
HStem: 200 100<-21 83 397 604> 400 100<-21 604>
VStem: 79 100<-209 209> 279 100<-209 209>
LayerCount: 2
Back
Fore
SplineSet
279 300 m 25
 579 300 l 25
 579 200 l 25
 379 200 l 25
 379 -200 l 25
 279 -200 l 25
 279 300 l 25
-21 300 m 25
 179 300 l 25
 179 -200 l 25
 79 -200 l 25
 79 200 l 25
 -21 200 l 25
 -21 300 l 25
-21 500 m 25
 579 500 l 25
 579 400 l 25
 -21 400 l 25
 -21 500 l 25
EndSplineSet
EndChar

StartChar: SF450000
Encoding: 510 9575 509
Width: 600
VWidth: 0
Flags: W
HStem: 200 100<-21 604> 400 100<-21 188 291 604>
VStem: 179 100<521 834>
LayerCount: 2
Back
Fore
SplineSet
-21 300 m 25
 579 300 l 25
 579 200 l 25
 -21 200 l 25
 -21 300 l 25
-21 500 m 25
 179 500 l 1
 179 800 l 29
 279 800 l 29
 279 500 l 1
 579 500 l 25
 579 400 l 25
 -21 400 l 25
 -21 500 l 25
EndSplineSet
EndChar

StartChar: SF460000
Encoding: 511 9576 510
Width: 600
VWidth: 0
Flags: W
HStem: 300 100<-21 83 188 291 397 604>
VStem: 79 100<418 834> 279 100<418 834>
LayerCount: 2
Back
Fore
SplineSet
-21 400 m 25
 79 400 l 1
 79 800 l 29
 179 800 l 29
 179 400 l 1
 279 400 l 1
 279 800 l 29
 379 800 l 29
 379 400 l 1
 579 400 l 25
 579 300 l 25
 -21 300 l 25
 -21 400 l 25
EndSplineSet
EndChar

StartChar: SF400000
Encoding: 512 9577 511
Width: 600
VWidth: 0
Flags: W
HStem: 200 100<-21 604> 400 100<-21 83 397 604>
VStem: 79 100<521 834> 279 100<521 834>
LayerCount: 2
Back
Fore
SplineSet
-21 300 m 25
 579 300 l 25
 579 200 l 25
 -21 200 l 25
 -21 300 l 25
279 800 m 29
 379 800 l 29
 379 500 l 1
 579 500 l 25
 579 400 l 25
 279 400 l 1
 279 800 l 29
-21 500 m 25
 79 500 l 1
 79 800 l 29
 179 800 l 29
 179 400 l 1
 -21 400 l 25
 -21 500 l 25
EndSplineSet
EndChar

StartChar: SF540000
Encoding: 513 9578 512
Width: 600
VWidth: 0
Flags: W
HStem: 200 100<-21 188 291 604> 400 100<-21 188 291 604>
VStem: 179 100<-209 209 312 418 521 834>
LayerCount: 2
Back
Fore
SplineSet
-21 500 m 25
 179 500 l 1
 179 800 l 29
 279 800 l 29
 279 500 l 1
 579 500 l 25
 579 400 l 25
 279 400 l 25
 279 300 l 25
 579 300 l 25
 579 200 l 25
 279 200 l 25
 279 -200 l 25
 179 -200 l 25
 179 200 l 25
 -21 200 l 25
 -21 300 l 25
 179 300 l 25
 179 400 l 25
 -21 400 l 25
 -21 500 l 25
EndSplineSet
EndChar

StartChar: SF530000
Encoding: 514 9579 513
Width: 600
VWidth: 0
Flags: W
HStem: 300 100<-21 83 188 291 397 604>
VStem: 79 100<-209 312 418 834> 279 100<-209 312 418 834>
LayerCount: 2
Back
Fore
SplineSet
-21 400 m 25
 79 400 l 1
 79 800 l 29
 179 800 l 29
 179 400 l 1
 279 400 l 1
 279 800 l 29
 379 800 l 29
 379 400 l 1
 579 400 l 25
 579 300 l 25
 379 300 l 25
 379 -200 l 25
 279 -200 l 25
 279 300 l 25
 179 300 l 25
 179 -200 l 25
 79 -200 l 25
 79 300 l 25
 -21 300 l 25
 -21 400 l 25
EndSplineSet
EndChar

StartChar: SF440000
Encoding: 515 9580 514
Width: 600
VWidth: 0
Flags: W
HStem: 200 100<-21 83 397 604> 400 100<-21 83 397 604>
VStem: -21 200<209 312 418 521> 79 100<-209 209 521 834> 279 300<209 312 418 521> 279 100<-209 209 521 834>
LayerCount: 2
Back
Fore
SplineSet
279 300 m 25xc8
 579 300 l 25
 579 200 l 25xc8
 379 200 l 25
 379 -200 l 25
 279 -200 l 25xc4
 279 300 l 25xc8
-21 300 m 25xe0
 179 300 l 25xe0
 179 -200 l 25
 79 -200 l 25
 79 200 l 25xd0
 -21 200 l 25
 -21 300 l 25xe0
279 800 m 29xc4
 379 800 l 29
 379 500 l 1xc4
 579 500 l 25
 579 400 l 25
 279 400 l 1xc8
 279 800 l 29xc4
-21 500 m 25xe0
 79 500 l 1
 79 800 l 29
 179 800 l 29xd0
 179 400 l 1
 -21 400 l 25
 -21 500 l 25xe0
EndSplineSet
EndChar

StartChar: uni256D
Encoding: 516 9581 515
Width: 600
VWidth: 0
Flags: W
HStem: 200 100<291 397> 300 100<397 604>
VStem: 179 100<-209 209> 279 100<209 312>
LayerCount: 2
Back
Fore
SplineSet
179 -200 m 25xa0
 179 200 l 25
 279 200 l 25xa0
 279 300 l 25
 379 300 l 25x90
 379 400 l 25
 579 400 l 25
 579 300 l 25x50
 379 300 l 25
 379 200 l 25x90
 279 200 l 25
 279 -200 l 25
 179 -200 l 25xa0
EndSplineSet
EndChar

StartChar: uni256E
Encoding: 517 9582 516
Width: 600
VWidth: 0
Flags: W
HStem: 200 100<83 188> 300 100<-21 83>
VStem: -21 100<312 418> 79 100<209 312> 179 100<-209 209>
LayerCount: 2
Back
Fore
SplineSet
-21 400 m 25x60
 79 400 l 25x60
 79 300 l 25xa0
 179 300 l 25
 179 200 l 25x90
 279 200 l 25
 279 -200 l 25
 179 -200 l 25x88
 179 200 l 25
 79 200 l 25x90
 79 300 l 25xa0
 -21 300 l 25
 -21 400 l 25x60
EndSplineSet
EndChar

StartChar: uni256F
Encoding: 518 9583 517
Width: 600
VWidth: 0
Flags: W
HStem: 300 100<-21 83> 400 100<83 188>
VStem: -21 100<312 418> 79 100<418 521> 179 100<521 834>
LayerCount: 2
Back
Fore
SplineSet
-21 400 m 25xa0
 79 400 l 25xa0
 79 500 l 25
 179 500 l 1x50
 179 800 l 29
 279 800 l 29
 279 500 l 1x48
 179 500 l 25
 179 400 l 25x50
 79 400 l 25
 79 300 l 25
 -21 300 l 25
 -21 400 l 25xa0
EndSplineSet
EndChar

StartChar: uni2570
Encoding: 519 9584 518
Width: 600
VWidth: 0
Flags: W
HStem: 300 100<397 604> 400 100<291 397>
VStem: 179 100<521 834> 279 100<418 521>
LayerCount: 2
Back
Fore
SplineSet
179 800 m 29x60
 279 800 l 29
 279 500 l 1x60
 379 500 l 25x50
 379 400 l 25
 579 400 l 25
 579 300 l 25
 379 300 l 25
 379 400 l 25x90
 279 400 l 25x50
 279 500 l 25
 179 500 l 1
 179 800 l 29x60
EndSplineSet
EndChar

StartChar: uni2571
Encoding: 520 9585 519
Width: 600
VWidth: 0
Flags: W
HStem: 200 100<188 291> 300 100<291 397>
VStem: -21 100<-209 0> 79 100<0 209> 179 100<209 312> 279 100<312 418> 379 100<418 625> 479 100<625 834>
LayerCount: 2
Back
Fore
SplineSet
479 800 m 1x41
 579 800 l 5
 579 600 l 1x41
 479 600 l 25
 479 400 l 25x42
 379 400 l 25
 379 300 l 25x44
 279 300 l 25
 279 200 l 25x88
 179 200 l 25
 179 0 l 25x90
 79 0 l 25
 79 -200 l 25
 -21 -200 l 25
 -21 0 l 25
 79 0 l 25xa0
 79 200 l 25
 179 200 l 25x90
 179 300 l 25
 279 300 l 25x88
 279 400 l 25
 379 400 l 25x44
 379 600 l 25
 479 600 l 1x42
 479 800 l 1x41
EndSplineSet
EndChar

StartChar: uni2572
Encoding: 521 9586 520
Width: 600
VWidth: 0
Flags: W
HStem: 200 100<291 397> 300 100<188 291>
VStem: -21 100<625 834> 79 100<418 625> 179 100<312 418> 279 100<209 312> 379 100<0 209> 479 100<-209 0>
LayerCount: 2
Back
Fore
SplineSet
-21 800 m 1x60
 79 800 l 5
 79 600 l 1x60
 179 600 l 25
 179 400 l 25x50
 279 400 l 25x48
 279 300 l 25x88
 379 300 l 25
 379 200 l 25x84
 479 200 l 25
 479 0 l 25x82
 579 0 l 25
 579 -200 l 25
 479 -200 l 25x81
 479 0 l 25
 379 0 l 25x82
 379 200 l 25
 279 200 l 25x84
 279 300 l 25x88
 179 300 l 25x48
 179 400 l 25
 79 400 l 25x50
 79 600 l 25
 -21 600 l 1
 -21 800 l 1x60
EndSplineSet
EndChar

StartChar: uni2573
Encoding: 522 9587 521
Width: 600
VWidth: 0
Flags: W
HStem: -200 200<-21 83 500 604> 0 200<83 188 397 500> 400 200<83 188 397 500> 600 200<-21 83 500 604>
VStem: -21 100<-209 0 625 834> 79 100<0 209 418 625> 379 100<0 209 418 625> 479 100<-209 0 625 834>
LayerCount: 2
Back
Fore
SplineSet
-21 800 m 1x18
 79 800 l 1x18
 79 600 l 1x28
 179 600 l 25
 179 400 l 25
 379 400 l 25
 379 600 l 25
 479 600 l 1x26
 479 800 l 1
 579 800 l 5
 579 600 l 1x11
 479 600 l 25
 479 400 l 25
 379 400 l 25
 379 200 l 25
 479 200 l 25x62
 479 0 l 25x82
 579 0 l 25
 579 -200 l 25
 479 -200 l 25x81
 479 0 l 25x82
 379 0 l 25
 379 200 l 25
 179 200 l 25
 179 0 l 25x46
 79 0 l 25
 79 -200 l 25
 -21 -200 l 25
 -21 0 l 25
 79 0 l 25x88
 79 200 l 25
 179 200 l 25
 179 400 l 25
 79 400 l 25x64
 79 600 l 25x68
 -21 600 l 1
 -21 800 l 1x18
EndSplineSet
EndChar

StartChar: uni2574
Encoding: 523 9588 522
Width: 600
VWidth: 0
Flags: W
HStem: 300 100<-21 291>
VStem: -21 300<312 418>
LayerCount: 2
Back
Fore
SplineSet
-21 400 m 25
 279 400 l 25
 279 300 l 25
 -21 300 l 25
 -21 400 l 25
EndSplineSet
EndChar

StartChar: uni2575
Encoding: 524 9589 523
Width: 600
VWidth: 0
Flags: W
VStem: 179 100<312 834>
LayerCount: 2
Back
Fore
SplineSet
179 800 m 1
 279 800 l 5
 279 300 l 1
 179 300 l 1
 179 800 l 1
EndSplineSet
EndChar

StartChar: uni2576
Encoding: 525 9590 524
Width: 600
VWidth: 0
Flags: W
HStem: 300 100<188 604>
LayerCount: 2
Back
Fore
SplineSet
179 400 m 25
 579 400 l 25
 579 300 l 25
 179 300 l 25
 179 400 l 25
EndSplineSet
EndChar

StartChar: uni2577
Encoding: 526 9591 525
Width: 600
VWidth: 0
Flags: W
VStem: 179 100<-209 418>
LayerCount: 2
Back
Fore
SplineSet
179 400 m 25
 279 400 l 25
 279 -200 l 25
 179 -200 l 25
 179 400 l 25
EndSplineSet
EndChar

StartChar: uni2578
Encoding: 527 9592 526
Width: 600
VWidth: 0
Flags: W
HStem: 200 200<-21 291>
VStem: -21 300<209 418>
LayerCount: 2
Back
Fore
SplineSet
-21 400 m 25
 279 400 l 25
 279 200 l 25
 -21 200 l 25
 -21 400 l 25
EndSplineSet
EndChar

StartChar: uni2579
Encoding: 528 9593 527
Width: 600
VWidth: 0
Flags: W
VStem: 179 200<312 834>
LayerCount: 2
Back
Fore
SplineSet
179 800 m 1
 379 800 l 5
 379 300 l 1
 179 300 l 1
 179 800 l 1
EndSplineSet
EndChar

StartChar: uni257A
Encoding: 529 9594 528
Width: 600
VWidth: 0
Flags: W
HStem: 200 200<188 604>
LayerCount: 2
Back
Fore
SplineSet
179 400 m 25
 579 400 l 25
 579 200 l 25
 179 200 l 25
 179 400 l 25
EndSplineSet
EndChar

StartChar: uni257B
Encoding: 530 9595 529
Width: 600
VWidth: 0
Flags: W
VStem: 179 200<-209 418>
LayerCount: 2
Back
Fore
SplineSet
179 400 m 25
 379 400 l 25
 379 -200 l 25
 179 -200 l 25
 179 400 l 25
EndSplineSet
EndChar

StartChar: uni257C
Encoding: 531 9596 530
Width: 600
VWidth: 0
Flags: W
HStem: 200 200<188 604> 300 100<-21 188>
LayerCount: 2
Back
Fore
SplineSet
-21 400 m 25x40
 579 400 l 25
 579 200 l 25
 179 200 l 25x80
 179 300 l 25
 -21 300 l 25
 -21 400 l 25x40
EndSplineSet
EndChar

StartChar: uni257D
Encoding: 532 9597 531
Width: 600
VWidth: 0
Flags: W
VStem: 179 200<-209 418> 179 100<418 834>
LayerCount: 2
Back
Fore
SplineSet
179 800 m 1x40
 279 800 l 5
 279 400 l 1x40
 379 400 l 25
 379 -200 l 25
 179 -200 l 1x80
 179 800 l 1x40
EndSplineSet
EndChar

StartChar: uni257E
Encoding: 533 9598 532
Width: 600
VWidth: 0
Flags: W
HStem: 200 200<-21 291> 300 100<291 604>
LayerCount: 2
Back
Fore
SplineSet
-21 400 m 25x80
 579 400 l 25
 579 300 l 25
 279 300 l 25x40
 279 200 l 25
 -21 200 l 25
 -21 400 l 25x80
EndSplineSet
EndChar

StartChar: uni257F
Encoding: 534 9599 533
Width: 600
VWidth: 0
Flags: W
VStem: 179 200<312 834> 179 100<-209 312>
LayerCount: 2
Back
Fore
SplineSet
179 800 m 1x80
 379 800 l 5
 379 300 l 1x80
 279 300 l 25
 279 -200 l 25
 179 -200 l 1x40
 179 800 l 1x80
EndSplineSet
EndChar

StartChar: block
Encoding: 535 9608 534
Width: 600
VWidth: 0
Flags: W
VStem: -21 600<-209 834>
LayerCount: 2
Back
Fore
SplineSet
-21 800 m 1
 579 800 l 5
 579 -200 l 1
 -21 -200 l 1
 -21 800 l 1
EndSplineSet
EndChar

